%
M48
M72
T01C0.02362
T02C0.02756
T03C0.03200
T04C0.03543
T05C0.03600
T06C0.03937
T07C0.04000
T08C0.11811
%
T01
X44518Y53050
X167018Y90550
X215768Y70550
X232018Y80550
X262018Y93050
X282018Y91800
X295768Y100550
X224518Y130550
X79518Y105550
X270768Y41800
X249518Y19300
X254518Y18050
X249518Y14300
T02
X35640Y101751
X30916Y104900
X35640Y108050
X30916Y111200
X35640Y114349
T03
X27018Y11800
X37018Y11800
X50768Y25550
X10768Y25550
X9518Y61800
X9518Y71800
X9518Y83050
X49518Y83050
X49518Y71800
X49518Y61800
X67018Y61800
X77018Y61800
X87018Y61800
X97018Y61800
X107018Y61800
X117018Y61800
X127018Y61800
X137018Y61800
X147018Y61800
X157018Y61800
X167018Y61800
X177018Y61800
X187018Y61800
X197018Y61800
X207018Y61800
X217018Y61800
X227018Y61800
X237018Y61800
X247018Y61800
X257018Y61800
X278268Y45550
X298268Y45550
X308268Y45550
X308268Y56800
X300768Y69300
X300768Y79300
X348268Y56800
X348268Y45550
X359518Y70550
X367018Y75550
X359518Y80550
X257018Y121800
X247018Y121800
X237018Y121800
X227018Y121800
X217018Y121800
X207018Y121800
X197018Y121800
X187018Y121800
X177018Y121800
X167018Y121800
X157018Y121800
X147018Y121800
X137018Y121800
X127018Y121800
X117018Y121800
X107018Y121800
X97018Y121800
X87018Y121800
X77018Y121800
X67018Y121800
X49518Y133050
X49518Y143050
X9518Y143050
X9518Y133050
X119518Y138050
X129518Y138050
X150018Y138050
X169018Y138050
X189518Y138050
X199518Y138050
X228268Y138050
X248268Y138050
T04
X277018Y136800
X287018Y116800
X277018Y86800
T05
X314518Y98050
X324518Y98050
X334518Y98050
X344518Y98050
X354518Y98050
X354518Y108050
X344518Y108050
X334518Y108050
X324518Y108050
X314518Y108050
T06
X15758Y93680
X15758Y122420
T07
X68268Y140550
X78268Y140550
X88268Y140550
X98268Y140550
X102018Y46800
X92018Y46800
X82018Y46800
X72018Y46800
X62018Y46800
X64218Y25700
X89818Y25700
X89818Y7900
X64218Y7900
X139218Y7900
X164818Y7900
X164818Y25700
X139218Y25700
X142018Y46800
X132018Y46800
X122018Y46800
X112018Y46800
X152018Y46800
X162018Y46800
X172018Y46800
X182018Y46800
X192018Y46800
X202018Y46800
X212018Y46800
X222018Y46800
X232018Y46800
X242018Y46800
X252018Y46800
X239818Y25700
X214218Y25700
X214218Y7900
X239818Y7900
X289218Y7900
X314818Y7900
X314818Y25700
X289218Y25700
T08
X364518Y46800
X17018Y46800
M30
