G75*
%MOIN*%
%OFA0B0*%
%FSLAX25Y25*%
%IPPOS*%
%LPD*%
%AMOC8*
5,1,8,0,0,1.08239X$1,22.5*
%
%ADD10C,0.00000*%
%ADD11C,0.12411*%
%ADD12C,0.05400*%
%ADD13OC8,0.05400*%
%ADD14OC8,0.06900*%
%ADD15C,0.06900*%
%ADD16C,0.06200*%
%ADD17C,0.05400*%
%ADD18C,0.05743*%
%ADD19OC8,0.05800*%
%ADD20C,0.04956*%
%ADD21C,0.04162*%
D10*
X0002038Y0001200D02*
X0002038Y0148650D01*
X0376959Y0148650D01*
X0376959Y0001200D01*
X0002038Y0001200D01*
X0012018Y0030550D02*
X0012018Y0033050D01*
X0115768Y0033050D01*
X0115768Y0030550D01*
X0012018Y0030550D01*
X0011112Y0046800D02*
X0011114Y0046953D01*
X0011120Y0047107D01*
X0011130Y0047260D01*
X0011144Y0047412D01*
X0011162Y0047565D01*
X0011184Y0047716D01*
X0011209Y0047867D01*
X0011239Y0048018D01*
X0011273Y0048168D01*
X0011310Y0048316D01*
X0011351Y0048464D01*
X0011396Y0048610D01*
X0011445Y0048756D01*
X0011498Y0048900D01*
X0011554Y0049042D01*
X0011614Y0049183D01*
X0011678Y0049323D01*
X0011745Y0049461D01*
X0011816Y0049597D01*
X0011891Y0049731D01*
X0011968Y0049863D01*
X0012050Y0049993D01*
X0012134Y0050121D01*
X0012222Y0050247D01*
X0012313Y0050370D01*
X0012407Y0050491D01*
X0012505Y0050609D01*
X0012605Y0050725D01*
X0012709Y0050838D01*
X0012815Y0050949D01*
X0012924Y0051057D01*
X0013036Y0051162D01*
X0013150Y0051263D01*
X0013268Y0051362D01*
X0013387Y0051458D01*
X0013509Y0051551D01*
X0013634Y0051640D01*
X0013761Y0051727D01*
X0013890Y0051809D01*
X0014021Y0051889D01*
X0014154Y0051965D01*
X0014289Y0052038D01*
X0014426Y0052107D01*
X0014565Y0052172D01*
X0014705Y0052234D01*
X0014847Y0052292D01*
X0014990Y0052347D01*
X0015135Y0052398D01*
X0015281Y0052445D01*
X0015428Y0052488D01*
X0015576Y0052527D01*
X0015725Y0052563D01*
X0015875Y0052594D01*
X0016026Y0052622D01*
X0016177Y0052646D01*
X0016330Y0052666D01*
X0016482Y0052682D01*
X0016635Y0052694D01*
X0016788Y0052702D01*
X0016941Y0052706D01*
X0017095Y0052706D01*
X0017248Y0052702D01*
X0017401Y0052694D01*
X0017554Y0052682D01*
X0017706Y0052666D01*
X0017859Y0052646D01*
X0018010Y0052622D01*
X0018161Y0052594D01*
X0018311Y0052563D01*
X0018460Y0052527D01*
X0018608Y0052488D01*
X0018755Y0052445D01*
X0018901Y0052398D01*
X0019046Y0052347D01*
X0019189Y0052292D01*
X0019331Y0052234D01*
X0019471Y0052172D01*
X0019610Y0052107D01*
X0019747Y0052038D01*
X0019882Y0051965D01*
X0020015Y0051889D01*
X0020146Y0051809D01*
X0020275Y0051727D01*
X0020402Y0051640D01*
X0020527Y0051551D01*
X0020649Y0051458D01*
X0020768Y0051362D01*
X0020886Y0051263D01*
X0021000Y0051162D01*
X0021112Y0051057D01*
X0021221Y0050949D01*
X0021327Y0050838D01*
X0021431Y0050725D01*
X0021531Y0050609D01*
X0021629Y0050491D01*
X0021723Y0050370D01*
X0021814Y0050247D01*
X0021902Y0050121D01*
X0021986Y0049993D01*
X0022068Y0049863D01*
X0022145Y0049731D01*
X0022220Y0049597D01*
X0022291Y0049461D01*
X0022358Y0049323D01*
X0022422Y0049183D01*
X0022482Y0049042D01*
X0022538Y0048900D01*
X0022591Y0048756D01*
X0022640Y0048610D01*
X0022685Y0048464D01*
X0022726Y0048316D01*
X0022763Y0048168D01*
X0022797Y0048018D01*
X0022827Y0047867D01*
X0022852Y0047716D01*
X0022874Y0047565D01*
X0022892Y0047412D01*
X0022906Y0047260D01*
X0022916Y0047107D01*
X0022922Y0046953D01*
X0022924Y0046800D01*
X0022922Y0046647D01*
X0022916Y0046493D01*
X0022906Y0046340D01*
X0022892Y0046188D01*
X0022874Y0046035D01*
X0022852Y0045884D01*
X0022827Y0045733D01*
X0022797Y0045582D01*
X0022763Y0045432D01*
X0022726Y0045284D01*
X0022685Y0045136D01*
X0022640Y0044990D01*
X0022591Y0044844D01*
X0022538Y0044700D01*
X0022482Y0044558D01*
X0022422Y0044417D01*
X0022358Y0044277D01*
X0022291Y0044139D01*
X0022220Y0044003D01*
X0022145Y0043869D01*
X0022068Y0043737D01*
X0021986Y0043607D01*
X0021902Y0043479D01*
X0021814Y0043353D01*
X0021723Y0043230D01*
X0021629Y0043109D01*
X0021531Y0042991D01*
X0021431Y0042875D01*
X0021327Y0042762D01*
X0021221Y0042651D01*
X0021112Y0042543D01*
X0021000Y0042438D01*
X0020886Y0042337D01*
X0020768Y0042238D01*
X0020649Y0042142D01*
X0020527Y0042049D01*
X0020402Y0041960D01*
X0020275Y0041873D01*
X0020146Y0041791D01*
X0020015Y0041711D01*
X0019882Y0041635D01*
X0019747Y0041562D01*
X0019610Y0041493D01*
X0019471Y0041428D01*
X0019331Y0041366D01*
X0019189Y0041308D01*
X0019046Y0041253D01*
X0018901Y0041202D01*
X0018755Y0041155D01*
X0018608Y0041112D01*
X0018460Y0041073D01*
X0018311Y0041037D01*
X0018161Y0041006D01*
X0018010Y0040978D01*
X0017859Y0040954D01*
X0017706Y0040934D01*
X0017554Y0040918D01*
X0017401Y0040906D01*
X0017248Y0040898D01*
X0017095Y0040894D01*
X0016941Y0040894D01*
X0016788Y0040898D01*
X0016635Y0040906D01*
X0016482Y0040918D01*
X0016330Y0040934D01*
X0016177Y0040954D01*
X0016026Y0040978D01*
X0015875Y0041006D01*
X0015725Y0041037D01*
X0015576Y0041073D01*
X0015428Y0041112D01*
X0015281Y0041155D01*
X0015135Y0041202D01*
X0014990Y0041253D01*
X0014847Y0041308D01*
X0014705Y0041366D01*
X0014565Y0041428D01*
X0014426Y0041493D01*
X0014289Y0041562D01*
X0014154Y0041635D01*
X0014021Y0041711D01*
X0013890Y0041791D01*
X0013761Y0041873D01*
X0013634Y0041960D01*
X0013509Y0042049D01*
X0013387Y0042142D01*
X0013268Y0042238D01*
X0013150Y0042337D01*
X0013036Y0042438D01*
X0012924Y0042543D01*
X0012815Y0042651D01*
X0012709Y0042762D01*
X0012605Y0042875D01*
X0012505Y0042991D01*
X0012407Y0043109D01*
X0012313Y0043230D01*
X0012222Y0043353D01*
X0012134Y0043479D01*
X0012050Y0043607D01*
X0011968Y0043737D01*
X0011891Y0043869D01*
X0011816Y0044003D01*
X0011745Y0044139D01*
X0011678Y0044277D01*
X0011614Y0044417D01*
X0011554Y0044558D01*
X0011498Y0044700D01*
X0011445Y0044844D01*
X0011396Y0044990D01*
X0011351Y0045136D01*
X0011310Y0045284D01*
X0011273Y0045432D01*
X0011239Y0045582D01*
X0011209Y0045733D01*
X0011184Y0045884D01*
X0011162Y0046035D01*
X0011144Y0046188D01*
X0011130Y0046340D01*
X0011120Y0046493D01*
X0011114Y0046647D01*
X0011112Y0046800D01*
X0134518Y0033050D02*
X0134518Y0030550D01*
X0244518Y0030550D01*
X0244518Y0033050D01*
X0134518Y0033050D01*
X0263268Y0033050D02*
X0263268Y0030550D01*
X0367018Y0030550D01*
X0367018Y0033050D01*
X0263268Y0033050D01*
X0358612Y0046800D02*
X0358614Y0046953D01*
X0358620Y0047107D01*
X0358630Y0047260D01*
X0358644Y0047412D01*
X0358662Y0047565D01*
X0358684Y0047716D01*
X0358709Y0047867D01*
X0358739Y0048018D01*
X0358773Y0048168D01*
X0358810Y0048316D01*
X0358851Y0048464D01*
X0358896Y0048610D01*
X0358945Y0048756D01*
X0358998Y0048900D01*
X0359054Y0049042D01*
X0359114Y0049183D01*
X0359178Y0049323D01*
X0359245Y0049461D01*
X0359316Y0049597D01*
X0359391Y0049731D01*
X0359468Y0049863D01*
X0359550Y0049993D01*
X0359634Y0050121D01*
X0359722Y0050247D01*
X0359813Y0050370D01*
X0359907Y0050491D01*
X0360005Y0050609D01*
X0360105Y0050725D01*
X0360209Y0050838D01*
X0360315Y0050949D01*
X0360424Y0051057D01*
X0360536Y0051162D01*
X0360650Y0051263D01*
X0360768Y0051362D01*
X0360887Y0051458D01*
X0361009Y0051551D01*
X0361134Y0051640D01*
X0361261Y0051727D01*
X0361390Y0051809D01*
X0361521Y0051889D01*
X0361654Y0051965D01*
X0361789Y0052038D01*
X0361926Y0052107D01*
X0362065Y0052172D01*
X0362205Y0052234D01*
X0362347Y0052292D01*
X0362490Y0052347D01*
X0362635Y0052398D01*
X0362781Y0052445D01*
X0362928Y0052488D01*
X0363076Y0052527D01*
X0363225Y0052563D01*
X0363375Y0052594D01*
X0363526Y0052622D01*
X0363677Y0052646D01*
X0363830Y0052666D01*
X0363982Y0052682D01*
X0364135Y0052694D01*
X0364288Y0052702D01*
X0364441Y0052706D01*
X0364595Y0052706D01*
X0364748Y0052702D01*
X0364901Y0052694D01*
X0365054Y0052682D01*
X0365206Y0052666D01*
X0365359Y0052646D01*
X0365510Y0052622D01*
X0365661Y0052594D01*
X0365811Y0052563D01*
X0365960Y0052527D01*
X0366108Y0052488D01*
X0366255Y0052445D01*
X0366401Y0052398D01*
X0366546Y0052347D01*
X0366689Y0052292D01*
X0366831Y0052234D01*
X0366971Y0052172D01*
X0367110Y0052107D01*
X0367247Y0052038D01*
X0367382Y0051965D01*
X0367515Y0051889D01*
X0367646Y0051809D01*
X0367775Y0051727D01*
X0367902Y0051640D01*
X0368027Y0051551D01*
X0368149Y0051458D01*
X0368268Y0051362D01*
X0368386Y0051263D01*
X0368500Y0051162D01*
X0368612Y0051057D01*
X0368721Y0050949D01*
X0368827Y0050838D01*
X0368931Y0050725D01*
X0369031Y0050609D01*
X0369129Y0050491D01*
X0369223Y0050370D01*
X0369314Y0050247D01*
X0369402Y0050121D01*
X0369486Y0049993D01*
X0369568Y0049863D01*
X0369645Y0049731D01*
X0369720Y0049597D01*
X0369791Y0049461D01*
X0369858Y0049323D01*
X0369922Y0049183D01*
X0369982Y0049042D01*
X0370038Y0048900D01*
X0370091Y0048756D01*
X0370140Y0048610D01*
X0370185Y0048464D01*
X0370226Y0048316D01*
X0370263Y0048168D01*
X0370297Y0048018D01*
X0370327Y0047867D01*
X0370352Y0047716D01*
X0370374Y0047565D01*
X0370392Y0047412D01*
X0370406Y0047260D01*
X0370416Y0047107D01*
X0370422Y0046953D01*
X0370424Y0046800D01*
X0370422Y0046647D01*
X0370416Y0046493D01*
X0370406Y0046340D01*
X0370392Y0046188D01*
X0370374Y0046035D01*
X0370352Y0045884D01*
X0370327Y0045733D01*
X0370297Y0045582D01*
X0370263Y0045432D01*
X0370226Y0045284D01*
X0370185Y0045136D01*
X0370140Y0044990D01*
X0370091Y0044844D01*
X0370038Y0044700D01*
X0369982Y0044558D01*
X0369922Y0044417D01*
X0369858Y0044277D01*
X0369791Y0044139D01*
X0369720Y0044003D01*
X0369645Y0043869D01*
X0369568Y0043737D01*
X0369486Y0043607D01*
X0369402Y0043479D01*
X0369314Y0043353D01*
X0369223Y0043230D01*
X0369129Y0043109D01*
X0369031Y0042991D01*
X0368931Y0042875D01*
X0368827Y0042762D01*
X0368721Y0042651D01*
X0368612Y0042543D01*
X0368500Y0042438D01*
X0368386Y0042337D01*
X0368268Y0042238D01*
X0368149Y0042142D01*
X0368027Y0042049D01*
X0367902Y0041960D01*
X0367775Y0041873D01*
X0367646Y0041791D01*
X0367515Y0041711D01*
X0367382Y0041635D01*
X0367247Y0041562D01*
X0367110Y0041493D01*
X0366971Y0041428D01*
X0366831Y0041366D01*
X0366689Y0041308D01*
X0366546Y0041253D01*
X0366401Y0041202D01*
X0366255Y0041155D01*
X0366108Y0041112D01*
X0365960Y0041073D01*
X0365811Y0041037D01*
X0365661Y0041006D01*
X0365510Y0040978D01*
X0365359Y0040954D01*
X0365206Y0040934D01*
X0365054Y0040918D01*
X0364901Y0040906D01*
X0364748Y0040898D01*
X0364595Y0040894D01*
X0364441Y0040894D01*
X0364288Y0040898D01*
X0364135Y0040906D01*
X0363982Y0040918D01*
X0363830Y0040934D01*
X0363677Y0040954D01*
X0363526Y0040978D01*
X0363375Y0041006D01*
X0363225Y0041037D01*
X0363076Y0041073D01*
X0362928Y0041112D01*
X0362781Y0041155D01*
X0362635Y0041202D01*
X0362490Y0041253D01*
X0362347Y0041308D01*
X0362205Y0041366D01*
X0362065Y0041428D01*
X0361926Y0041493D01*
X0361789Y0041562D01*
X0361654Y0041635D01*
X0361521Y0041711D01*
X0361390Y0041791D01*
X0361261Y0041873D01*
X0361134Y0041960D01*
X0361009Y0042049D01*
X0360887Y0042142D01*
X0360768Y0042238D01*
X0360650Y0042337D01*
X0360536Y0042438D01*
X0360424Y0042543D01*
X0360315Y0042651D01*
X0360209Y0042762D01*
X0360105Y0042875D01*
X0360005Y0042991D01*
X0359907Y0043109D01*
X0359813Y0043230D01*
X0359722Y0043353D01*
X0359634Y0043479D01*
X0359550Y0043607D01*
X0359468Y0043737D01*
X0359391Y0043869D01*
X0359316Y0044003D01*
X0359245Y0044139D01*
X0359178Y0044277D01*
X0359114Y0044417D01*
X0359054Y0044558D01*
X0358998Y0044700D01*
X0358945Y0044844D01*
X0358896Y0044990D01*
X0358851Y0045136D01*
X0358810Y0045284D01*
X0358773Y0045432D01*
X0358739Y0045582D01*
X0358709Y0045733D01*
X0358684Y0045884D01*
X0358662Y0046035D01*
X0358644Y0046188D01*
X0358630Y0046340D01*
X0358620Y0046493D01*
X0358614Y0046647D01*
X0358612Y0046800D01*
D11*
X0364518Y0046800D03*
X0017018Y0046800D03*
D12*
X0150018Y0138050D03*
X0169018Y0138050D03*
D13*
X0189518Y0138050D03*
X0199518Y0138050D03*
X0228268Y0138050D03*
X0248268Y0138050D03*
X0129518Y0138050D03*
X0119518Y0138050D03*
X0049518Y0133050D03*
X0009518Y0133050D03*
X0009518Y0083050D03*
X0009518Y0071800D03*
X0049518Y0071800D03*
X0049518Y0083050D03*
X0050768Y0025550D03*
X0037018Y0011800D03*
X0027018Y0011800D03*
X0010768Y0025550D03*
X0278268Y0045550D03*
X0298268Y0045550D03*
X0308268Y0045550D03*
X0308268Y0056800D03*
X0348268Y0056800D03*
X0348268Y0045550D03*
X0359518Y0070550D03*
X0367018Y0075550D03*
X0359518Y0080550D03*
D14*
X0300768Y0069300D03*
D15*
X0300768Y0079300D03*
D16*
X0252018Y0049600D02*
X0252018Y0044000D01*
X0242018Y0044000D02*
X0242018Y0049600D01*
X0232018Y0049600D02*
X0232018Y0044000D01*
X0222018Y0044000D02*
X0222018Y0049600D01*
X0212018Y0049600D02*
X0212018Y0044000D01*
X0202018Y0044000D02*
X0202018Y0049600D01*
X0192018Y0049600D02*
X0192018Y0044000D01*
X0182018Y0044000D02*
X0182018Y0049600D01*
X0172018Y0049600D02*
X0172018Y0044000D01*
X0162018Y0044000D02*
X0162018Y0049600D01*
X0152018Y0049600D02*
X0152018Y0044000D01*
X0142018Y0044000D02*
X0142018Y0049600D01*
X0132018Y0049600D02*
X0132018Y0044000D01*
X0122018Y0044000D02*
X0122018Y0049600D01*
X0112018Y0049600D02*
X0112018Y0044000D01*
X0102018Y0044000D02*
X0102018Y0049600D01*
X0092018Y0049600D02*
X0092018Y0044000D01*
X0082018Y0044000D02*
X0082018Y0049600D01*
X0072018Y0049600D02*
X0072018Y0044000D01*
X0062018Y0044000D02*
X0062018Y0049600D01*
X0061418Y0025700D02*
X0067018Y0025700D01*
X0087018Y0025700D02*
X0092618Y0025700D01*
X0092618Y0007900D02*
X0087018Y0007900D01*
X0067018Y0007900D02*
X0061418Y0007900D01*
X0136418Y0007900D02*
X0142018Y0007900D01*
X0162018Y0007900D02*
X0167618Y0007900D01*
X0167618Y0025700D02*
X0162018Y0025700D01*
X0142018Y0025700D02*
X0136418Y0025700D01*
X0211418Y0025700D02*
X0217018Y0025700D01*
X0237018Y0025700D02*
X0242618Y0025700D01*
X0242618Y0007900D02*
X0237018Y0007900D01*
X0217018Y0007900D02*
X0211418Y0007900D01*
X0286418Y0007900D02*
X0292018Y0007900D01*
X0312018Y0007900D02*
X0317618Y0007900D01*
X0317618Y0025700D02*
X0312018Y0025700D01*
X0292018Y0025700D02*
X0286418Y0025700D01*
X0018558Y0093680D02*
X0012958Y0093680D01*
X0012958Y0122420D02*
X0018558Y0122420D01*
X0068268Y0137750D02*
X0068268Y0143350D01*
X0078268Y0143350D02*
X0078268Y0137750D01*
X0088268Y0137750D02*
X0088268Y0143350D01*
X0098268Y0143350D02*
X0098268Y0137750D01*
D17*
X0097018Y0124200D02*
X0097018Y0119400D01*
X0087018Y0119400D02*
X0087018Y0124200D01*
X0077018Y0124200D02*
X0077018Y0119400D01*
X0067018Y0119400D02*
X0067018Y0124200D01*
X0107018Y0124200D02*
X0107018Y0119400D01*
X0117018Y0119400D02*
X0117018Y0124200D01*
X0127018Y0124200D02*
X0127018Y0119400D01*
X0137018Y0119400D02*
X0137018Y0124200D01*
X0147018Y0124200D02*
X0147018Y0119400D01*
X0157018Y0119400D02*
X0157018Y0124200D01*
X0167018Y0124200D02*
X0167018Y0119400D01*
X0177018Y0119400D02*
X0177018Y0124200D01*
X0187018Y0124200D02*
X0187018Y0119400D01*
X0197018Y0119400D02*
X0197018Y0124200D01*
X0207018Y0124200D02*
X0207018Y0119400D01*
X0217018Y0119400D02*
X0217018Y0124200D01*
X0227018Y0124200D02*
X0227018Y0119400D01*
X0237018Y0119400D02*
X0237018Y0124200D01*
X0247018Y0124200D02*
X0247018Y0119400D01*
X0257018Y0119400D02*
X0257018Y0124200D01*
X0257018Y0064200D02*
X0257018Y0059400D01*
X0247018Y0059400D02*
X0247018Y0064200D01*
X0237018Y0064200D02*
X0237018Y0059400D01*
X0227018Y0059400D02*
X0227018Y0064200D01*
X0217018Y0064200D02*
X0217018Y0059400D01*
X0207018Y0059400D02*
X0207018Y0064200D01*
X0197018Y0064200D02*
X0197018Y0059400D01*
X0187018Y0059400D02*
X0187018Y0064200D01*
X0177018Y0064200D02*
X0177018Y0059400D01*
X0167018Y0059400D02*
X0167018Y0064200D01*
X0157018Y0064200D02*
X0157018Y0059400D01*
X0147018Y0059400D02*
X0147018Y0064200D01*
X0137018Y0064200D02*
X0137018Y0059400D01*
X0127018Y0059400D02*
X0127018Y0064200D01*
X0117018Y0064200D02*
X0117018Y0059400D01*
X0107018Y0059400D02*
X0107018Y0064200D01*
X0097018Y0064200D02*
X0097018Y0059400D01*
X0087018Y0059400D02*
X0087018Y0064200D01*
X0077018Y0064200D02*
X0077018Y0059400D01*
X0067018Y0059400D02*
X0067018Y0064200D01*
X0051918Y0061800D02*
X0047118Y0061800D01*
X0011918Y0061800D02*
X0007118Y0061800D01*
X0007118Y0143050D02*
X0011918Y0143050D01*
X0047118Y0143050D02*
X0051918Y0143050D01*
D18*
X0277018Y0136800D03*
X0287018Y0116800D03*
X0277018Y0086800D03*
D19*
X0314518Y0098050D03*
X0324518Y0098050D03*
X0334518Y0098050D03*
X0344518Y0098050D03*
X0354518Y0098050D03*
X0354518Y0108050D03*
X0344518Y0108050D03*
X0334518Y0108050D03*
X0324518Y0108050D03*
X0314518Y0108050D03*
D20*
X0035640Y0108050D03*
X0030916Y0104900D03*
X0035640Y0101751D03*
X0030916Y0111200D03*
X0035640Y0114349D03*
D21*
X0079518Y0105550D03*
X0167018Y0090550D03*
X0215768Y0070550D03*
X0232018Y0080550D03*
X0262018Y0093050D03*
X0282018Y0091800D03*
X0295768Y0100550D03*
X0224518Y0130550D03*
X0044518Y0053050D03*
X0249518Y0019300D03*
X0254518Y0018050D03*
X0249518Y0014300D03*
X0270768Y0041800D03*
M02*
