G75*
%MOIN*%
%OFA0B0*%
%FSLAX25Y25*%
%IPPOS*%
%LPD*%
%AMOC8*
5,1,8,0,0,1.08239X$1,22.5*
%
%ADD10C,0.00000*%
%ADD11C,0.00600*%
%ADD12C,0.04800*%
%ADD13OC8,0.04800*%
%ADD14OC8,0.06300*%
%ADD15C,0.06300*%
%ADD16C,0.05600*%
%ADD17C,0.04800*%
%ADD18C,0.05143*%
%ADD19R,0.04600X0.06300*%
%ADD20OC8,0.05200*%
%ADD21C,0.04356*%
%ADD22C,0.01600*%
%ADD23C,0.03200*%
%ADD24C,0.03562*%
D10*
X0002038Y0001200D02*
X0002038Y0148650D01*
X0376959Y0148650D01*
X0376959Y0001200D01*
X0002038Y0001200D01*
X0012018Y0030550D02*
X0012018Y0033050D01*
X0115768Y0033050D01*
X0115768Y0030550D01*
X0012018Y0030550D01*
X0011112Y0046800D02*
X0011114Y0046953D01*
X0011120Y0047107D01*
X0011130Y0047260D01*
X0011144Y0047412D01*
X0011162Y0047565D01*
X0011184Y0047716D01*
X0011209Y0047867D01*
X0011239Y0048018D01*
X0011273Y0048168D01*
X0011310Y0048316D01*
X0011351Y0048464D01*
X0011396Y0048610D01*
X0011445Y0048756D01*
X0011498Y0048900D01*
X0011554Y0049042D01*
X0011614Y0049183D01*
X0011678Y0049323D01*
X0011745Y0049461D01*
X0011816Y0049597D01*
X0011891Y0049731D01*
X0011968Y0049863D01*
X0012050Y0049993D01*
X0012134Y0050121D01*
X0012222Y0050247D01*
X0012313Y0050370D01*
X0012407Y0050491D01*
X0012505Y0050609D01*
X0012605Y0050725D01*
X0012709Y0050838D01*
X0012815Y0050949D01*
X0012924Y0051057D01*
X0013036Y0051162D01*
X0013150Y0051263D01*
X0013268Y0051362D01*
X0013387Y0051458D01*
X0013509Y0051551D01*
X0013634Y0051640D01*
X0013761Y0051727D01*
X0013890Y0051809D01*
X0014021Y0051889D01*
X0014154Y0051965D01*
X0014289Y0052038D01*
X0014426Y0052107D01*
X0014565Y0052172D01*
X0014705Y0052234D01*
X0014847Y0052292D01*
X0014990Y0052347D01*
X0015135Y0052398D01*
X0015281Y0052445D01*
X0015428Y0052488D01*
X0015576Y0052527D01*
X0015725Y0052563D01*
X0015875Y0052594D01*
X0016026Y0052622D01*
X0016177Y0052646D01*
X0016330Y0052666D01*
X0016482Y0052682D01*
X0016635Y0052694D01*
X0016788Y0052702D01*
X0016941Y0052706D01*
X0017095Y0052706D01*
X0017248Y0052702D01*
X0017401Y0052694D01*
X0017554Y0052682D01*
X0017706Y0052666D01*
X0017859Y0052646D01*
X0018010Y0052622D01*
X0018161Y0052594D01*
X0018311Y0052563D01*
X0018460Y0052527D01*
X0018608Y0052488D01*
X0018755Y0052445D01*
X0018901Y0052398D01*
X0019046Y0052347D01*
X0019189Y0052292D01*
X0019331Y0052234D01*
X0019471Y0052172D01*
X0019610Y0052107D01*
X0019747Y0052038D01*
X0019882Y0051965D01*
X0020015Y0051889D01*
X0020146Y0051809D01*
X0020275Y0051727D01*
X0020402Y0051640D01*
X0020527Y0051551D01*
X0020649Y0051458D01*
X0020768Y0051362D01*
X0020886Y0051263D01*
X0021000Y0051162D01*
X0021112Y0051057D01*
X0021221Y0050949D01*
X0021327Y0050838D01*
X0021431Y0050725D01*
X0021531Y0050609D01*
X0021629Y0050491D01*
X0021723Y0050370D01*
X0021814Y0050247D01*
X0021902Y0050121D01*
X0021986Y0049993D01*
X0022068Y0049863D01*
X0022145Y0049731D01*
X0022220Y0049597D01*
X0022291Y0049461D01*
X0022358Y0049323D01*
X0022422Y0049183D01*
X0022482Y0049042D01*
X0022538Y0048900D01*
X0022591Y0048756D01*
X0022640Y0048610D01*
X0022685Y0048464D01*
X0022726Y0048316D01*
X0022763Y0048168D01*
X0022797Y0048018D01*
X0022827Y0047867D01*
X0022852Y0047716D01*
X0022874Y0047565D01*
X0022892Y0047412D01*
X0022906Y0047260D01*
X0022916Y0047107D01*
X0022922Y0046953D01*
X0022924Y0046800D01*
X0022922Y0046647D01*
X0022916Y0046493D01*
X0022906Y0046340D01*
X0022892Y0046188D01*
X0022874Y0046035D01*
X0022852Y0045884D01*
X0022827Y0045733D01*
X0022797Y0045582D01*
X0022763Y0045432D01*
X0022726Y0045284D01*
X0022685Y0045136D01*
X0022640Y0044990D01*
X0022591Y0044844D01*
X0022538Y0044700D01*
X0022482Y0044558D01*
X0022422Y0044417D01*
X0022358Y0044277D01*
X0022291Y0044139D01*
X0022220Y0044003D01*
X0022145Y0043869D01*
X0022068Y0043737D01*
X0021986Y0043607D01*
X0021902Y0043479D01*
X0021814Y0043353D01*
X0021723Y0043230D01*
X0021629Y0043109D01*
X0021531Y0042991D01*
X0021431Y0042875D01*
X0021327Y0042762D01*
X0021221Y0042651D01*
X0021112Y0042543D01*
X0021000Y0042438D01*
X0020886Y0042337D01*
X0020768Y0042238D01*
X0020649Y0042142D01*
X0020527Y0042049D01*
X0020402Y0041960D01*
X0020275Y0041873D01*
X0020146Y0041791D01*
X0020015Y0041711D01*
X0019882Y0041635D01*
X0019747Y0041562D01*
X0019610Y0041493D01*
X0019471Y0041428D01*
X0019331Y0041366D01*
X0019189Y0041308D01*
X0019046Y0041253D01*
X0018901Y0041202D01*
X0018755Y0041155D01*
X0018608Y0041112D01*
X0018460Y0041073D01*
X0018311Y0041037D01*
X0018161Y0041006D01*
X0018010Y0040978D01*
X0017859Y0040954D01*
X0017706Y0040934D01*
X0017554Y0040918D01*
X0017401Y0040906D01*
X0017248Y0040898D01*
X0017095Y0040894D01*
X0016941Y0040894D01*
X0016788Y0040898D01*
X0016635Y0040906D01*
X0016482Y0040918D01*
X0016330Y0040934D01*
X0016177Y0040954D01*
X0016026Y0040978D01*
X0015875Y0041006D01*
X0015725Y0041037D01*
X0015576Y0041073D01*
X0015428Y0041112D01*
X0015281Y0041155D01*
X0015135Y0041202D01*
X0014990Y0041253D01*
X0014847Y0041308D01*
X0014705Y0041366D01*
X0014565Y0041428D01*
X0014426Y0041493D01*
X0014289Y0041562D01*
X0014154Y0041635D01*
X0014021Y0041711D01*
X0013890Y0041791D01*
X0013761Y0041873D01*
X0013634Y0041960D01*
X0013509Y0042049D01*
X0013387Y0042142D01*
X0013268Y0042238D01*
X0013150Y0042337D01*
X0013036Y0042438D01*
X0012924Y0042543D01*
X0012815Y0042651D01*
X0012709Y0042762D01*
X0012605Y0042875D01*
X0012505Y0042991D01*
X0012407Y0043109D01*
X0012313Y0043230D01*
X0012222Y0043353D01*
X0012134Y0043479D01*
X0012050Y0043607D01*
X0011968Y0043737D01*
X0011891Y0043869D01*
X0011816Y0044003D01*
X0011745Y0044139D01*
X0011678Y0044277D01*
X0011614Y0044417D01*
X0011554Y0044558D01*
X0011498Y0044700D01*
X0011445Y0044844D01*
X0011396Y0044990D01*
X0011351Y0045136D01*
X0011310Y0045284D01*
X0011273Y0045432D01*
X0011239Y0045582D01*
X0011209Y0045733D01*
X0011184Y0045884D01*
X0011162Y0046035D01*
X0011144Y0046188D01*
X0011130Y0046340D01*
X0011120Y0046493D01*
X0011114Y0046647D01*
X0011112Y0046800D01*
X0134518Y0033050D02*
X0134518Y0030550D01*
X0244518Y0030550D01*
X0244518Y0033050D01*
X0134518Y0033050D01*
X0263268Y0033050D02*
X0263268Y0030550D01*
X0367018Y0030550D01*
X0367018Y0033050D01*
X0263268Y0033050D01*
X0358612Y0046800D02*
X0358614Y0046953D01*
X0358620Y0047107D01*
X0358630Y0047260D01*
X0358644Y0047412D01*
X0358662Y0047565D01*
X0358684Y0047716D01*
X0358709Y0047867D01*
X0358739Y0048018D01*
X0358773Y0048168D01*
X0358810Y0048316D01*
X0358851Y0048464D01*
X0358896Y0048610D01*
X0358945Y0048756D01*
X0358998Y0048900D01*
X0359054Y0049042D01*
X0359114Y0049183D01*
X0359178Y0049323D01*
X0359245Y0049461D01*
X0359316Y0049597D01*
X0359391Y0049731D01*
X0359468Y0049863D01*
X0359550Y0049993D01*
X0359634Y0050121D01*
X0359722Y0050247D01*
X0359813Y0050370D01*
X0359907Y0050491D01*
X0360005Y0050609D01*
X0360105Y0050725D01*
X0360209Y0050838D01*
X0360315Y0050949D01*
X0360424Y0051057D01*
X0360536Y0051162D01*
X0360650Y0051263D01*
X0360768Y0051362D01*
X0360887Y0051458D01*
X0361009Y0051551D01*
X0361134Y0051640D01*
X0361261Y0051727D01*
X0361390Y0051809D01*
X0361521Y0051889D01*
X0361654Y0051965D01*
X0361789Y0052038D01*
X0361926Y0052107D01*
X0362065Y0052172D01*
X0362205Y0052234D01*
X0362347Y0052292D01*
X0362490Y0052347D01*
X0362635Y0052398D01*
X0362781Y0052445D01*
X0362928Y0052488D01*
X0363076Y0052527D01*
X0363225Y0052563D01*
X0363375Y0052594D01*
X0363526Y0052622D01*
X0363677Y0052646D01*
X0363830Y0052666D01*
X0363982Y0052682D01*
X0364135Y0052694D01*
X0364288Y0052702D01*
X0364441Y0052706D01*
X0364595Y0052706D01*
X0364748Y0052702D01*
X0364901Y0052694D01*
X0365054Y0052682D01*
X0365206Y0052666D01*
X0365359Y0052646D01*
X0365510Y0052622D01*
X0365661Y0052594D01*
X0365811Y0052563D01*
X0365960Y0052527D01*
X0366108Y0052488D01*
X0366255Y0052445D01*
X0366401Y0052398D01*
X0366546Y0052347D01*
X0366689Y0052292D01*
X0366831Y0052234D01*
X0366971Y0052172D01*
X0367110Y0052107D01*
X0367247Y0052038D01*
X0367382Y0051965D01*
X0367515Y0051889D01*
X0367646Y0051809D01*
X0367775Y0051727D01*
X0367902Y0051640D01*
X0368027Y0051551D01*
X0368149Y0051458D01*
X0368268Y0051362D01*
X0368386Y0051263D01*
X0368500Y0051162D01*
X0368612Y0051057D01*
X0368721Y0050949D01*
X0368827Y0050838D01*
X0368931Y0050725D01*
X0369031Y0050609D01*
X0369129Y0050491D01*
X0369223Y0050370D01*
X0369314Y0050247D01*
X0369402Y0050121D01*
X0369486Y0049993D01*
X0369568Y0049863D01*
X0369645Y0049731D01*
X0369720Y0049597D01*
X0369791Y0049461D01*
X0369858Y0049323D01*
X0369922Y0049183D01*
X0369982Y0049042D01*
X0370038Y0048900D01*
X0370091Y0048756D01*
X0370140Y0048610D01*
X0370185Y0048464D01*
X0370226Y0048316D01*
X0370263Y0048168D01*
X0370297Y0048018D01*
X0370327Y0047867D01*
X0370352Y0047716D01*
X0370374Y0047565D01*
X0370392Y0047412D01*
X0370406Y0047260D01*
X0370416Y0047107D01*
X0370422Y0046953D01*
X0370424Y0046800D01*
X0370422Y0046647D01*
X0370416Y0046493D01*
X0370406Y0046340D01*
X0370392Y0046188D01*
X0370374Y0046035D01*
X0370352Y0045884D01*
X0370327Y0045733D01*
X0370297Y0045582D01*
X0370263Y0045432D01*
X0370226Y0045284D01*
X0370185Y0045136D01*
X0370140Y0044990D01*
X0370091Y0044844D01*
X0370038Y0044700D01*
X0369982Y0044558D01*
X0369922Y0044417D01*
X0369858Y0044277D01*
X0369791Y0044139D01*
X0369720Y0044003D01*
X0369645Y0043869D01*
X0369568Y0043737D01*
X0369486Y0043607D01*
X0369402Y0043479D01*
X0369314Y0043353D01*
X0369223Y0043230D01*
X0369129Y0043109D01*
X0369031Y0042991D01*
X0368931Y0042875D01*
X0368827Y0042762D01*
X0368721Y0042651D01*
X0368612Y0042543D01*
X0368500Y0042438D01*
X0368386Y0042337D01*
X0368268Y0042238D01*
X0368149Y0042142D01*
X0368027Y0042049D01*
X0367902Y0041960D01*
X0367775Y0041873D01*
X0367646Y0041791D01*
X0367515Y0041711D01*
X0367382Y0041635D01*
X0367247Y0041562D01*
X0367110Y0041493D01*
X0366971Y0041428D01*
X0366831Y0041366D01*
X0366689Y0041308D01*
X0366546Y0041253D01*
X0366401Y0041202D01*
X0366255Y0041155D01*
X0366108Y0041112D01*
X0365960Y0041073D01*
X0365811Y0041037D01*
X0365661Y0041006D01*
X0365510Y0040978D01*
X0365359Y0040954D01*
X0365206Y0040934D01*
X0365054Y0040918D01*
X0364901Y0040906D01*
X0364748Y0040898D01*
X0364595Y0040894D01*
X0364441Y0040894D01*
X0364288Y0040898D01*
X0364135Y0040906D01*
X0363982Y0040918D01*
X0363830Y0040934D01*
X0363677Y0040954D01*
X0363526Y0040978D01*
X0363375Y0041006D01*
X0363225Y0041037D01*
X0363076Y0041073D01*
X0362928Y0041112D01*
X0362781Y0041155D01*
X0362635Y0041202D01*
X0362490Y0041253D01*
X0362347Y0041308D01*
X0362205Y0041366D01*
X0362065Y0041428D01*
X0361926Y0041493D01*
X0361789Y0041562D01*
X0361654Y0041635D01*
X0361521Y0041711D01*
X0361390Y0041791D01*
X0361261Y0041873D01*
X0361134Y0041960D01*
X0361009Y0042049D01*
X0360887Y0042142D01*
X0360768Y0042238D01*
X0360650Y0042337D01*
X0360536Y0042438D01*
X0360424Y0042543D01*
X0360315Y0042651D01*
X0360209Y0042762D01*
X0360105Y0042875D01*
X0360005Y0042991D01*
X0359907Y0043109D01*
X0359813Y0043230D01*
X0359722Y0043353D01*
X0359634Y0043479D01*
X0359550Y0043607D01*
X0359468Y0043737D01*
X0359391Y0043869D01*
X0359316Y0044003D01*
X0359245Y0044139D01*
X0359178Y0044277D01*
X0359114Y0044417D01*
X0359054Y0044558D01*
X0358998Y0044700D01*
X0358945Y0044844D01*
X0358896Y0044990D01*
X0358851Y0045136D01*
X0358810Y0045284D01*
X0358773Y0045432D01*
X0358739Y0045582D01*
X0358709Y0045733D01*
X0358684Y0045884D01*
X0358662Y0046035D01*
X0358644Y0046188D01*
X0358630Y0046340D01*
X0358620Y0046493D01*
X0358614Y0046647D01*
X0358612Y0046800D01*
D11*
X0350833Y0125850D02*
X0348698Y0127985D01*
X0348698Y0132255D01*
X0346523Y0130120D02*
X0344387Y0132255D01*
X0344387Y0125850D01*
X0342252Y0125850D02*
X0346523Y0125850D01*
X0350833Y0125850D02*
X0352968Y0127985D01*
X0352968Y0132255D01*
X0353465Y0136350D02*
X0351329Y0136350D01*
X0350262Y0137418D01*
X0350262Y0139553D01*
X0352397Y0139553D01*
X0350262Y0141688D02*
X0351329Y0142755D01*
X0353465Y0142755D01*
X0354532Y0141688D01*
X0354532Y0137418D01*
X0353465Y0136350D01*
X0348087Y0136350D02*
X0343816Y0136350D01*
X0341641Y0137418D02*
X0340574Y0136350D01*
X0338438Y0136350D01*
X0337371Y0137418D01*
X0335196Y0136350D02*
X0331993Y0136350D01*
X0330925Y0137418D01*
X0330925Y0141688D01*
X0331993Y0142755D01*
X0335196Y0142755D01*
X0335196Y0136350D01*
X0328750Y0136350D02*
X0324480Y0140620D01*
X0324480Y0141688D01*
X0325547Y0142755D01*
X0327683Y0142755D01*
X0328750Y0141688D01*
X0322305Y0142755D02*
X0322305Y0137418D01*
X0321237Y0136350D01*
X0319102Y0136350D01*
X0318034Y0137418D01*
X0318034Y0142755D01*
X0315859Y0141688D02*
X0314792Y0142755D01*
X0312656Y0142755D01*
X0311589Y0141688D01*
X0312656Y0139553D02*
X0311589Y0138485D01*
X0311589Y0137418D01*
X0312656Y0136350D01*
X0314792Y0136350D01*
X0315859Y0137418D01*
X0314792Y0139553D02*
X0312656Y0139553D01*
X0314792Y0139553D02*
X0315859Y0140620D01*
X0315859Y0141688D01*
X0309414Y0142755D02*
X0306211Y0142755D01*
X0305143Y0141688D01*
X0305143Y0140620D01*
X0306211Y0139553D01*
X0309414Y0139553D01*
X0306211Y0139553D02*
X0305143Y0138485D01*
X0305143Y0137418D01*
X0306211Y0136350D01*
X0309414Y0136350D01*
X0309414Y0142755D01*
X0324480Y0136350D02*
X0328750Y0136350D01*
X0333652Y0132255D02*
X0332584Y0131188D01*
X0332584Y0130120D01*
X0336854Y0125850D01*
X0332584Y0125850D01*
X0339010Y0125850D02*
X0340077Y0125850D01*
X0340077Y0126918D01*
X0339010Y0126918D01*
X0339010Y0125850D01*
X0336854Y0131188D02*
X0335787Y0132255D01*
X0333652Y0132255D01*
X0348087Y0136350D02*
X0348087Y0142755D01*
X0341641Y0141688D02*
X0341641Y0137418D01*
X0341641Y0141688D02*
X0340574Y0142755D01*
X0338438Y0142755D01*
X0337371Y0141688D01*
X0141681Y0101505D02*
X0137410Y0101505D01*
X0139546Y0101505D02*
X0139546Y0095100D01*
X0135235Y0095100D02*
X0135235Y0096168D01*
X0134168Y0096168D01*
X0134168Y0095100D01*
X0135235Y0095100D01*
X0132012Y0095100D02*
X0132012Y0101505D01*
X0127742Y0101505D02*
X0127742Y0095100D01*
X0125567Y0096168D02*
X0124499Y0097235D01*
X0121297Y0097235D01*
X0121297Y0098303D02*
X0121297Y0095100D01*
X0124499Y0095100D01*
X0125567Y0096168D01*
X0127742Y0098303D02*
X0132012Y0098303D01*
X0124499Y0099370D02*
X0122364Y0099370D01*
X0121297Y0098303D01*
X0119121Y0099370D02*
X0119121Y0095100D01*
X0113750Y0095100D02*
X0110547Y0095100D01*
X0109480Y0096168D01*
X0109480Y0098303D01*
X0110547Y0099370D01*
X0113750Y0099370D01*
X0115919Y0099370D02*
X0116986Y0099370D01*
X0119121Y0097235D01*
X0113750Y0095100D02*
X0113750Y0101505D01*
X0106237Y0099370D02*
X0104102Y0099370D01*
X0103034Y0098303D01*
X0103034Y0095100D01*
X0106237Y0095100D01*
X0107305Y0096168D01*
X0106237Y0097235D01*
X0103034Y0097235D01*
X0100859Y0096168D02*
X0099792Y0095100D01*
X0096589Y0095100D01*
X0096589Y0099370D01*
X0094414Y0099370D02*
X0093346Y0099370D01*
X0092279Y0098303D01*
X0091211Y0099370D01*
X0090143Y0098303D01*
X0090143Y0095100D01*
X0092279Y0095100D02*
X0092279Y0098303D01*
X0094414Y0099370D02*
X0094414Y0095100D01*
X0100859Y0096168D02*
X0100859Y0099370D01*
X0031724Y0089040D02*
X0025318Y0089040D01*
X0025318Y0091175D02*
X0025318Y0086904D01*
X0025318Y0084729D02*
X0025318Y0080459D01*
X0025318Y0082594D02*
X0031724Y0082594D01*
X0029588Y0080459D01*
X0030656Y0078304D02*
X0029588Y0077236D01*
X0030656Y0078304D02*
X0032791Y0078304D01*
X0029588Y0086904D02*
X0031724Y0089040D01*
X0029588Y0068629D02*
X0031724Y0066494D01*
X0029588Y0068629D02*
X0027453Y0068629D01*
X0025318Y0066494D01*
X0025318Y0064319D02*
X0025318Y0061116D01*
X0026386Y0060048D01*
X0028521Y0060048D01*
X0029588Y0061116D01*
X0029588Y0064319D01*
X0031724Y0057886D02*
X0029588Y0055751D01*
X0027453Y0055751D01*
X0025318Y0057886D01*
D12*
X0150018Y0138050D03*
X0169018Y0138050D03*
D13*
X0189518Y0138050D03*
X0199518Y0138050D03*
X0228268Y0138050D03*
X0248268Y0138050D03*
X0129518Y0138050D03*
X0119518Y0138050D03*
X0049518Y0133050D03*
X0009518Y0133050D03*
X0009518Y0083050D03*
X0009518Y0071800D03*
X0049518Y0071800D03*
X0049518Y0083050D03*
X0050768Y0025550D03*
X0037018Y0011800D03*
X0027018Y0011800D03*
X0010768Y0025550D03*
X0278268Y0045550D03*
X0298268Y0045550D03*
X0308268Y0045550D03*
X0308268Y0056800D03*
X0348268Y0056800D03*
X0348268Y0045550D03*
X0359518Y0070550D03*
X0367018Y0075550D03*
X0359518Y0080550D03*
D14*
X0300768Y0069300D03*
D15*
X0300768Y0079300D03*
D16*
X0252018Y0049600D02*
X0252018Y0044000D01*
X0242018Y0044000D02*
X0242018Y0049600D01*
X0232018Y0049600D02*
X0232018Y0044000D01*
X0222018Y0044000D02*
X0222018Y0049600D01*
X0212018Y0049600D02*
X0212018Y0044000D01*
X0202018Y0044000D02*
X0202018Y0049600D01*
X0192018Y0049600D02*
X0192018Y0044000D01*
X0182018Y0044000D02*
X0182018Y0049600D01*
X0172018Y0049600D02*
X0172018Y0044000D01*
X0162018Y0044000D02*
X0162018Y0049600D01*
X0152018Y0049600D02*
X0152018Y0044000D01*
X0142018Y0044000D02*
X0142018Y0049600D01*
X0132018Y0049600D02*
X0132018Y0044000D01*
X0122018Y0044000D02*
X0122018Y0049600D01*
X0112018Y0049600D02*
X0112018Y0044000D01*
X0102018Y0044000D02*
X0102018Y0049600D01*
X0092018Y0049600D02*
X0092018Y0044000D01*
X0082018Y0044000D02*
X0082018Y0049600D01*
X0072018Y0049600D02*
X0072018Y0044000D01*
X0062018Y0044000D02*
X0062018Y0049600D01*
X0061418Y0025700D02*
X0067018Y0025700D01*
X0087018Y0025700D02*
X0092618Y0025700D01*
X0092618Y0007900D02*
X0087018Y0007900D01*
X0067018Y0007900D02*
X0061418Y0007900D01*
X0136418Y0007900D02*
X0142018Y0007900D01*
X0162018Y0007900D02*
X0167618Y0007900D01*
X0167618Y0025700D02*
X0162018Y0025700D01*
X0142018Y0025700D02*
X0136418Y0025700D01*
X0211418Y0025700D02*
X0217018Y0025700D01*
X0237018Y0025700D02*
X0242618Y0025700D01*
X0242618Y0007900D02*
X0237018Y0007900D01*
X0217018Y0007900D02*
X0211418Y0007900D01*
X0286418Y0007900D02*
X0292018Y0007900D01*
X0312018Y0007900D02*
X0317618Y0007900D01*
X0317618Y0025700D02*
X0312018Y0025700D01*
X0292018Y0025700D02*
X0286418Y0025700D01*
X0018558Y0093680D02*
X0012958Y0093680D01*
X0012958Y0122420D02*
X0018558Y0122420D01*
X0068268Y0137750D02*
X0068268Y0143350D01*
X0078268Y0143350D02*
X0078268Y0137750D01*
X0088268Y0137750D02*
X0088268Y0143350D01*
X0098268Y0143350D02*
X0098268Y0137750D01*
D17*
X0097018Y0124200D02*
X0097018Y0119400D01*
X0087018Y0119400D02*
X0087018Y0124200D01*
X0077018Y0124200D02*
X0077018Y0119400D01*
X0067018Y0119400D02*
X0067018Y0124200D01*
X0107018Y0124200D02*
X0107018Y0119400D01*
X0117018Y0119400D02*
X0117018Y0124200D01*
X0127018Y0124200D02*
X0127018Y0119400D01*
X0137018Y0119400D02*
X0137018Y0124200D01*
X0147018Y0124200D02*
X0147018Y0119400D01*
X0157018Y0119400D02*
X0157018Y0124200D01*
X0167018Y0124200D02*
X0167018Y0119400D01*
X0177018Y0119400D02*
X0177018Y0124200D01*
X0187018Y0124200D02*
X0187018Y0119400D01*
X0197018Y0119400D02*
X0197018Y0124200D01*
X0207018Y0124200D02*
X0207018Y0119400D01*
X0217018Y0119400D02*
X0217018Y0124200D01*
X0227018Y0124200D02*
X0227018Y0119400D01*
X0237018Y0119400D02*
X0237018Y0124200D01*
X0247018Y0124200D02*
X0247018Y0119400D01*
X0257018Y0119400D02*
X0257018Y0124200D01*
X0257018Y0064200D02*
X0257018Y0059400D01*
X0247018Y0059400D02*
X0247018Y0064200D01*
X0237018Y0064200D02*
X0237018Y0059400D01*
X0227018Y0059400D02*
X0227018Y0064200D01*
X0217018Y0064200D02*
X0217018Y0059400D01*
X0207018Y0059400D02*
X0207018Y0064200D01*
X0197018Y0064200D02*
X0197018Y0059400D01*
X0187018Y0059400D02*
X0187018Y0064200D01*
X0177018Y0064200D02*
X0177018Y0059400D01*
X0167018Y0059400D02*
X0167018Y0064200D01*
X0157018Y0064200D02*
X0157018Y0059400D01*
X0147018Y0059400D02*
X0147018Y0064200D01*
X0137018Y0064200D02*
X0137018Y0059400D01*
X0127018Y0059400D02*
X0127018Y0064200D01*
X0117018Y0064200D02*
X0117018Y0059400D01*
X0107018Y0059400D02*
X0107018Y0064200D01*
X0097018Y0064200D02*
X0097018Y0059400D01*
X0087018Y0059400D02*
X0087018Y0064200D01*
X0077018Y0064200D02*
X0077018Y0059400D01*
X0067018Y0059400D02*
X0067018Y0064200D01*
X0051918Y0061800D02*
X0047118Y0061800D01*
X0011918Y0061800D02*
X0007118Y0061800D01*
X0007118Y0143050D02*
X0011918Y0143050D01*
X0047118Y0143050D02*
X0051918Y0143050D01*
D18*
X0277018Y0136800D03*
X0287018Y0116800D03*
X0277018Y0086800D03*
D19*
X0321018Y0076800D03*
X0327018Y0076800D03*
X0333018Y0076800D03*
X0333018Y0064300D03*
X0327018Y0064300D03*
X0321018Y0064300D03*
D20*
X0324518Y0098050D03*
X0314518Y0098050D03*
X0334518Y0098050D03*
X0344518Y0098050D03*
X0354518Y0098050D03*
X0354518Y0108050D03*
X0344518Y0108050D03*
X0334518Y0108050D03*
X0324518Y0108050D03*
X0314518Y0108050D03*
D21*
X0035640Y0108050D03*
X0030916Y0104900D03*
X0035640Y0101751D03*
X0030916Y0111200D03*
X0035640Y0114349D03*
D22*
X0039218Y0114393D02*
X0041068Y0114393D01*
X0041068Y0115991D02*
X0038833Y0115991D01*
X0038673Y0116376D02*
X0037667Y0117382D01*
X0036352Y0117927D01*
X0034928Y0117927D01*
X0033613Y0117382D01*
X0032607Y0116376D01*
X0032062Y0115061D01*
X0032062Y0114597D01*
X0031627Y0114778D01*
X0030204Y0114778D01*
X0028889Y0114233D01*
X0028056Y0113400D01*
X0016756Y0113400D01*
X0015468Y0112111D01*
X0006068Y0102711D01*
X0006068Y0088389D01*
X0007318Y0087139D01*
X0007318Y0086224D01*
X0005718Y0084624D01*
X0005718Y0081476D01*
X0007318Y0079876D01*
X0007318Y0074974D01*
X0005718Y0073374D01*
X0005718Y0070226D01*
X0007318Y0068626D01*
X0007318Y0065600D01*
X0006362Y0065600D01*
X0004966Y0065021D01*
X0004838Y0064894D01*
X0004838Y0139956D01*
X0004966Y0139829D01*
X0006362Y0139250D01*
X0007318Y0139250D01*
X0007318Y0136224D01*
X0005718Y0134624D01*
X0005718Y0131476D01*
X0007944Y0129250D01*
X0011092Y0129250D01*
X0012692Y0130850D01*
X0036107Y0130850D01*
X0041068Y0125889D01*
X0041068Y0112711D01*
X0038607Y0110250D01*
X0038500Y0110250D01*
X0037667Y0111083D01*
X0037386Y0111200D01*
X0037667Y0111316D01*
X0038673Y0112322D01*
X0039218Y0113637D01*
X0039218Y0115061D01*
X0038673Y0116376D01*
X0037166Y0117590D02*
X0041068Y0117590D01*
X0041068Y0119188D02*
X0021549Y0119188D01*
X0021425Y0119064D02*
X0021914Y0119554D01*
X0022321Y0120114D01*
X0022636Y0120731D01*
X0022850Y0121390D01*
X0022958Y0122074D01*
X0022958Y0122236D01*
X0015943Y0122236D01*
X0015943Y0122604D01*
X0022958Y0122604D01*
X0022958Y0122766D01*
X0022850Y0123450D01*
X0022636Y0124109D01*
X0022321Y0124726D01*
X0021914Y0125286D01*
X0021425Y0125776D01*
X0020864Y0126183D01*
X0020247Y0126498D01*
X0019589Y0126712D01*
X0018905Y0126820D01*
X0015943Y0126820D01*
X0015943Y0122604D01*
X0015574Y0122604D01*
X0015574Y0122236D01*
X0008558Y0122236D01*
X0008558Y0122074D01*
X0008667Y0121390D01*
X0008881Y0120731D01*
X0009195Y0120114D01*
X0009602Y0119554D01*
X0010092Y0119064D01*
X0010652Y0118657D01*
X0011269Y0118342D01*
X0011928Y0118128D01*
X0012612Y0118020D01*
X0015574Y0118020D01*
X0015574Y0122236D01*
X0015943Y0122236D01*
X0015943Y0118020D01*
X0018905Y0118020D01*
X0019589Y0118128D01*
X0020247Y0118342D01*
X0020864Y0118657D01*
X0021425Y0119064D01*
X0022654Y0120787D02*
X0041068Y0120787D01*
X0041068Y0122385D02*
X0015943Y0122385D01*
X0015574Y0122385D02*
X0004838Y0122385D01*
X0004838Y0120787D02*
X0008862Y0120787D01*
X0008558Y0122604D02*
X0015574Y0122604D01*
X0015574Y0126820D01*
X0012612Y0126820D01*
X0011928Y0126712D01*
X0011269Y0126498D01*
X0010652Y0126183D01*
X0010092Y0125776D01*
X0009602Y0125286D01*
X0009195Y0124726D01*
X0008881Y0124109D01*
X0008667Y0123450D01*
X0008558Y0122766D01*
X0008558Y0122604D01*
X0008840Y0123984D02*
X0004838Y0123984D01*
X0004838Y0125582D02*
X0009898Y0125582D01*
X0004838Y0127181D02*
X0039776Y0127181D01*
X0041068Y0125582D02*
X0021618Y0125582D01*
X0022677Y0123984D02*
X0041068Y0123984D01*
X0043268Y0126800D02*
X0043268Y0111800D01*
X0039518Y0108050D01*
X0035640Y0108050D01*
X0040980Y0106400D02*
X0066518Y0106400D01*
X0066518Y0104802D02*
X0037874Y0104802D01*
X0038048Y0104685D02*
X0037596Y0104987D01*
X0037667Y0105017D01*
X0038500Y0105850D01*
X0040429Y0105850D01*
X0041718Y0107139D01*
X0045468Y0110889D01*
X0045468Y0127711D01*
X0044179Y0129000D01*
X0039218Y0133961D01*
X0037929Y0135250D01*
X0012692Y0135250D01*
X0011718Y0136224D01*
X0011718Y0139250D01*
X0012674Y0139250D01*
X0014071Y0139829D01*
X0015140Y0140897D01*
X0015718Y0142294D01*
X0015718Y0143806D01*
X0015140Y0145203D01*
X0014492Y0145850D01*
X0044262Y0145850D01*
X0044011Y0145600D01*
X0043573Y0144945D01*
X0043272Y0144217D01*
X0043118Y0143444D01*
X0043118Y0143050D01*
X0049518Y0143050D01*
X0049518Y0143050D01*
X0043118Y0143050D01*
X0043118Y0142656D01*
X0043272Y0141883D01*
X0043573Y0141155D01*
X0044011Y0140500D01*
X0044568Y0139943D01*
X0045223Y0139505D01*
X0045951Y0139204D01*
X0046724Y0139050D01*
X0049518Y0139050D01*
X0049518Y0143050D01*
X0049518Y0143050D01*
X0049518Y0139050D01*
X0052312Y0139050D01*
X0053085Y0139204D01*
X0053813Y0139505D01*
X0054468Y0139943D01*
X0055025Y0140500D01*
X0055463Y0141155D01*
X0055764Y0141883D01*
X0055918Y0142656D01*
X0055918Y0143050D01*
X0055918Y0143444D01*
X0055764Y0144217D01*
X0055463Y0144945D01*
X0055025Y0145600D01*
X0054775Y0145850D01*
X0064829Y0145850D01*
X0064708Y0145729D01*
X0064068Y0144185D01*
X0064068Y0136915D01*
X0064708Y0135371D01*
X0065889Y0134189D01*
X0067433Y0133550D01*
X0069104Y0133550D01*
X0069495Y0133712D01*
X0074818Y0128389D01*
X0075516Y0127691D01*
X0074866Y0127421D01*
X0073797Y0126353D01*
X0073218Y0124956D01*
X0073218Y0118644D01*
X0073797Y0117247D01*
X0074866Y0116179D01*
X0076262Y0115600D01*
X0077774Y0115600D01*
X0079171Y0116179D01*
X0080240Y0117247D01*
X0080818Y0118644D01*
X0080818Y0124956D01*
X0080240Y0126353D01*
X0079492Y0127100D01*
X0084544Y0127100D01*
X0083797Y0126353D01*
X0083218Y0124956D01*
X0083218Y0118644D01*
X0083797Y0117247D01*
X0084866Y0116179D01*
X0086262Y0115600D01*
X0087774Y0115600D01*
X0089171Y0116179D01*
X0090240Y0117247D01*
X0090818Y0118644D01*
X0090818Y0124956D01*
X0090240Y0126353D01*
X0089492Y0127100D01*
X0094544Y0127100D01*
X0093797Y0126353D01*
X0093218Y0124956D01*
X0093218Y0118644D01*
X0093797Y0117247D01*
X0094866Y0116179D01*
X0096262Y0115600D01*
X0097774Y0115600D01*
X0099171Y0116179D01*
X0100240Y0117247D01*
X0100818Y0118644D01*
X0100818Y0124956D01*
X0100240Y0126353D01*
X0099492Y0127100D01*
X0104544Y0127100D01*
X0103797Y0126353D01*
X0103218Y0124956D01*
X0103218Y0118644D01*
X0103797Y0117247D01*
X0104866Y0116179D01*
X0106262Y0115600D01*
X0107774Y0115600D01*
X0109171Y0116179D01*
X0110240Y0117247D01*
X0110818Y0118644D01*
X0110818Y0124956D01*
X0110240Y0126353D01*
X0109492Y0127100D01*
X0112357Y0127100D01*
X0113594Y0125863D01*
X0113218Y0124956D01*
X0113218Y0118644D01*
X0113797Y0117247D01*
X0114866Y0116179D01*
X0116262Y0115600D01*
X0117774Y0115600D01*
X0119171Y0116179D01*
X0120240Y0117247D01*
X0120818Y0118644D01*
X0120818Y0124956D01*
X0120240Y0126353D01*
X0119171Y0127421D01*
X0117774Y0128000D01*
X0117679Y0128000D01*
X0116079Y0129600D01*
X0121107Y0129600D01*
X0124075Y0126631D01*
X0123797Y0126353D01*
X0123218Y0124956D01*
X0123218Y0118644D01*
X0123797Y0117247D01*
X0124866Y0116179D01*
X0126262Y0115600D01*
X0127774Y0115600D01*
X0129171Y0116179D01*
X0130240Y0117247D01*
X0130818Y0118644D01*
X0130818Y0124956D01*
X0130240Y0126353D01*
X0129218Y0127374D01*
X0129218Y0127711D01*
X0127929Y0129000D01*
X0122929Y0134000D01*
X0100190Y0134000D01*
X0100647Y0134189D01*
X0101829Y0135371D01*
X0102468Y0136915D01*
X0102468Y0144185D01*
X0101829Y0145729D01*
X0101707Y0145850D01*
X0374159Y0145850D01*
X0374159Y0004000D01*
X0319177Y0004000D01*
X0319997Y0004339D01*
X0321179Y0005521D01*
X0321818Y0007065D01*
X0321818Y0008735D01*
X0321179Y0010279D01*
X0319997Y0011461D01*
X0318454Y0012100D01*
X0311183Y0012100D01*
X0309639Y0011461D01*
X0308458Y0010279D01*
X0308383Y0010100D01*
X0295653Y0010100D01*
X0295579Y0010279D01*
X0294397Y0011461D01*
X0292854Y0012100D01*
X0285583Y0012100D01*
X0284039Y0011461D01*
X0282858Y0010279D01*
X0282783Y0010100D01*
X0266829Y0010100D01*
X0260468Y0016461D01*
X0260468Y0021461D01*
X0259218Y0022711D01*
X0258254Y0023675D01*
X0259179Y0024600D01*
X0260468Y0025889D01*
X0260468Y0032139D01*
X0260468Y0029993D01*
X0260894Y0028964D01*
X0261682Y0028176D01*
X0262711Y0027750D01*
X0282524Y0027750D01*
X0282340Y0027389D01*
X0282126Y0026730D01*
X0282018Y0026046D01*
X0282018Y0025900D01*
X0289018Y0025900D01*
X0289018Y0025500D01*
X0282018Y0025500D01*
X0282018Y0025354D01*
X0282126Y0024670D01*
X0282340Y0024011D01*
X0282655Y0023394D01*
X0283062Y0022834D01*
X0283552Y0022344D01*
X0284112Y0021937D01*
X0284729Y0021622D01*
X0285388Y0021408D01*
X0286072Y0021300D01*
X0289018Y0021300D01*
X0289018Y0025500D01*
X0289418Y0025500D01*
X0289418Y0021300D01*
X0292364Y0021300D01*
X0293048Y0021408D01*
X0293707Y0021622D01*
X0294324Y0021937D01*
X0294885Y0022344D01*
X0295374Y0022834D01*
X0295781Y0023394D01*
X0296096Y0024011D01*
X0296310Y0024670D01*
X0296418Y0025354D01*
X0296418Y0025500D01*
X0289418Y0025500D01*
X0289418Y0025900D01*
X0296418Y0025900D01*
X0296418Y0026046D01*
X0296310Y0026730D01*
X0296096Y0027389D01*
X0295912Y0027750D01*
X0308124Y0027750D01*
X0307940Y0027389D01*
X0307726Y0026730D01*
X0307618Y0026046D01*
X0307618Y0025900D01*
X0314618Y0025900D01*
X0314618Y0025500D01*
X0307618Y0025500D01*
X0307618Y0025354D01*
X0307726Y0024670D01*
X0307940Y0024011D01*
X0308255Y0023394D01*
X0308662Y0022834D01*
X0309152Y0022344D01*
X0309712Y0021937D01*
X0310329Y0021622D01*
X0310988Y0021408D01*
X0311672Y0021300D01*
X0314618Y0021300D01*
X0314618Y0025500D01*
X0315018Y0025500D01*
X0315018Y0021300D01*
X0317964Y0021300D01*
X0318648Y0021408D01*
X0319307Y0021622D01*
X0319924Y0021937D01*
X0320485Y0022344D01*
X0320974Y0022834D01*
X0321381Y0023394D01*
X0321696Y0024011D01*
X0321910Y0024670D01*
X0322018Y0025354D01*
X0322018Y0025500D01*
X0315018Y0025500D01*
X0315018Y0025900D01*
X0322018Y0025900D01*
X0322018Y0026046D01*
X0321910Y0026730D01*
X0321696Y0027389D01*
X0321512Y0027750D01*
X0367575Y0027750D01*
X0368604Y0028176D01*
X0369392Y0028964D01*
X0369818Y0029993D01*
X0369818Y0033607D01*
X0369392Y0034636D01*
X0368604Y0035424D01*
X0367575Y0035850D01*
X0264179Y0035850D01*
X0267929Y0039600D01*
X0268469Y0039600D01*
X0268966Y0039103D01*
X0270135Y0038619D01*
X0271401Y0038619D01*
X0272570Y0039103D01*
X0273465Y0039998D01*
X0273949Y0041167D01*
X0273949Y0042433D01*
X0273465Y0043602D01*
X0272570Y0044497D01*
X0271401Y0044981D01*
X0270135Y0044981D01*
X0268966Y0044497D01*
X0268469Y0044000D01*
X0267329Y0044000D01*
X0272929Y0049600D01*
X0310429Y0049600D01*
X0311718Y0050889D01*
X0317968Y0057139D01*
X0317968Y0059920D01*
X0318138Y0059750D01*
X0318568Y0059750D01*
X0318568Y0057711D01*
X0316107Y0055250D01*
X0314818Y0053961D01*
X0314818Y0043961D01*
X0313607Y0042750D01*
X0310842Y0042750D01*
X0312068Y0043976D01*
X0312068Y0047124D01*
X0309842Y0049350D01*
X0306694Y0049350D01*
X0304468Y0047124D01*
X0304468Y0043976D01*
X0305694Y0042750D01*
X0304179Y0042750D01*
X0302068Y0044861D01*
X0302068Y0047124D01*
X0299842Y0049350D01*
X0296694Y0049350D01*
X0294468Y0047124D01*
X0294468Y0043976D01*
X0296694Y0041750D01*
X0298957Y0041750D01*
X0302357Y0038350D01*
X0315429Y0038350D01*
X0316718Y0039639D01*
X0319218Y0042139D01*
X0319218Y0052139D01*
X0321679Y0054600D01*
X0337929Y0054600D01*
X0339218Y0055889D01*
X0341718Y0058389D01*
X0341718Y0075211D01*
X0340429Y0076500D01*
X0337929Y0079000D01*
X0336718Y0079000D01*
X0336718Y0080530D01*
X0335898Y0081350D01*
X0335468Y0081350D01*
X0335468Y0081461D01*
X0334179Y0082750D01*
X0330429Y0086500D01*
X0329829Y0086500D01*
X0330468Y0087139D01*
X0336718Y0093389D01*
X0336718Y0094593D01*
X0338518Y0096393D01*
X0338518Y0099707D01*
X0337375Y0100850D01*
X0338607Y0100850D01*
X0340518Y0098939D01*
X0340518Y0096393D01*
X0342861Y0094050D01*
X0346175Y0094050D01*
X0348518Y0096393D01*
X0348518Y0099707D01*
X0346175Y0102050D01*
X0343629Y0102050D01*
X0340429Y0105250D01*
X0337658Y0105250D01*
X0338718Y0106310D01*
X0338718Y0107950D01*
X0334618Y0107950D01*
X0334618Y0108150D01*
X0334418Y0108150D01*
X0334418Y0107950D01*
X0330318Y0107950D01*
X0330318Y0106310D01*
X0331378Y0105250D01*
X0331107Y0105250D01*
X0329818Y0103961D01*
X0327318Y0101461D01*
X0327318Y0100907D01*
X0326175Y0102050D01*
X0322861Y0102050D01*
X0320518Y0099707D01*
X0320518Y0096393D01*
X0322861Y0094050D01*
X0326175Y0094050D01*
X0327318Y0095193D01*
X0327318Y0093961D01*
X0326107Y0092750D01*
X0295429Y0092750D01*
X0288579Y0099600D01*
X0292718Y0099600D01*
X0293071Y0098748D01*
X0293966Y0097853D01*
X0295135Y0097369D01*
X0296401Y0097369D01*
X0297570Y0097853D01*
X0298465Y0098748D01*
X0298949Y0099917D01*
X0298949Y0101183D01*
X0298569Y0102100D01*
X0307357Y0102100D01*
X0310518Y0098939D01*
X0310518Y0096393D01*
X0312861Y0094050D01*
X0316175Y0094050D01*
X0318518Y0096393D01*
X0318518Y0099707D01*
X0316175Y0102050D01*
X0313629Y0102050D01*
X0310468Y0105211D01*
X0309179Y0106500D01*
X0212929Y0106500D01*
X0209218Y0110211D01*
X0209218Y0116226D01*
X0210240Y0117247D01*
X0210818Y0118644D01*
X0210818Y0124956D01*
X0210240Y0126353D01*
X0209171Y0127421D01*
X0207774Y0128000D01*
X0206262Y0128000D01*
X0204866Y0127421D01*
X0203797Y0126353D01*
X0203218Y0124956D01*
X0203218Y0118644D01*
X0203797Y0117247D01*
X0204818Y0116226D01*
X0204818Y0108389D01*
X0206107Y0107100D01*
X0209207Y0104000D01*
X0205429Y0104000D01*
X0199218Y0110211D01*
X0199218Y0116226D01*
X0200240Y0117247D01*
X0200818Y0118644D01*
X0200818Y0124956D01*
X0200240Y0126353D01*
X0199171Y0127421D01*
X0197774Y0128000D01*
X0196262Y0128000D01*
X0194866Y0127421D01*
X0193797Y0126353D01*
X0193218Y0124956D01*
X0193218Y0118644D01*
X0193797Y0117247D01*
X0194818Y0116226D01*
X0194818Y0108389D01*
X0201707Y0101500D01*
X0197929Y0101500D01*
X0189218Y0110211D01*
X0189218Y0116226D01*
X0190240Y0117247D01*
X0190818Y0118644D01*
X0190818Y0124956D01*
X0190240Y0126353D01*
X0189171Y0127421D01*
X0187774Y0128000D01*
X0186262Y0128000D01*
X0184866Y0127421D01*
X0183797Y0126353D01*
X0183218Y0124956D01*
X0183218Y0118644D01*
X0183797Y0117247D01*
X0184818Y0116226D01*
X0184818Y0108389D01*
X0194207Y0099000D01*
X0190429Y0099000D01*
X0179218Y0110211D01*
X0179218Y0116226D01*
X0180240Y0117247D01*
X0180818Y0118644D01*
X0180818Y0124956D01*
X0180240Y0126353D01*
X0179171Y0127421D01*
X0177774Y0128000D01*
X0176262Y0128000D01*
X0174866Y0127421D01*
X0173797Y0126353D01*
X0173218Y0124956D01*
X0173218Y0118644D01*
X0173797Y0117247D01*
X0174818Y0116226D01*
X0174818Y0108389D01*
X0176107Y0107100D01*
X0187957Y0095250D01*
X0186679Y0095250D01*
X0174179Y0107750D01*
X0164348Y0107750D01*
X0164967Y0108007D01*
X0165811Y0108851D01*
X0169561Y0112601D01*
X0170018Y0113703D01*
X0170018Y0117026D01*
X0170240Y0117247D01*
X0170818Y0118644D01*
X0170818Y0124956D01*
X0170240Y0126353D01*
X0169171Y0127421D01*
X0167774Y0128000D01*
X0166262Y0128000D01*
X0164866Y0127421D01*
X0163797Y0126353D01*
X0163218Y0124956D01*
X0163218Y0118644D01*
X0163797Y0117247D01*
X0164018Y0117026D01*
X0164018Y0115543D01*
X0162025Y0113550D01*
X0071421Y0113550D01*
X0070319Y0113093D01*
X0067819Y0110593D01*
X0066975Y0109749D01*
X0066518Y0108647D01*
X0066518Y0104293D01*
X0049075Y0086850D01*
X0047944Y0086850D01*
X0045718Y0084624D01*
X0045718Y0081476D01*
X0047944Y0079250D01*
X0051092Y0079250D01*
X0053318Y0081476D01*
X0053318Y0082607D01*
X0072061Y0101351D01*
X0072518Y0102453D01*
X0072518Y0106807D01*
X0073261Y0107550D01*
X0077019Y0107550D01*
X0076821Y0107352D01*
X0076337Y0106183D01*
X0076337Y0104917D01*
X0076821Y0103748D01*
X0077716Y0102853D01*
X0078885Y0102369D01*
X0080151Y0102369D01*
X0081320Y0102853D01*
X0081817Y0103350D01*
X0172357Y0103350D01*
X0184857Y0090850D01*
X0259719Y0090850D01*
X0260216Y0090353D01*
X0261385Y0089869D01*
X0262651Y0089869D01*
X0263820Y0090353D01*
X0264715Y0091248D01*
X0265199Y0092417D01*
X0265199Y0093683D01*
X0264819Y0094600D01*
X0280465Y0094600D01*
X0280216Y0094497D01*
X0279719Y0094000D01*
X0273607Y0094000D01*
X0272318Y0092711D01*
X0262357Y0082750D01*
X0234317Y0082750D01*
X0233820Y0083247D01*
X0232651Y0083731D01*
X0231385Y0083731D01*
X0230216Y0083247D01*
X0229321Y0082352D01*
X0228837Y0081183D01*
X0228837Y0079917D01*
X0229321Y0078748D01*
X0230216Y0077853D01*
X0231385Y0077369D01*
X0232651Y0077369D01*
X0233820Y0077853D01*
X0234317Y0078350D01*
X0264179Y0078350D01*
X0273046Y0087217D01*
X0273046Y0087071D01*
X0259525Y0073550D01*
X0216838Y0073550D01*
X0216401Y0073731D01*
X0215135Y0073731D01*
X0213966Y0073247D01*
X0213071Y0072352D01*
X0212587Y0071183D01*
X0212587Y0069917D01*
X0212994Y0068936D01*
X0212968Y0068961D01*
X0211679Y0070250D01*
X0198607Y0070250D01*
X0196357Y0068000D01*
X0196262Y0068000D01*
X0194866Y0067421D01*
X0194218Y0066774D01*
X0194218Y0078961D01*
X0192929Y0080250D01*
X0172929Y0100250D01*
X0162357Y0100250D01*
X0161068Y0098961D01*
X0154857Y0092750D01*
X0082357Y0092750D01*
X0081068Y0091461D01*
X0074818Y0085211D01*
X0074818Y0067374D01*
X0073797Y0066353D01*
X0073218Y0064956D01*
X0073218Y0058644D01*
X0073797Y0057247D01*
X0074866Y0056179D01*
X0076262Y0055600D01*
X0077774Y0055600D01*
X0079171Y0056179D01*
X0080240Y0057247D01*
X0080818Y0058644D01*
X0080818Y0064956D01*
X0080240Y0066353D01*
X0079218Y0067374D01*
X0079218Y0083389D01*
X0084179Y0088350D01*
X0089207Y0088350D01*
X0088568Y0087711D01*
X0084818Y0083961D01*
X0084818Y0067374D01*
X0083797Y0066353D01*
X0083218Y0064956D01*
X0083218Y0058644D01*
X0083797Y0057247D01*
X0084866Y0056179D01*
X0086262Y0055600D01*
X0087774Y0055600D01*
X0089171Y0056179D01*
X0090240Y0057247D01*
X0090818Y0058644D01*
X0090818Y0064956D01*
X0090240Y0066353D01*
X0089218Y0067374D01*
X0089218Y0082139D01*
X0091679Y0084600D01*
X0099207Y0084600D01*
X0098568Y0083961D01*
X0094818Y0080211D01*
X0094818Y0067374D01*
X0093797Y0066353D01*
X0093218Y0064956D01*
X0093218Y0058644D01*
X0093797Y0057247D01*
X0094866Y0056179D01*
X0096262Y0055600D01*
X0097774Y0055600D01*
X0099171Y0056179D01*
X0100240Y0057247D01*
X0100818Y0058644D01*
X0100818Y0064956D01*
X0100240Y0066353D01*
X0099218Y0067374D01*
X0099218Y0078389D01*
X0101679Y0080850D01*
X0110457Y0080850D01*
X0109818Y0080211D01*
X0106783Y0077176D01*
X0106160Y0076657D01*
X0106149Y0076542D01*
X0106068Y0076461D01*
X0106068Y0075650D01*
X0105338Y0067617D01*
X0104866Y0067421D01*
X0103797Y0066353D01*
X0103218Y0064956D01*
X0103218Y0058644D01*
X0103797Y0057247D01*
X0104866Y0056179D01*
X0106262Y0055600D01*
X0107774Y0055600D01*
X0109171Y0056179D01*
X0110240Y0057247D01*
X0110818Y0058644D01*
X0110818Y0064956D01*
X0110240Y0066353D01*
X0109691Y0066901D01*
X0110387Y0074558D01*
X0112929Y0077100D01*
X0119207Y0077100D01*
X0118568Y0076461D01*
X0116799Y0074692D01*
X0116182Y0074199D01*
X0116167Y0074060D01*
X0116068Y0073961D01*
X0116068Y0073172D01*
X0115456Y0067666D01*
X0114866Y0067421D01*
X0113797Y0066353D01*
X0113218Y0064956D01*
X0113218Y0058644D01*
X0113797Y0057247D01*
X0114866Y0056179D01*
X0116262Y0055600D01*
X0117774Y0055600D01*
X0119171Y0056179D01*
X0120240Y0057247D01*
X0120818Y0058644D01*
X0120818Y0064956D01*
X0120240Y0066353D01*
X0119788Y0066804D01*
X0120369Y0072040D01*
X0121679Y0073350D01*
X0129207Y0073350D01*
X0128568Y0072711D01*
X0126841Y0070984D01*
X0126248Y0070561D01*
X0126214Y0070357D01*
X0126068Y0070211D01*
X0126068Y0069482D01*
X0125788Y0067804D01*
X0124866Y0067421D01*
X0123797Y0066353D01*
X0123218Y0064956D01*
X0123218Y0058644D01*
X0123797Y0057247D01*
X0124866Y0056179D01*
X0126262Y0055600D01*
X0127774Y0055600D01*
X0129171Y0056179D01*
X0130240Y0057247D01*
X0130818Y0058644D01*
X0130818Y0064956D01*
X0130240Y0066353D01*
X0130040Y0066552D01*
X0130322Y0068243D01*
X0131679Y0069600D01*
X0138607Y0069600D01*
X0139818Y0068389D01*
X0139818Y0066774D01*
X0139171Y0067421D01*
X0137774Y0068000D01*
X0136262Y0068000D01*
X0134866Y0067421D01*
X0133797Y0066353D01*
X0133218Y0064956D01*
X0133218Y0060572D01*
X0130376Y0057019D01*
X0129818Y0056461D01*
X0129818Y0056322D01*
X0129731Y0056213D01*
X0129818Y0055428D01*
X0129818Y0053235D01*
X0129639Y0053161D01*
X0128458Y0051979D01*
X0127818Y0050435D01*
X0127818Y0043165D01*
X0128458Y0041621D01*
X0129203Y0040875D01*
X0124833Y0040875D01*
X0125579Y0041621D01*
X0126218Y0043165D01*
X0126218Y0050435D01*
X0125579Y0051979D01*
X0124397Y0053161D01*
X0122854Y0053800D01*
X0121183Y0053800D01*
X0119639Y0053161D01*
X0118458Y0051979D01*
X0117818Y0050435D01*
X0117818Y0043165D01*
X0118458Y0041621D01*
X0119203Y0040875D01*
X0114833Y0040875D01*
X0115579Y0041621D01*
X0116218Y0043165D01*
X0116218Y0050435D01*
X0115579Y0051979D01*
X0114397Y0053161D01*
X0112854Y0053800D01*
X0111183Y0053800D01*
X0109639Y0053161D01*
X0108458Y0051979D01*
X0107818Y0050435D01*
X0107818Y0043165D01*
X0108458Y0041621D01*
X0109203Y0040875D01*
X0104833Y0040875D01*
X0105579Y0041621D01*
X0106218Y0043165D01*
X0106218Y0050435D01*
X0105579Y0051979D01*
X0104397Y0053161D01*
X0102854Y0053800D01*
X0101183Y0053800D01*
X0099639Y0053161D01*
X0098458Y0051979D01*
X0097818Y0050435D01*
X0097818Y0043165D01*
X0098458Y0041621D01*
X0099203Y0040875D01*
X0094833Y0040875D01*
X0095579Y0041621D01*
X0096218Y0043165D01*
X0096218Y0050435D01*
X0095579Y0051979D01*
X0094397Y0053161D01*
X0092854Y0053800D01*
X0091183Y0053800D01*
X0089639Y0053161D01*
X0088458Y0051979D01*
X0087818Y0050435D01*
X0087818Y0043165D01*
X0088458Y0041621D01*
X0089203Y0040875D01*
X0084833Y0040875D01*
X0085579Y0041621D01*
X0086218Y0043165D01*
X0086218Y0050435D01*
X0085579Y0051979D01*
X0084397Y0053161D01*
X0082854Y0053800D01*
X0081183Y0053800D01*
X0079639Y0053161D01*
X0078458Y0051979D01*
X0077818Y0050435D01*
X0077818Y0043165D01*
X0078458Y0041621D01*
X0079203Y0040875D01*
X0078555Y0040875D01*
X0076218Y0043211D01*
X0076218Y0050435D01*
X0075579Y0051979D01*
X0074397Y0053161D01*
X0072854Y0053800D01*
X0071183Y0053800D01*
X0069639Y0053161D01*
X0068458Y0051979D01*
X0067818Y0050435D01*
X0067818Y0043165D01*
X0068458Y0041621D01*
X0069639Y0040439D01*
X0071183Y0039800D01*
X0072854Y0039800D01*
X0073245Y0039962D01*
X0074832Y0038375D01*
X0067305Y0038375D01*
X0064819Y0040861D01*
X0069217Y0040861D01*
X0068110Y0042460D02*
X0065926Y0042460D01*
X0066218Y0043165D02*
X0066218Y0050435D01*
X0065579Y0051979D01*
X0064397Y0053161D01*
X0062854Y0053800D01*
X0061183Y0053800D01*
X0059639Y0053161D01*
X0058458Y0051979D01*
X0057818Y0050435D01*
X0057818Y0043165D01*
X0058458Y0041621D01*
X0059639Y0040439D01*
X0059818Y0040365D01*
X0059818Y0039639D01*
X0059818Y0039639D01*
X0059818Y0039639D01*
X0060494Y0038962D01*
X0061107Y0038350D01*
X0063607Y0035850D01*
X0031679Y0035850D01*
X0046085Y0050256D01*
X0046320Y0050353D01*
X0047215Y0051248D01*
X0047699Y0052417D01*
X0047699Y0053683D01*
X0047215Y0054852D01*
X0046320Y0055747D01*
X0045151Y0056231D01*
X0043885Y0056231D01*
X0042716Y0055747D01*
X0041821Y0054852D01*
X0041337Y0053683D01*
X0041337Y0052417D01*
X0041538Y0051931D01*
X0028607Y0039000D01*
X0020936Y0039000D01*
X0021949Y0039420D01*
X0024398Y0041869D01*
X0025724Y0045068D01*
X0025724Y0048532D01*
X0024398Y0051731D01*
X0021949Y0054180D01*
X0018750Y0055505D01*
X0015286Y0055505D01*
X0012087Y0054180D01*
X0009638Y0051731D01*
X0008313Y0048532D01*
X0008313Y0045068D01*
X0009638Y0041869D01*
X0012087Y0039420D01*
X0013100Y0039000D01*
X0009857Y0039000D01*
X0008568Y0037711D01*
X0004838Y0033981D01*
X0004838Y0058706D01*
X0004966Y0058579D01*
X0006362Y0058000D01*
X0012674Y0058000D01*
X0014071Y0058579D01*
X0015140Y0059647D01*
X0015718Y0061044D01*
X0015718Y0062556D01*
X0015140Y0063953D01*
X0014071Y0065021D01*
X0012674Y0065600D01*
X0011718Y0065600D01*
X0011718Y0068626D01*
X0013318Y0070226D01*
X0013318Y0073374D01*
X0011718Y0074974D01*
X0011718Y0079876D01*
X0013318Y0081476D01*
X0013318Y0084624D01*
X0011718Y0086224D01*
X0011718Y0088961D01*
X0010877Y0089802D01*
X0011269Y0089602D01*
X0011928Y0089388D01*
X0012612Y0089280D01*
X0015574Y0089280D01*
X0015574Y0093496D01*
X0015943Y0093496D01*
X0015943Y0093864D01*
X0022958Y0093864D01*
X0022958Y0094026D01*
X0022850Y0094710D01*
X0022636Y0095369D01*
X0022321Y0095986D01*
X0021914Y0096546D01*
X0021425Y0097036D01*
X0020864Y0097443D01*
X0020247Y0097758D01*
X0019589Y0097972D01*
X0018905Y0098080D01*
X0015943Y0098080D01*
X0015943Y0093864D01*
X0015574Y0093864D01*
X0015574Y0098080D01*
X0012612Y0098080D01*
X0011928Y0097972D01*
X0011269Y0097758D01*
X0010652Y0097443D01*
X0010468Y0097309D01*
X0010468Y0100889D01*
X0018579Y0109000D01*
X0028056Y0109000D01*
X0028889Y0108166D01*
X0029170Y0108050D01*
X0028889Y0107934D01*
X0027883Y0106927D01*
X0027338Y0105612D01*
X0027338Y0104189D01*
X0027883Y0102874D01*
X0028889Y0101867D01*
X0030204Y0101322D01*
X0031627Y0101322D01*
X0031862Y0101420D01*
X0031862Y0101379D01*
X0032007Y0100649D01*
X0032292Y0099961D01*
X0032706Y0099342D01*
X0033232Y0098816D01*
X0033851Y0098403D01*
X0034538Y0098118D01*
X0035268Y0097973D01*
X0035640Y0097973D01*
X0035640Y0101751D01*
X0039418Y0101751D01*
X0039418Y0102123D01*
X0039273Y0102853D01*
X0038988Y0103540D01*
X0038575Y0104159D01*
X0038048Y0104685D01*
X0039128Y0103203D02*
X0065429Y0103203D01*
X0063830Y0101605D02*
X0039418Y0101605D01*
X0039418Y0101751D02*
X0035640Y0101751D01*
X0035640Y0101751D01*
X0035640Y0101751D01*
X0035640Y0097973D01*
X0036012Y0097973D01*
X0036742Y0098118D01*
X0037430Y0098403D01*
X0038048Y0098816D01*
X0038575Y0099342D01*
X0038988Y0099961D01*
X0039273Y0100649D01*
X0039418Y0101379D01*
X0039418Y0101751D01*
X0039007Y0100006D02*
X0062232Y0100006D01*
X0060633Y0098408D02*
X0037437Y0098408D01*
X0035640Y0098408D02*
X0035640Y0098408D01*
X0035640Y0100006D02*
X0035640Y0100006D01*
X0035640Y0101605D02*
X0035640Y0101605D01*
X0032274Y0100006D02*
X0010468Y0100006D01*
X0010468Y0098408D02*
X0033843Y0098408D01*
X0029523Y0101605D02*
X0011184Y0101605D01*
X0012783Y0103203D02*
X0027746Y0103203D01*
X0027338Y0104802D02*
X0014381Y0104802D01*
X0015980Y0106400D02*
X0027664Y0106400D01*
X0029046Y0107999D02*
X0017578Y0107999D01*
X0012954Y0109597D02*
X0004838Y0109597D01*
X0004838Y0107999D02*
X0011356Y0107999D01*
X0009757Y0106400D02*
X0004838Y0106400D01*
X0004838Y0104802D02*
X0008159Y0104802D01*
X0006560Y0103203D02*
X0004838Y0103203D01*
X0004838Y0101605D02*
X0006068Y0101605D01*
X0006068Y0100006D02*
X0004838Y0100006D01*
X0004838Y0098408D02*
X0006068Y0098408D01*
X0006068Y0096809D02*
X0004838Y0096809D01*
X0004838Y0095211D02*
X0006068Y0095211D01*
X0006068Y0093612D02*
X0004838Y0093612D01*
X0004838Y0092014D02*
X0006068Y0092014D01*
X0006068Y0090415D02*
X0004838Y0090415D01*
X0004838Y0088817D02*
X0006068Y0088817D01*
X0007239Y0087218D02*
X0004838Y0087218D01*
X0004838Y0085620D02*
X0006714Y0085620D01*
X0005718Y0084021D02*
X0004838Y0084021D01*
X0004838Y0082423D02*
X0005718Y0082423D01*
X0006370Y0080824D02*
X0004838Y0080824D01*
X0004838Y0079226D02*
X0007318Y0079226D01*
X0007318Y0077627D02*
X0004838Y0077627D01*
X0004838Y0076029D02*
X0007318Y0076029D01*
X0006774Y0074430D02*
X0004838Y0074430D01*
X0004838Y0072832D02*
X0005718Y0072832D01*
X0005718Y0071233D02*
X0004838Y0071233D01*
X0004838Y0069634D02*
X0006310Y0069634D01*
X0007318Y0068036D02*
X0004838Y0068036D01*
X0004838Y0066437D02*
X0007318Y0066437D01*
X0011718Y0066437D02*
X0023618Y0066437D01*
X0023618Y0065790D02*
X0024002Y0065406D01*
X0023618Y0065023D01*
X0023618Y0060412D01*
X0024529Y0059501D01*
X0023618Y0058591D01*
X0023618Y0057182D01*
X0025753Y0055047D01*
X0026749Y0054051D01*
X0030293Y0054051D01*
X0033424Y0057182D01*
X0033424Y0058591D01*
X0032428Y0059586D01*
X0031019Y0059586D01*
X0028884Y0057451D01*
X0028157Y0057451D01*
X0027260Y0058348D01*
X0029225Y0058348D01*
X0029923Y0059046D01*
X0030293Y0059416D01*
X0030591Y0059714D01*
X0031288Y0060412D01*
X0031288Y0064794D01*
X0032428Y0064794D01*
X0033424Y0065790D01*
X0033424Y0067198D01*
X0030293Y0070329D01*
X0026749Y0070329D01*
X0025753Y0069333D01*
X0023618Y0067198D01*
X0023618Y0065790D01*
X0023618Y0064839D02*
X0014253Y0064839D01*
X0015435Y0063240D02*
X0023618Y0063240D01*
X0023618Y0061642D02*
X0015718Y0061642D01*
X0015304Y0060043D02*
X0023986Y0060043D01*
X0023618Y0058445D02*
X0013748Y0058445D01*
X0014665Y0055248D02*
X0004838Y0055248D01*
X0004838Y0056846D02*
X0023954Y0056846D01*
X0025552Y0055248D02*
X0019372Y0055248D01*
X0022480Y0053649D02*
X0041337Y0053649D01*
X0041489Y0052051D02*
X0024079Y0052051D01*
X0024928Y0050452D02*
X0040059Y0050452D01*
X0038461Y0048854D02*
X0025590Y0048854D01*
X0025724Y0047255D02*
X0036862Y0047255D01*
X0035264Y0045657D02*
X0025724Y0045657D01*
X0025305Y0044058D02*
X0033665Y0044058D01*
X0032067Y0042460D02*
X0024643Y0042460D01*
X0023391Y0040861D02*
X0030468Y0040861D01*
X0028870Y0039263D02*
X0021570Y0039263D01*
X0029518Y0036800D02*
X0044518Y0051800D01*
X0044518Y0053050D01*
X0047547Y0052051D02*
X0058529Y0052051D01*
X0057825Y0050452D02*
X0046419Y0050452D01*
X0044683Y0048854D02*
X0057818Y0048854D01*
X0057818Y0047255D02*
X0043085Y0047255D01*
X0041486Y0045657D02*
X0057818Y0045657D01*
X0057818Y0044058D02*
X0039888Y0044058D01*
X0038289Y0042460D02*
X0058110Y0042460D01*
X0059217Y0040861D02*
X0036691Y0040861D01*
X0035092Y0039263D02*
X0060194Y0039263D01*
X0061107Y0038350D02*
X0061107Y0038350D01*
X0061793Y0037664D02*
X0033494Y0037664D01*
X0031895Y0036066D02*
X0063391Y0036066D01*
X0066393Y0036175D02*
X0256393Y0036175D01*
X0272018Y0051800D01*
X0309518Y0051800D01*
X0315768Y0058050D01*
X0315768Y0066800D01*
X0318268Y0069300D01*
X0325768Y0069300D01*
X0327018Y0068050D01*
X0327018Y0064300D01*
X0333018Y0064300D02*
X0333018Y0068300D01*
X0329518Y0071800D01*
X0320768Y0071800D01*
X0321018Y0072050D01*
X0321018Y0076800D01*
X0317018Y0081800D02*
X0314518Y0079300D01*
X0314518Y0074300D01*
X0294518Y0054300D01*
X0270768Y0054300D01*
X0255143Y0038675D01*
X0077643Y0038675D01*
X0072018Y0044300D01*
X0072018Y0046800D01*
X0076218Y0047255D02*
X0077818Y0047255D01*
X0077818Y0045657D02*
X0076218Y0045657D01*
X0076218Y0044058D02*
X0077818Y0044058D01*
X0078110Y0042460D02*
X0076970Y0042460D01*
X0073944Y0039263D02*
X0066417Y0039263D01*
X0064819Y0040861D02*
X0065579Y0041621D01*
X0066218Y0043165D01*
X0066218Y0044058D02*
X0067818Y0044058D01*
X0067818Y0045657D02*
X0066218Y0045657D01*
X0066218Y0047255D02*
X0067818Y0047255D01*
X0067818Y0048854D02*
X0066218Y0048854D01*
X0066211Y0050452D02*
X0067825Y0050452D01*
X0068529Y0052051D02*
X0065507Y0052051D01*
X0063217Y0053649D02*
X0070819Y0053649D01*
X0073217Y0053649D02*
X0080819Y0053649D01*
X0083217Y0053649D02*
X0090819Y0053649D01*
X0093217Y0053649D02*
X0100819Y0053649D01*
X0103217Y0053649D02*
X0110819Y0053649D01*
X0113217Y0053649D02*
X0120819Y0053649D01*
X0123217Y0053649D02*
X0129818Y0053649D01*
X0129818Y0055248D02*
X0046819Y0055248D01*
X0047699Y0053649D02*
X0060819Y0053649D01*
X0063797Y0057247D02*
X0064866Y0056179D01*
X0066262Y0055600D01*
X0067774Y0055600D01*
X0069171Y0056179D01*
X0070240Y0057247D01*
X0070818Y0058644D01*
X0070818Y0064956D01*
X0070240Y0066353D01*
X0069171Y0067421D01*
X0067774Y0068000D01*
X0066262Y0068000D01*
X0064866Y0067421D01*
X0063797Y0066353D01*
X0063218Y0064956D01*
X0063218Y0058644D01*
X0063797Y0057247D01*
X0064198Y0056846D02*
X0033088Y0056846D01*
X0033424Y0058445D02*
X0044940Y0058445D01*
X0045223Y0058255D02*
X0045951Y0057954D01*
X0046724Y0057800D01*
X0049518Y0057800D01*
X0049518Y0061800D01*
X0049518Y0061800D01*
X0043118Y0061800D01*
X0043118Y0062194D01*
X0043272Y0062967D01*
X0043573Y0063695D01*
X0044011Y0064350D01*
X0044568Y0064907D01*
X0045223Y0065345D01*
X0045951Y0065646D01*
X0046724Y0065800D01*
X0049518Y0065800D01*
X0049518Y0061800D01*
X0043118Y0061800D01*
X0043118Y0061406D01*
X0043272Y0060633D01*
X0043573Y0059905D01*
X0044011Y0059250D01*
X0044568Y0058693D01*
X0045223Y0058255D01*
X0043516Y0060043D02*
X0030920Y0060043D01*
X0030293Y0059416D02*
X0030293Y0059416D01*
X0029878Y0058445D02*
X0029322Y0058445D01*
X0031288Y0061642D02*
X0043118Y0061642D01*
X0043385Y0063240D02*
X0031288Y0063240D01*
X0032473Y0064839D02*
X0044500Y0064839D01*
X0047908Y0068036D02*
X0032585Y0068036D01*
X0033424Y0066437D02*
X0063882Y0066437D01*
X0063218Y0064839D02*
X0054536Y0064839D01*
X0054468Y0064907D02*
X0053813Y0065345D01*
X0053085Y0065646D01*
X0052312Y0065800D01*
X0049518Y0065800D01*
X0049518Y0061800D01*
X0049518Y0061800D01*
X0049518Y0061800D01*
X0049518Y0057800D01*
X0052312Y0057800D01*
X0053085Y0057954D01*
X0053813Y0058255D01*
X0054468Y0058693D01*
X0055025Y0059250D01*
X0055463Y0059905D01*
X0055764Y0060633D01*
X0055918Y0061406D01*
X0055918Y0061800D01*
X0055918Y0062194D01*
X0055764Y0062967D01*
X0055463Y0063695D01*
X0055025Y0064350D01*
X0054468Y0064907D01*
X0055651Y0063240D02*
X0063218Y0063240D01*
X0063218Y0061642D02*
X0055918Y0061642D01*
X0055918Y0061800D02*
X0049518Y0061800D01*
X0055918Y0061800D01*
X0055520Y0060043D02*
X0063218Y0060043D01*
X0063301Y0058445D02*
X0054097Y0058445D01*
X0049518Y0058445D02*
X0049518Y0058445D01*
X0049518Y0060043D02*
X0049518Y0060043D01*
X0049518Y0061642D02*
X0049518Y0061642D01*
X0049518Y0061800D02*
X0049518Y0061800D01*
X0049518Y0063240D02*
X0049518Y0063240D01*
X0049518Y0064839D02*
X0049518Y0064839D01*
X0047944Y0068000D02*
X0051092Y0068000D01*
X0053318Y0070226D01*
X0053318Y0073374D01*
X0051092Y0075600D01*
X0047944Y0075600D01*
X0045718Y0073374D01*
X0045718Y0070226D01*
X0047944Y0068000D01*
X0046310Y0069634D02*
X0030987Y0069634D01*
X0026055Y0069634D02*
X0012727Y0069634D01*
X0013318Y0071233D02*
X0045718Y0071233D01*
X0045718Y0072832D02*
X0013318Y0072832D01*
X0012262Y0074430D02*
X0046774Y0074430D01*
X0052262Y0074430D02*
X0074818Y0074430D01*
X0074818Y0072832D02*
X0053318Y0072832D01*
X0053318Y0071233D02*
X0074818Y0071233D01*
X0074818Y0069634D02*
X0052727Y0069634D01*
X0051128Y0068036D02*
X0074818Y0068036D01*
X0073882Y0066437D02*
X0070155Y0066437D01*
X0070818Y0064839D02*
X0073218Y0064839D01*
X0073218Y0063240D02*
X0070818Y0063240D01*
X0070818Y0061642D02*
X0073218Y0061642D01*
X0073218Y0060043D02*
X0070818Y0060043D01*
X0070736Y0058445D02*
X0073301Y0058445D01*
X0074198Y0056846D02*
X0069839Y0056846D01*
X0075507Y0052051D02*
X0078529Y0052051D01*
X0077825Y0050452D02*
X0076211Y0050452D01*
X0076218Y0048854D02*
X0077818Y0048854D01*
X0085507Y0052051D02*
X0088529Y0052051D01*
X0087825Y0050452D02*
X0086211Y0050452D01*
X0086218Y0048854D02*
X0087818Y0048854D01*
X0087818Y0047255D02*
X0086218Y0047255D01*
X0086218Y0045657D02*
X0087818Y0045657D01*
X0087818Y0044058D02*
X0086218Y0044058D01*
X0085926Y0042460D02*
X0088110Y0042460D01*
X0095926Y0042460D02*
X0098110Y0042460D01*
X0097818Y0044058D02*
X0096218Y0044058D01*
X0096218Y0045657D02*
X0097818Y0045657D01*
X0097818Y0047255D02*
X0096218Y0047255D01*
X0096218Y0048854D02*
X0097818Y0048854D01*
X0097825Y0050452D02*
X0096211Y0050452D01*
X0095507Y0052051D02*
X0098529Y0052051D01*
X0105507Y0052051D02*
X0108529Y0052051D01*
X0107825Y0050452D02*
X0106211Y0050452D01*
X0106218Y0048854D02*
X0107818Y0048854D01*
X0107818Y0047255D02*
X0106218Y0047255D01*
X0106218Y0045657D02*
X0107818Y0045657D01*
X0107818Y0044058D02*
X0106218Y0044058D01*
X0105926Y0042460D02*
X0108110Y0042460D01*
X0115926Y0042460D02*
X0118110Y0042460D01*
X0117818Y0044058D02*
X0116218Y0044058D01*
X0116218Y0045657D02*
X0117818Y0045657D01*
X0117818Y0047255D02*
X0116218Y0047255D01*
X0116218Y0048854D02*
X0117818Y0048854D01*
X0117825Y0050452D02*
X0116211Y0050452D01*
X0115507Y0052051D02*
X0118529Y0052051D01*
X0125507Y0052051D02*
X0128529Y0052051D01*
X0127825Y0050452D02*
X0126211Y0050452D01*
X0126218Y0048854D02*
X0127818Y0048854D01*
X0127818Y0047255D02*
X0126218Y0047255D01*
X0126218Y0045657D02*
X0127818Y0045657D01*
X0127818Y0044058D02*
X0126218Y0044058D01*
X0125926Y0042460D02*
X0128110Y0042460D01*
X0132018Y0046800D02*
X0132018Y0055550D01*
X0137018Y0061800D01*
X0133218Y0061642D02*
X0130818Y0061642D01*
X0130818Y0063240D02*
X0133218Y0063240D01*
X0133218Y0064839D02*
X0130818Y0064839D01*
X0130155Y0066437D02*
X0133882Y0066437D01*
X0130288Y0068036D02*
X0139818Y0068036D01*
X0142018Y0069300D02*
X0142018Y0046800D01*
X0152018Y0046800D02*
X0152018Y0074300D01*
X0150768Y0075550D01*
X0120768Y0075550D01*
X0118268Y0073050D01*
X0117018Y0061800D01*
X0113218Y0061642D02*
X0110818Y0061642D01*
X0110818Y0063240D02*
X0113218Y0063240D01*
X0113218Y0064839D02*
X0110818Y0064839D01*
X0110155Y0066437D02*
X0113882Y0066437D01*
X0115497Y0068036D02*
X0109794Y0068036D01*
X0109939Y0069634D02*
X0115675Y0069634D01*
X0115853Y0071233D02*
X0110085Y0071233D01*
X0110230Y0072832D02*
X0116030Y0072832D01*
X0116471Y0074430D02*
X0110375Y0074430D01*
X0111858Y0076029D02*
X0118135Y0076029D01*
X0121161Y0072832D02*
X0128688Y0072832D01*
X0128568Y0072711D02*
X0128568Y0072711D01*
X0127090Y0071233D02*
X0120280Y0071233D01*
X0120102Y0069634D02*
X0126068Y0069634D01*
X0125827Y0068036D02*
X0119925Y0068036D01*
X0120155Y0066437D02*
X0123882Y0066437D01*
X0123218Y0064839D02*
X0120818Y0064839D01*
X0120818Y0063240D02*
X0123218Y0063240D01*
X0123218Y0061642D02*
X0120818Y0061642D01*
X0120818Y0060043D02*
X0123218Y0060043D01*
X0123301Y0058445D02*
X0120736Y0058445D01*
X0119839Y0056846D02*
X0124198Y0056846D01*
X0129839Y0056846D02*
X0130203Y0056846D01*
X0130736Y0058445D02*
X0131517Y0058445D01*
X0130818Y0060043D02*
X0132795Y0060043D01*
X0127018Y0061800D02*
X0128268Y0069300D01*
X0130768Y0071800D01*
X0139518Y0071800D01*
X0142018Y0069300D01*
X0157018Y0079300D02*
X0162018Y0074300D01*
X0162018Y0046800D01*
X0166218Y0047255D02*
X0167818Y0047255D01*
X0167818Y0045657D02*
X0166218Y0045657D01*
X0166218Y0044058D02*
X0167818Y0044058D01*
X0167818Y0043165D02*
X0168458Y0041621D01*
X0169203Y0040875D01*
X0164833Y0040875D01*
X0165579Y0041621D01*
X0166218Y0043165D01*
X0166218Y0050435D01*
X0165579Y0051979D01*
X0164397Y0053161D01*
X0164218Y0053235D01*
X0164218Y0056543D01*
X0164468Y0056293D01*
X0165123Y0055855D01*
X0165851Y0055554D01*
X0166624Y0055400D01*
X0167018Y0055400D01*
X0167018Y0061800D01*
X0167018Y0068200D01*
X0166624Y0068200D01*
X0165851Y0068046D01*
X0165123Y0067745D01*
X0164468Y0067307D01*
X0164218Y0067057D01*
X0164218Y0075211D01*
X0162929Y0076500D01*
X0158579Y0080850D01*
X0167357Y0080850D01*
X0169818Y0078389D01*
X0169818Y0067057D01*
X0169568Y0067307D01*
X0168913Y0067745D01*
X0168185Y0068046D01*
X0167412Y0068200D01*
X0167018Y0068200D01*
X0167018Y0061800D01*
X0167018Y0061800D01*
X0167018Y0061800D01*
X0167018Y0055400D01*
X0167412Y0055400D01*
X0168185Y0055554D01*
X0168913Y0055855D01*
X0169568Y0056293D01*
X0169818Y0056543D01*
X0169818Y0053235D01*
X0169639Y0053161D01*
X0168458Y0051979D01*
X0167818Y0050435D01*
X0167818Y0043165D01*
X0168110Y0042460D02*
X0165926Y0042460D01*
X0172018Y0046800D02*
X0172018Y0079300D01*
X0168268Y0083050D01*
X0100768Y0083050D01*
X0097018Y0079300D01*
X0097018Y0061800D01*
X0093218Y0061642D02*
X0090818Y0061642D01*
X0090818Y0063240D02*
X0093218Y0063240D01*
X0093218Y0064839D02*
X0090818Y0064839D01*
X0090155Y0066437D02*
X0093882Y0066437D01*
X0094818Y0068036D02*
X0089218Y0068036D01*
X0089218Y0069634D02*
X0094818Y0069634D01*
X0094818Y0071233D02*
X0089218Y0071233D01*
X0089218Y0072832D02*
X0094818Y0072832D01*
X0094818Y0074430D02*
X0089218Y0074430D01*
X0089218Y0076029D02*
X0094818Y0076029D01*
X0094818Y0077627D02*
X0089218Y0077627D01*
X0089218Y0079226D02*
X0094818Y0079226D01*
X0095431Y0080824D02*
X0089218Y0080824D01*
X0089502Y0082423D02*
X0097029Y0082423D01*
X0098628Y0084021D02*
X0091100Y0084021D01*
X0090768Y0086800D02*
X0155768Y0086800D01*
X0164518Y0095550D01*
X0170768Y0095550D01*
X0182018Y0084300D01*
X0182018Y0046800D01*
X0192018Y0046800D02*
X0192018Y0078050D01*
X0172018Y0098050D01*
X0163268Y0098050D01*
X0155768Y0090550D01*
X0083268Y0090550D01*
X0077018Y0084300D01*
X0077018Y0061800D01*
X0080818Y0061642D02*
X0083218Y0061642D01*
X0083218Y0063240D02*
X0080818Y0063240D01*
X0080818Y0064839D02*
X0083218Y0064839D01*
X0083882Y0066437D02*
X0080155Y0066437D01*
X0079218Y0068036D02*
X0084818Y0068036D01*
X0084818Y0069634D02*
X0079218Y0069634D01*
X0079218Y0071233D02*
X0084818Y0071233D01*
X0084818Y0072832D02*
X0079218Y0072832D01*
X0079218Y0074430D02*
X0084818Y0074430D01*
X0084818Y0076029D02*
X0079218Y0076029D01*
X0079218Y0077627D02*
X0084818Y0077627D01*
X0084818Y0079226D02*
X0079218Y0079226D01*
X0079218Y0080824D02*
X0084818Y0080824D01*
X0084818Y0082423D02*
X0079218Y0082423D01*
X0079850Y0084021D02*
X0084878Y0084021D01*
X0086476Y0085620D02*
X0081449Y0085620D01*
X0083048Y0087218D02*
X0088075Y0087218D01*
X0090768Y0086800D02*
X0087018Y0083050D01*
X0087018Y0061800D01*
X0083218Y0060043D02*
X0080818Y0060043D01*
X0080736Y0058445D02*
X0083301Y0058445D01*
X0084198Y0056846D02*
X0079839Y0056846D01*
X0089839Y0056846D02*
X0094198Y0056846D01*
X0093301Y0058445D02*
X0090736Y0058445D01*
X0090818Y0060043D02*
X0093218Y0060043D01*
X0099839Y0056846D02*
X0104198Y0056846D01*
X0103301Y0058445D02*
X0100736Y0058445D01*
X0100818Y0060043D02*
X0103218Y0060043D01*
X0103218Y0061642D02*
X0100818Y0061642D01*
X0100818Y0063240D02*
X0103218Y0063240D01*
X0103218Y0064839D02*
X0100818Y0064839D01*
X0100155Y0066437D02*
X0103882Y0066437D01*
X0105376Y0068036D02*
X0099218Y0068036D01*
X0099218Y0069634D02*
X0105521Y0069634D01*
X0105667Y0071233D02*
X0099218Y0071233D01*
X0099218Y0072832D02*
X0105812Y0072832D01*
X0105957Y0074430D02*
X0099218Y0074430D01*
X0099218Y0076029D02*
X0106068Y0076029D01*
X0107234Y0077627D02*
X0099218Y0077627D01*
X0100055Y0079226D02*
X0108832Y0079226D01*
X0110431Y0080824D02*
X0101653Y0080824D01*
X0108268Y0075550D02*
X0112018Y0079300D01*
X0157018Y0079300D01*
X0158605Y0080824D02*
X0167383Y0080824D01*
X0168981Y0079226D02*
X0160204Y0079226D01*
X0161802Y0077627D02*
X0169818Y0077627D01*
X0169818Y0076029D02*
X0163401Y0076029D01*
X0164218Y0074430D02*
X0169818Y0074430D01*
X0169818Y0072832D02*
X0164218Y0072832D01*
X0164218Y0071233D02*
X0169818Y0071233D01*
X0169818Y0069634D02*
X0164218Y0069634D01*
X0164218Y0068036D02*
X0165827Y0068036D01*
X0167018Y0068036D02*
X0167018Y0068036D01*
X0168210Y0068036D02*
X0169818Y0068036D01*
X0167018Y0066437D02*
X0167018Y0066437D01*
X0167018Y0064839D02*
X0167018Y0064839D01*
X0167018Y0063240D02*
X0167018Y0063240D01*
X0167018Y0061642D02*
X0167018Y0061642D01*
X0167018Y0060043D02*
X0167018Y0060043D01*
X0167018Y0058445D02*
X0167018Y0058445D01*
X0167018Y0056846D02*
X0167018Y0056846D01*
X0164218Y0055248D02*
X0169818Y0055248D01*
X0169818Y0053649D02*
X0164218Y0053649D01*
X0165507Y0052051D02*
X0168529Y0052051D01*
X0167825Y0050452D02*
X0166211Y0050452D01*
X0166218Y0048854D02*
X0167818Y0048854D01*
X0197018Y0061800D02*
X0197018Y0065550D01*
X0199518Y0068050D01*
X0210768Y0068050D01*
X0212018Y0066800D01*
X0212018Y0046800D01*
X0202018Y0046800D02*
X0202018Y0056800D01*
X0207018Y0061800D01*
X0196393Y0068036D02*
X0194218Y0068036D01*
X0194218Y0069634D02*
X0197991Y0069634D01*
X0194218Y0071233D02*
X0212608Y0071233D01*
X0212704Y0069634D02*
X0212295Y0069634D01*
X0213551Y0072832D02*
X0194218Y0072832D01*
X0194218Y0074430D02*
X0260406Y0074430D01*
X0262004Y0076029D02*
X0194218Y0076029D01*
X0194218Y0077627D02*
X0230762Y0077627D01*
X0229123Y0079226D02*
X0193954Y0079226D01*
X0192355Y0080824D02*
X0228837Y0080824D01*
X0229392Y0082423D02*
X0190757Y0082423D01*
X0189158Y0084021D02*
X0263628Y0084021D01*
X0265226Y0085620D02*
X0187560Y0085620D01*
X0185961Y0087218D02*
X0266825Y0087218D01*
X0268423Y0088817D02*
X0184363Y0088817D01*
X0182764Y0090415D02*
X0260154Y0090415D01*
X0263882Y0090415D02*
X0270022Y0090415D01*
X0271620Y0092014D02*
X0265032Y0092014D01*
X0265199Y0093612D02*
X0273219Y0093612D01*
X0274518Y0091800D02*
X0282018Y0091800D01*
X0284888Y0090415D02*
X0287792Y0090415D01*
X0289390Y0088817D02*
X0283128Y0088817D01*
X0282651Y0088619D02*
X0283820Y0089103D01*
X0284715Y0089998D01*
X0285199Y0091167D01*
X0285199Y0092433D01*
X0284793Y0093414D01*
X0292357Y0085850D01*
X0312957Y0085850D01*
X0312318Y0085211D01*
X0308607Y0081500D01*
X0304782Y0081500D01*
X0304625Y0081877D01*
X0303345Y0083157D01*
X0301673Y0083850D01*
X0299863Y0083850D01*
X0298191Y0083157D01*
X0296911Y0081877D01*
X0296218Y0080205D01*
X0296218Y0078395D01*
X0296911Y0076723D01*
X0298191Y0075443D01*
X0299863Y0074750D01*
X0301673Y0074750D01*
X0303345Y0075443D01*
X0304625Y0076723D01*
X0304782Y0077100D01*
X0310429Y0077100D01*
X0312318Y0078989D01*
X0312318Y0075211D01*
X0305518Y0068411D01*
X0305518Y0069300D01*
X0305518Y0071268D01*
X0302736Y0074050D01*
X0300768Y0074050D01*
X0298801Y0074050D01*
X0296018Y0071268D01*
X0296018Y0069300D01*
X0300768Y0069300D01*
X0300768Y0069300D01*
X0296018Y0069300D01*
X0296018Y0067332D01*
X0298801Y0064550D01*
X0300768Y0064550D01*
X0300768Y0069300D01*
X0300768Y0074050D01*
X0300768Y0069300D01*
X0300768Y0069300D01*
X0300768Y0069300D01*
X0300768Y0064550D01*
X0301657Y0064550D01*
X0293607Y0056500D01*
X0269857Y0056500D01*
X0268568Y0055211D01*
X0256302Y0042945D01*
X0256310Y0042970D01*
X0256418Y0043654D01*
X0256418Y0046600D01*
X0252218Y0046600D01*
X0252218Y0047000D01*
X0256418Y0047000D01*
X0256418Y0049946D01*
X0256310Y0050630D01*
X0256096Y0051289D01*
X0255781Y0051906D01*
X0255374Y0052466D01*
X0254885Y0052956D01*
X0254324Y0053363D01*
X0253707Y0053678D01*
X0253048Y0053892D01*
X0252364Y0054000D01*
X0252329Y0054000D01*
X0253011Y0054681D01*
X0253125Y0054692D01*
X0253644Y0055315D01*
X0254218Y0055889D01*
X0254218Y0056003D01*
X0254292Y0056092D01*
X0254225Y0056819D01*
X0254866Y0056179D01*
X0256262Y0055600D01*
X0257774Y0055600D01*
X0259171Y0056179D01*
X0260240Y0057247D01*
X0260818Y0058644D01*
X0260818Y0064956D01*
X0260240Y0066353D01*
X0259171Y0067421D01*
X0258860Y0067550D01*
X0261365Y0067550D01*
X0262467Y0068007D01*
X0263311Y0068851D01*
X0277289Y0082828D01*
X0277808Y0082828D01*
X0279268Y0083433D01*
X0280385Y0084550D01*
X0280990Y0086010D01*
X0280990Y0087590D01*
X0280393Y0089030D01*
X0281385Y0088619D01*
X0282651Y0088619D01*
X0280908Y0088817D02*
X0280482Y0088817D01*
X0280990Y0087218D02*
X0290989Y0087218D01*
X0293268Y0088050D02*
X0284518Y0096800D01*
X0189518Y0096800D01*
X0177018Y0109300D01*
X0177018Y0121800D01*
X0173218Y0122385D02*
X0170818Y0122385D01*
X0170818Y0120787D02*
X0173218Y0120787D01*
X0173218Y0119188D02*
X0170818Y0119188D01*
X0170381Y0117590D02*
X0173655Y0117590D01*
X0174818Y0115991D02*
X0170018Y0115991D01*
X0170018Y0114393D02*
X0174818Y0114393D01*
X0174818Y0112794D02*
X0169642Y0112794D01*
X0168157Y0111196D02*
X0174818Y0111196D01*
X0174818Y0109597D02*
X0166558Y0109597D01*
X0164948Y0107999D02*
X0175208Y0107999D01*
X0175529Y0106400D02*
X0176807Y0106400D01*
X0177128Y0104802D02*
X0178405Y0104802D01*
X0178726Y0103203D02*
X0180004Y0103203D01*
X0180325Y0101605D02*
X0181602Y0101605D01*
X0181923Y0100006D02*
X0183201Y0100006D01*
X0183522Y0098408D02*
X0184799Y0098408D01*
X0185120Y0096809D02*
X0186398Y0096809D01*
X0189423Y0100006D02*
X0193201Y0100006D01*
X0191602Y0101605D02*
X0187825Y0101605D01*
X0186226Y0103203D02*
X0190004Y0103203D01*
X0188405Y0104802D02*
X0184628Y0104802D01*
X0183029Y0106400D02*
X0186807Y0106400D01*
X0185208Y0107999D02*
X0181431Y0107999D01*
X0179832Y0109597D02*
X0184818Y0109597D01*
X0184818Y0111196D02*
X0179218Y0111196D01*
X0179218Y0112794D02*
X0184818Y0112794D01*
X0184818Y0114393D02*
X0179218Y0114393D01*
X0179218Y0115991D02*
X0184818Y0115991D01*
X0183655Y0117590D02*
X0180381Y0117590D01*
X0180818Y0119188D02*
X0183218Y0119188D01*
X0183218Y0120787D02*
X0180818Y0120787D01*
X0180818Y0122385D02*
X0183218Y0122385D01*
X0183218Y0123984D02*
X0180818Y0123984D01*
X0180559Y0125582D02*
X0183478Y0125582D01*
X0184625Y0127181D02*
X0179411Y0127181D01*
X0174625Y0127181D02*
X0169411Y0127181D01*
X0170559Y0125582D02*
X0173478Y0125582D01*
X0173218Y0123984D02*
X0170818Y0123984D01*
X0164625Y0127181D02*
X0159694Y0127181D01*
X0159568Y0127307D02*
X0158913Y0127745D01*
X0158185Y0128046D01*
X0157412Y0128200D01*
X0157018Y0128200D01*
X0156624Y0128200D01*
X0156506Y0128176D01*
X0164179Y0135850D01*
X0165844Y0135850D01*
X0166866Y0134829D01*
X0168262Y0134250D01*
X0169774Y0134250D01*
X0171171Y0134829D01*
X0172192Y0135850D01*
X0186344Y0135850D01*
X0187944Y0134250D01*
X0191092Y0134250D01*
X0193318Y0136476D01*
X0193318Y0139624D01*
X0191092Y0141850D01*
X0187944Y0141850D01*
X0186344Y0140250D01*
X0172192Y0140250D01*
X0171171Y0141271D01*
X0169774Y0141850D01*
X0168262Y0141850D01*
X0166866Y0141271D01*
X0165844Y0140250D01*
X0162357Y0140250D01*
X0161068Y0138961D01*
X0149349Y0127243D01*
X0149171Y0127421D01*
X0147774Y0128000D01*
X0146262Y0128000D01*
X0144866Y0127421D01*
X0143797Y0126353D01*
X0143218Y0124956D01*
X0143218Y0118644D01*
X0143797Y0117247D01*
X0144866Y0116179D01*
X0146262Y0115600D01*
X0147774Y0115600D01*
X0149171Y0116179D01*
X0150240Y0117247D01*
X0150818Y0118644D01*
X0150818Y0122489D01*
X0153042Y0124712D01*
X0153018Y0124594D01*
X0153018Y0121800D01*
X0157018Y0121800D01*
X0157018Y0121800D01*
X0153018Y0121800D01*
X0153018Y0119006D01*
X0153172Y0118233D01*
X0153473Y0117505D01*
X0153911Y0116850D01*
X0154468Y0116293D01*
X0155123Y0115855D01*
X0155851Y0115554D01*
X0156624Y0115400D01*
X0157018Y0115400D01*
X0157018Y0121800D01*
X0157018Y0128200D01*
X0157018Y0121800D01*
X0157018Y0121800D01*
X0157018Y0121800D01*
X0157018Y0115400D01*
X0157412Y0115400D01*
X0158185Y0115554D01*
X0158913Y0115855D01*
X0159568Y0116293D01*
X0160125Y0116850D01*
X0160563Y0117505D01*
X0160864Y0118233D01*
X0161018Y0119006D01*
X0161018Y0121800D01*
X0161018Y0124594D01*
X0160864Y0125367D01*
X0160563Y0126095D01*
X0160125Y0126750D01*
X0159568Y0127307D01*
X0160775Y0125582D02*
X0163478Y0125582D01*
X0163218Y0123984D02*
X0161018Y0123984D01*
X0161018Y0122385D02*
X0163218Y0122385D01*
X0163218Y0120787D02*
X0161018Y0120787D01*
X0161018Y0121800D02*
X0157018Y0121800D01*
X0161018Y0121800D01*
X0157018Y0121800D02*
X0157018Y0121800D01*
X0157018Y0122385D02*
X0157018Y0122385D01*
X0157018Y0120787D02*
X0157018Y0120787D01*
X0157018Y0119188D02*
X0157018Y0119188D01*
X0157018Y0117590D02*
X0157018Y0117590D01*
X0157018Y0115991D02*
X0157018Y0115991D01*
X0154920Y0115991D02*
X0148719Y0115991D01*
X0150381Y0117590D02*
X0153438Y0117590D01*
X0153018Y0119188D02*
X0150818Y0119188D01*
X0150818Y0120787D02*
X0153018Y0120787D01*
X0153018Y0122385D02*
X0150818Y0122385D01*
X0152313Y0123984D02*
X0153018Y0123984D01*
X0157018Y0123984D02*
X0157018Y0123984D01*
X0157018Y0125582D02*
X0157018Y0125582D01*
X0157018Y0127181D02*
X0157018Y0127181D01*
X0157109Y0128779D02*
X0221808Y0128779D01*
X0221821Y0128748D02*
X0222716Y0127853D01*
X0223885Y0127369D01*
X0224813Y0127369D01*
X0223797Y0126353D01*
X0223218Y0124956D01*
X0223218Y0118644D01*
X0223797Y0117247D01*
X0224866Y0116179D01*
X0226262Y0115600D01*
X0227774Y0115600D01*
X0229171Y0116179D01*
X0230240Y0117247D01*
X0230818Y0118644D01*
X0230818Y0124956D01*
X0230240Y0126353D01*
X0229171Y0127421D01*
X0227774Y0128000D01*
X0226467Y0128000D01*
X0226817Y0128350D01*
X0271679Y0128350D01*
X0276178Y0132849D01*
X0276228Y0132828D01*
X0277808Y0132828D01*
X0279268Y0133433D01*
X0280385Y0134550D01*
X0280990Y0136010D01*
X0280990Y0137590D01*
X0280385Y0139050D01*
X0279268Y0140167D01*
X0277808Y0140772D01*
X0276228Y0140772D01*
X0274768Y0140167D01*
X0273651Y0139050D01*
X0273046Y0137590D01*
X0273046Y0136010D01*
X0273067Y0135960D01*
X0269857Y0132750D01*
X0226817Y0132750D01*
X0226320Y0133247D01*
X0225151Y0133731D01*
X0223885Y0133731D01*
X0222716Y0133247D01*
X0221821Y0132352D01*
X0221337Y0131183D01*
X0221337Y0129917D01*
X0221821Y0128748D01*
X0221337Y0130378D02*
X0158707Y0130378D01*
X0160306Y0131976D02*
X0221666Y0131976D01*
X0223508Y0133575D02*
X0161904Y0133575D01*
X0163503Y0135173D02*
X0166521Y0135173D01*
X0169018Y0138050D02*
X0163268Y0138050D01*
X0147018Y0121800D01*
X0143218Y0122385D02*
X0140818Y0122385D01*
X0140818Y0120787D02*
X0143218Y0120787D01*
X0143218Y0119188D02*
X0140818Y0119188D01*
X0140818Y0118644D02*
X0140240Y0117247D01*
X0139171Y0116179D01*
X0137774Y0115600D01*
X0136262Y0115600D01*
X0134866Y0116179D01*
X0133797Y0117247D01*
X0133218Y0118644D01*
X0133218Y0124956D01*
X0133797Y0126353D01*
X0134818Y0127374D01*
X0134818Y0135850D01*
X0132692Y0135850D01*
X0131092Y0134250D01*
X0127944Y0134250D01*
X0125718Y0136476D01*
X0125718Y0139624D01*
X0127944Y0141850D01*
X0131092Y0141850D01*
X0132692Y0140250D01*
X0146844Y0140250D01*
X0147866Y0141271D01*
X0149262Y0141850D01*
X0150774Y0141850D01*
X0152171Y0141271D01*
X0153240Y0140203D01*
X0153818Y0138806D01*
X0153818Y0137294D01*
X0153240Y0135897D01*
X0152171Y0134829D01*
X0150774Y0134250D01*
X0149262Y0134250D01*
X0147866Y0134829D01*
X0146844Y0135850D01*
X0139218Y0135850D01*
X0139218Y0127374D01*
X0140240Y0126353D01*
X0140818Y0124956D01*
X0140818Y0118644D01*
X0140381Y0117590D02*
X0143655Y0117590D01*
X0145317Y0115991D02*
X0138719Y0115991D01*
X0135317Y0115991D02*
X0128719Y0115991D01*
X0130381Y0117590D02*
X0133655Y0117590D01*
X0133218Y0119188D02*
X0130818Y0119188D01*
X0130818Y0120787D02*
X0133218Y0120787D01*
X0133218Y0122385D02*
X0130818Y0122385D01*
X0130818Y0123984D02*
X0133218Y0123984D01*
X0133478Y0125582D02*
X0130559Y0125582D01*
X0129411Y0127181D02*
X0134625Y0127181D01*
X0134818Y0128779D02*
X0128150Y0128779D01*
X0126551Y0130378D02*
X0134818Y0130378D01*
X0134818Y0131976D02*
X0124953Y0131976D01*
X0123354Y0133575D02*
X0134818Y0133575D01*
X0134818Y0135173D02*
X0132016Y0135173D01*
X0127021Y0135173D02*
X0122298Y0135173D01*
X0121175Y0134050D02*
X0123518Y0136393D01*
X0123518Y0138050D01*
X0123518Y0139707D01*
X0121175Y0142050D01*
X0119518Y0142050D01*
X0117861Y0142050D01*
X0115518Y0139707D01*
X0115518Y0138050D01*
X0119518Y0138050D01*
X0119518Y0138050D01*
X0115518Y0138050D01*
X0115518Y0136393D01*
X0117861Y0134050D01*
X0119518Y0134050D01*
X0119518Y0138050D01*
X0119518Y0142050D01*
X0119518Y0138050D01*
X0119518Y0138050D01*
X0119518Y0138050D01*
X0119518Y0134050D01*
X0121175Y0134050D01*
X0119518Y0135173D02*
X0119518Y0135173D01*
X0119518Y0136772D02*
X0119518Y0136772D01*
X0119518Y0138050D02*
X0119518Y0138050D01*
X0123518Y0138050D01*
X0119518Y0138050D01*
X0119518Y0138370D02*
X0119518Y0138370D01*
X0119518Y0139969D02*
X0119518Y0139969D01*
X0119518Y0141568D02*
X0119518Y0141568D01*
X0117379Y0141568D02*
X0102468Y0141568D01*
X0102468Y0143166D02*
X0304217Y0143166D01*
X0304121Y0143070D02*
X0303443Y0142392D01*
X0303443Y0139916D01*
X0303807Y0139553D01*
X0303443Y0139189D01*
X0303443Y0136713D01*
X0304141Y0136016D01*
X0304439Y0135718D01*
X0304439Y0135718D01*
X0304809Y0135348D01*
X0305507Y0134650D01*
X0310118Y0134650D01*
X0311035Y0135567D01*
X0311255Y0135348D01*
X0311952Y0134650D01*
X0315496Y0134650D01*
X0316947Y0136101D01*
X0317012Y0136036D01*
X0317330Y0135718D01*
X0317330Y0135718D01*
X0317720Y0135328D01*
X0318398Y0134650D01*
X0321941Y0134650D01*
X0322858Y0135567D01*
X0323776Y0134650D01*
X0329454Y0134650D01*
X0330372Y0135567D01*
X0330611Y0135328D01*
X0331289Y0134650D01*
X0335900Y0134650D01*
X0336817Y0135567D01*
X0337056Y0135328D01*
X0337734Y0134650D01*
X0341278Y0134650D01*
X0342195Y0135567D01*
X0343112Y0134650D01*
X0348791Y0134650D01*
X0349708Y0135567D01*
X0349947Y0135328D01*
X0350625Y0134650D01*
X0354169Y0134650D01*
X0355165Y0135646D01*
X0356232Y0136713D01*
X0356232Y0142392D01*
X0355236Y0143388D01*
X0354169Y0144455D01*
X0350625Y0144455D01*
X0349927Y0143758D01*
X0349708Y0143538D01*
X0348791Y0144455D01*
X0347383Y0144455D01*
X0346387Y0143460D01*
X0346387Y0138050D01*
X0343341Y0138050D01*
X0343341Y0142392D01*
X0342345Y0143388D01*
X0341278Y0144455D01*
X0337734Y0144455D01*
X0337037Y0143758D01*
X0336817Y0143538D01*
X0335900Y0144455D01*
X0331289Y0144455D01*
X0330591Y0143758D01*
X0330221Y0143388D01*
X0329923Y0143090D01*
X0329838Y0143004D01*
X0328387Y0144455D01*
X0324843Y0144455D01*
X0324146Y0143758D01*
X0323926Y0143538D01*
X0323009Y0144455D01*
X0321601Y0144455D01*
X0320605Y0143460D01*
X0320605Y0138122D01*
X0320533Y0138050D01*
X0319806Y0138050D01*
X0319734Y0138122D01*
X0319734Y0143460D01*
X0318739Y0144455D01*
X0317330Y0144455D01*
X0316413Y0143538D01*
X0315496Y0144455D01*
X0311952Y0144455D01*
X0311255Y0143758D01*
X0311035Y0143538D01*
X0310118Y0144455D01*
X0305507Y0144455D01*
X0304829Y0143778D01*
X0304439Y0143388D01*
X0304121Y0143070D01*
X0304439Y0143388D02*
X0304439Y0143388D01*
X0303443Y0141568D02*
X0250125Y0141568D01*
X0249842Y0141850D02*
X0252068Y0139624D01*
X0252068Y0136476D01*
X0249842Y0134250D01*
X0246694Y0134250D01*
X0244468Y0136476D01*
X0244468Y0139624D01*
X0246694Y0141850D01*
X0249842Y0141850D01*
X0251723Y0139969D02*
X0274570Y0139969D01*
X0273370Y0138370D02*
X0252068Y0138370D01*
X0252068Y0136772D02*
X0273046Y0136772D01*
X0272280Y0135173D02*
X0250766Y0135173D01*
X0245771Y0135173D02*
X0231048Y0135173D01*
X0229925Y0134050D02*
X0232268Y0136393D01*
X0232268Y0138050D01*
X0232268Y0139707D01*
X0229925Y0142050D01*
X0228268Y0142050D01*
X0226611Y0142050D01*
X0224268Y0139707D01*
X0224268Y0138050D01*
X0228268Y0138050D01*
X0228268Y0138050D01*
X0224268Y0138050D01*
X0224268Y0136393D01*
X0226611Y0134050D01*
X0228268Y0134050D01*
X0228268Y0138050D01*
X0228268Y0142050D01*
X0228268Y0138050D01*
X0228268Y0138050D01*
X0228268Y0138050D01*
X0228268Y0134050D01*
X0229925Y0134050D01*
X0228268Y0135173D02*
X0228268Y0135173D01*
X0228268Y0136772D02*
X0228268Y0136772D01*
X0228268Y0138050D02*
X0228268Y0138050D01*
X0232268Y0138050D01*
X0228268Y0138050D01*
X0228268Y0138370D02*
X0228268Y0138370D01*
X0228268Y0139969D02*
X0228268Y0139969D01*
X0228268Y0141568D02*
X0228268Y0141568D01*
X0226129Y0141568D02*
X0201657Y0141568D01*
X0201175Y0142050D02*
X0199518Y0142050D01*
X0197861Y0142050D01*
X0195518Y0139707D01*
X0195518Y0138050D01*
X0199518Y0138050D01*
X0199518Y0138050D01*
X0195518Y0138050D01*
X0195518Y0136393D01*
X0197861Y0134050D01*
X0199518Y0134050D01*
X0199518Y0138050D01*
X0199518Y0142050D01*
X0199518Y0138050D01*
X0199518Y0138050D01*
X0199518Y0138050D01*
X0199518Y0134050D01*
X0201175Y0134050D01*
X0203518Y0136393D01*
X0203518Y0138050D01*
X0203518Y0139707D01*
X0201175Y0142050D01*
X0199518Y0141568D02*
X0199518Y0141568D01*
X0199518Y0139969D02*
X0199518Y0139969D01*
X0199518Y0138370D02*
X0199518Y0138370D01*
X0199518Y0138050D02*
X0203518Y0138050D01*
X0199518Y0138050D01*
X0199518Y0138050D01*
X0199518Y0136772D02*
X0199518Y0136772D01*
X0199518Y0135173D02*
X0199518Y0135173D01*
X0196738Y0135173D02*
X0192016Y0135173D01*
X0193318Y0136772D02*
X0195518Y0136772D01*
X0195518Y0138370D02*
X0193318Y0138370D01*
X0192973Y0139969D02*
X0195780Y0139969D01*
X0197379Y0141568D02*
X0191375Y0141568D01*
X0187662Y0141568D02*
X0170456Y0141568D01*
X0167580Y0141568D02*
X0151456Y0141568D01*
X0153336Y0139969D02*
X0162076Y0139969D01*
X0161068Y0138961D02*
X0161068Y0138961D01*
X0160477Y0138370D02*
X0153818Y0138370D01*
X0153602Y0136772D02*
X0158879Y0136772D01*
X0157280Y0135173D02*
X0152516Y0135173D01*
X0155682Y0133575D02*
X0139218Y0133575D01*
X0139218Y0135173D02*
X0147521Y0135173D01*
X0150018Y0138050D02*
X0137018Y0138050D01*
X0137018Y0121800D01*
X0140818Y0123984D02*
X0143218Y0123984D01*
X0143478Y0125582D02*
X0140559Y0125582D01*
X0139411Y0127181D02*
X0144625Y0127181D01*
X0139218Y0128779D02*
X0150886Y0128779D01*
X0152485Y0130378D02*
X0139218Y0130378D01*
X0139218Y0131976D02*
X0154083Y0131976D01*
X0150768Y0138050D02*
X0150018Y0138050D01*
X0148580Y0141568D02*
X0131375Y0141568D01*
X0127662Y0141568D02*
X0121657Y0141568D01*
X0123256Y0139969D02*
X0126063Y0139969D01*
X0125718Y0138370D02*
X0123518Y0138370D01*
X0123518Y0136772D02*
X0125718Y0136772D01*
X0129518Y0138050D02*
X0137018Y0138050D01*
X0127018Y0126800D02*
X0122018Y0131800D01*
X0082018Y0131800D01*
X0078268Y0135550D01*
X0078268Y0140550D01*
X0082468Y0139969D02*
X0083868Y0139969D01*
X0083868Y0140350D02*
X0083868Y0137404D01*
X0083976Y0136720D01*
X0084190Y0136061D01*
X0084505Y0135444D01*
X0084912Y0134884D01*
X0085402Y0134394D01*
X0085944Y0134000D01*
X0082929Y0134000D01*
X0081694Y0135236D01*
X0081829Y0135371D01*
X0082468Y0136915D01*
X0082468Y0144185D01*
X0081829Y0145729D01*
X0081707Y0145850D01*
X0084646Y0145850D01*
X0084505Y0145656D01*
X0084190Y0145039D01*
X0083976Y0144380D01*
X0083868Y0143696D01*
X0083868Y0140750D01*
X0088068Y0140750D01*
X0088068Y0140350D01*
X0083868Y0140350D01*
X0083868Y0141568D02*
X0082468Y0141568D01*
X0082468Y0143166D02*
X0083868Y0143166D01*
X0084101Y0144765D02*
X0082228Y0144765D01*
X0088468Y0140750D02*
X0092668Y0140750D01*
X0092668Y0143696D01*
X0092560Y0144380D01*
X0092346Y0145039D01*
X0092031Y0145656D01*
X0091890Y0145850D01*
X0094829Y0145850D01*
X0094708Y0145729D01*
X0094068Y0144185D01*
X0094068Y0136915D01*
X0094708Y0135371D01*
X0095889Y0134189D01*
X0096346Y0134000D01*
X0090592Y0134000D01*
X0091135Y0134394D01*
X0091624Y0134884D01*
X0092031Y0135444D01*
X0092346Y0136061D01*
X0092560Y0136720D01*
X0092668Y0137404D01*
X0092668Y0140350D01*
X0088468Y0140350D01*
X0088468Y0140750D01*
X0092668Y0139969D02*
X0094068Y0139969D01*
X0094068Y0138370D02*
X0092668Y0138370D01*
X0092568Y0136772D02*
X0094127Y0136772D01*
X0094905Y0135173D02*
X0091835Y0135173D01*
X0084701Y0135173D02*
X0081756Y0135173D01*
X0082409Y0136772D02*
X0083968Y0136772D01*
X0083868Y0138370D02*
X0082468Y0138370D01*
X0077018Y0129300D02*
X0068268Y0138050D01*
X0068268Y0140550D01*
X0064068Y0139969D02*
X0054494Y0139969D01*
X0055634Y0141568D02*
X0064068Y0141568D01*
X0064068Y0143166D02*
X0055918Y0143166D01*
X0055918Y0143050D02*
X0049518Y0143050D01*
X0049518Y0143050D01*
X0055918Y0143050D01*
X0055537Y0144765D02*
X0064308Y0144765D01*
X0049518Y0141568D02*
X0049518Y0141568D01*
X0049518Y0139969D02*
X0049518Y0139969D01*
X0047944Y0136850D02*
X0045718Y0134624D01*
X0045718Y0131476D01*
X0047944Y0129250D01*
X0051092Y0129250D01*
X0053318Y0131476D01*
X0053318Y0134624D01*
X0051092Y0136850D01*
X0047944Y0136850D01*
X0047866Y0136772D02*
X0011718Y0136772D01*
X0011718Y0138370D02*
X0064068Y0138370D01*
X0064127Y0136772D02*
X0051170Y0136772D01*
X0052769Y0135173D02*
X0064905Y0135173D01*
X0067372Y0133575D02*
X0053318Y0133575D01*
X0053318Y0131976D02*
X0071230Y0131976D01*
X0072829Y0130378D02*
X0052220Y0130378D01*
X0046816Y0130378D02*
X0042801Y0130378D01*
X0041203Y0131976D02*
X0045718Y0131976D01*
X0045718Y0133575D02*
X0039604Y0133575D01*
X0038006Y0135173D02*
X0046268Y0135173D01*
X0044542Y0139969D02*
X0014211Y0139969D01*
X0015417Y0141568D02*
X0043403Y0141568D01*
X0043118Y0143166D02*
X0015718Y0143166D01*
X0015321Y0144765D02*
X0043499Y0144765D01*
X0037018Y0133050D02*
X0009518Y0133050D01*
X0009518Y0143050D01*
X0007318Y0138370D02*
X0004838Y0138370D01*
X0004838Y0136772D02*
X0007318Y0136772D01*
X0006268Y0135173D02*
X0004838Y0135173D01*
X0004838Y0133575D02*
X0005718Y0133575D01*
X0005718Y0131976D02*
X0004838Y0131976D01*
X0004838Y0130378D02*
X0006816Y0130378D01*
X0004838Y0128779D02*
X0038177Y0128779D01*
X0036579Y0130378D02*
X0012220Y0130378D01*
X0015574Y0125582D02*
X0015943Y0125582D01*
X0015943Y0123984D02*
X0015574Y0123984D01*
X0015574Y0120787D02*
X0015943Y0120787D01*
X0015943Y0119188D02*
X0015574Y0119188D01*
X0009967Y0119188D02*
X0004838Y0119188D01*
X0004838Y0117590D02*
X0034114Y0117590D01*
X0032448Y0115991D02*
X0004838Y0115991D01*
X0004838Y0114393D02*
X0029275Y0114393D01*
X0030916Y0111200D02*
X0017668Y0111200D01*
X0008268Y0101800D01*
X0008268Y0089300D01*
X0009518Y0088050D01*
X0009518Y0083050D01*
X0009518Y0071800D01*
X0009518Y0061800D01*
X0005288Y0058445D02*
X0004838Y0058445D01*
X0004838Y0053649D02*
X0011556Y0053649D01*
X0009958Y0052051D02*
X0004838Y0052051D01*
X0004838Y0050452D02*
X0009108Y0050452D01*
X0008446Y0048854D02*
X0004838Y0048854D01*
X0004838Y0047255D02*
X0008313Y0047255D01*
X0008313Y0045657D02*
X0004838Y0045657D01*
X0004838Y0044058D02*
X0008731Y0044058D01*
X0009393Y0042460D02*
X0004838Y0042460D01*
X0004838Y0040861D02*
X0010645Y0040861D01*
X0012466Y0039263D02*
X0004838Y0039263D01*
X0004838Y0037664D02*
X0008521Y0037664D01*
X0006923Y0036066D02*
X0004838Y0036066D01*
X0004838Y0034467D02*
X0005324Y0034467D01*
X0007018Y0033050D02*
X0010768Y0036800D01*
X0029518Y0036800D01*
X0014568Y0027124D02*
X0013942Y0027750D01*
X0047594Y0027750D01*
X0046968Y0027124D01*
X0046968Y0024861D01*
X0037707Y0015600D01*
X0035444Y0015600D01*
X0033218Y0013374D01*
X0033218Y0010226D01*
X0035444Y0008000D01*
X0038592Y0008000D01*
X0040818Y0010226D01*
X0040818Y0012489D01*
X0050080Y0021750D01*
X0052342Y0021750D01*
X0054568Y0023976D01*
X0054568Y0027124D01*
X0053942Y0027750D01*
X0057524Y0027750D01*
X0057340Y0027389D01*
X0057126Y0026730D01*
X0057018Y0026046D01*
X0057018Y0025900D01*
X0064018Y0025900D01*
X0064018Y0025500D01*
X0057018Y0025500D01*
X0057018Y0025354D01*
X0057126Y0024670D01*
X0057340Y0024011D01*
X0057655Y0023394D01*
X0058062Y0022834D01*
X0058552Y0022344D01*
X0059112Y0021937D01*
X0059729Y0021622D01*
X0060388Y0021408D01*
X0061072Y0021300D01*
X0064018Y0021300D01*
X0064018Y0025500D01*
X0064418Y0025500D01*
X0064418Y0021300D01*
X0067364Y0021300D01*
X0068048Y0021408D01*
X0068707Y0021622D01*
X0069324Y0021937D01*
X0069885Y0022344D01*
X0070374Y0022834D01*
X0070781Y0023394D01*
X0071096Y0024011D01*
X0071310Y0024670D01*
X0071418Y0025354D01*
X0071418Y0025500D01*
X0064418Y0025500D01*
X0064418Y0025900D01*
X0071418Y0025900D01*
X0071418Y0026046D01*
X0071310Y0026730D01*
X0071096Y0027389D01*
X0070912Y0027750D01*
X0083124Y0027750D01*
X0082940Y0027389D01*
X0082726Y0026730D01*
X0082618Y0026046D01*
X0082618Y0025900D01*
X0089618Y0025900D01*
X0089618Y0025500D01*
X0082618Y0025500D01*
X0082618Y0025354D01*
X0082726Y0024670D01*
X0082940Y0024011D01*
X0083255Y0023394D01*
X0083662Y0022834D01*
X0084152Y0022344D01*
X0084712Y0021937D01*
X0085329Y0021622D01*
X0085988Y0021408D01*
X0086672Y0021300D01*
X0089618Y0021300D01*
X0089618Y0025500D01*
X0090018Y0025500D01*
X0090018Y0021300D01*
X0092964Y0021300D01*
X0093648Y0021408D01*
X0094307Y0021622D01*
X0094924Y0021937D01*
X0095485Y0022344D01*
X0095974Y0022834D01*
X0096381Y0023394D01*
X0096696Y0024011D01*
X0096910Y0024670D01*
X0097018Y0025354D01*
X0097018Y0025500D01*
X0090018Y0025500D01*
X0090018Y0025900D01*
X0097018Y0025900D01*
X0097018Y0026046D01*
X0096910Y0026730D01*
X0096696Y0027389D01*
X0096512Y0027750D01*
X0116325Y0027750D01*
X0117354Y0028176D01*
X0118142Y0028964D01*
X0118568Y0029993D01*
X0118568Y0033607D01*
X0118416Y0033975D01*
X0131871Y0033975D01*
X0131718Y0033607D01*
X0131718Y0029993D01*
X0132144Y0028964D01*
X0132843Y0028265D01*
X0132655Y0028006D01*
X0132340Y0027389D01*
X0132126Y0026730D01*
X0132018Y0026046D01*
X0132018Y0025900D01*
X0139018Y0025900D01*
X0139018Y0025500D01*
X0132018Y0025500D01*
X0132018Y0025354D01*
X0132126Y0024670D01*
X0132340Y0024011D01*
X0132655Y0023394D01*
X0133062Y0022834D01*
X0133552Y0022344D01*
X0134112Y0021937D01*
X0134729Y0021622D01*
X0135388Y0021408D01*
X0136072Y0021300D01*
X0139018Y0021300D01*
X0139018Y0025500D01*
X0139418Y0025500D01*
X0139418Y0021300D01*
X0142364Y0021300D01*
X0143048Y0021408D01*
X0143707Y0021622D01*
X0144324Y0021937D01*
X0144885Y0022344D01*
X0145374Y0022834D01*
X0145781Y0023394D01*
X0146096Y0024011D01*
X0146310Y0024670D01*
X0146418Y0025354D01*
X0146418Y0025500D01*
X0139418Y0025500D01*
X0139418Y0025900D01*
X0146418Y0025900D01*
X0146418Y0026046D01*
X0146310Y0026730D01*
X0146096Y0027389D01*
X0145912Y0027750D01*
X0158124Y0027750D01*
X0157940Y0027389D01*
X0157726Y0026730D01*
X0157618Y0026046D01*
X0157618Y0025900D01*
X0164618Y0025900D01*
X0164618Y0025500D01*
X0157618Y0025500D01*
X0157618Y0025354D01*
X0157726Y0024670D01*
X0157940Y0024011D01*
X0158255Y0023394D01*
X0158662Y0022834D01*
X0159152Y0022344D01*
X0159712Y0021937D01*
X0160329Y0021622D01*
X0160988Y0021408D01*
X0161672Y0021300D01*
X0164618Y0021300D01*
X0164618Y0025500D01*
X0165018Y0025500D01*
X0165018Y0021300D01*
X0167964Y0021300D01*
X0168648Y0021408D01*
X0169307Y0021622D01*
X0169924Y0021937D01*
X0170485Y0022344D01*
X0170974Y0022834D01*
X0171381Y0023394D01*
X0171696Y0024011D01*
X0171910Y0024670D01*
X0172018Y0025354D01*
X0172018Y0025500D01*
X0165018Y0025500D01*
X0165018Y0025900D01*
X0172018Y0025900D01*
X0172018Y0026046D01*
X0171910Y0026730D01*
X0171696Y0027389D01*
X0171512Y0027750D01*
X0207524Y0027750D01*
X0207340Y0027389D01*
X0207126Y0026730D01*
X0207018Y0026046D01*
X0207018Y0025900D01*
X0214018Y0025900D01*
X0214018Y0025500D01*
X0207018Y0025500D01*
X0207018Y0025354D01*
X0207126Y0024670D01*
X0207340Y0024011D01*
X0207655Y0023394D01*
X0208062Y0022834D01*
X0208552Y0022344D01*
X0209112Y0021937D01*
X0209729Y0021622D01*
X0210106Y0021500D01*
X0194857Y0021500D01*
X0193568Y0020211D01*
X0188607Y0015250D01*
X0126107Y0015250D01*
X0124818Y0013961D01*
X0120957Y0010100D01*
X0096253Y0010100D01*
X0096179Y0010279D01*
X0094997Y0011461D01*
X0093454Y0012100D01*
X0086183Y0012100D01*
X0084639Y0011461D01*
X0083458Y0010279D01*
X0083383Y0010100D01*
X0070653Y0010100D01*
X0070579Y0010279D01*
X0069397Y0011461D01*
X0067854Y0012100D01*
X0060583Y0012100D01*
X0059039Y0011461D01*
X0057858Y0010279D01*
X0057218Y0008735D01*
X0057218Y0007065D01*
X0057858Y0005521D01*
X0059039Y0004339D01*
X0059859Y0004000D01*
X0004838Y0004000D01*
X0004838Y0028369D01*
X0006107Y0027100D01*
X0006968Y0026239D01*
X0006968Y0023976D01*
X0009194Y0021750D01*
X0012342Y0021750D01*
X0014568Y0023976D01*
X0014568Y0027124D01*
X0014568Y0026475D02*
X0046968Y0026475D01*
X0046968Y0024876D02*
X0014568Y0024876D01*
X0013870Y0023278D02*
X0045385Y0023278D01*
X0043786Y0021679D02*
X0004838Y0021679D01*
X0004838Y0020081D02*
X0042188Y0020081D01*
X0040589Y0018482D02*
X0004838Y0018482D01*
X0004838Y0016884D02*
X0038991Y0016884D01*
X0035129Y0015285D02*
X0028907Y0015285D01*
X0028592Y0015600D02*
X0025444Y0015600D01*
X0023218Y0013374D01*
X0023218Y0010226D01*
X0025444Y0008000D01*
X0028592Y0008000D01*
X0030818Y0010226D01*
X0030818Y0013374D01*
X0028592Y0015600D01*
X0030505Y0013687D02*
X0033531Y0013687D01*
X0033218Y0012088D02*
X0030818Y0012088D01*
X0030818Y0010490D02*
X0033218Y0010490D01*
X0034553Y0008891D02*
X0029483Y0008891D01*
X0024553Y0008891D02*
X0004838Y0008891D01*
X0004838Y0007293D02*
X0057218Y0007293D01*
X0057283Y0008891D02*
X0039483Y0008891D01*
X0040818Y0010490D02*
X0058068Y0010490D01*
X0060554Y0012088D02*
X0040818Y0012088D01*
X0042016Y0013687D02*
X0124543Y0013687D01*
X0122945Y0012088D02*
X0093482Y0012088D01*
X0095968Y0010490D02*
X0121346Y0010490D01*
X0121868Y0007900D02*
X0127018Y0013050D01*
X0189518Y0013050D01*
X0195768Y0019300D01*
X0244518Y0019300D01*
X0249518Y0024300D01*
X0255768Y0024300D01*
X0258268Y0026800D01*
X0258268Y0033050D01*
X0267018Y0041800D01*
X0270768Y0041800D01*
X0273822Y0040861D02*
X0299846Y0040861D01*
X0301444Y0039263D02*
X0272730Y0039263D01*
X0268807Y0039263D02*
X0267592Y0039263D01*
X0265994Y0037664D02*
X0374159Y0037664D01*
X0374159Y0036066D02*
X0264395Y0036066D01*
X0256082Y0033975D02*
X0256068Y0033961D01*
X0256068Y0027711D01*
X0254857Y0026500D01*
X0248607Y0026500D01*
X0247318Y0025211D01*
X0246935Y0024828D01*
X0247018Y0025354D01*
X0247018Y0025500D01*
X0240018Y0025500D01*
X0240018Y0025900D01*
X0247018Y0025900D01*
X0247018Y0026046D01*
X0246910Y0026730D01*
X0246696Y0027389D01*
X0246381Y0028006D01*
X0246193Y0028265D01*
X0246892Y0028964D01*
X0247318Y0029993D01*
X0247318Y0033607D01*
X0247166Y0033975D01*
X0256082Y0033975D01*
X0256068Y0032869D02*
X0247318Y0032869D01*
X0247318Y0031270D02*
X0256068Y0031270D01*
X0256068Y0029672D02*
X0247185Y0029672D01*
X0246333Y0028073D02*
X0256068Y0028073D01*
X0260468Y0028073D02*
X0261931Y0028073D01*
X0260468Y0026475D02*
X0282086Y0026475D01*
X0282094Y0024876D02*
X0259456Y0024876D01*
X0258652Y0023278D02*
X0282739Y0023278D01*
X0284618Y0021679D02*
X0260250Y0021679D01*
X0260468Y0020081D02*
X0374159Y0020081D01*
X0374159Y0021679D02*
X0319419Y0021679D01*
X0321297Y0023278D02*
X0374159Y0023278D01*
X0374159Y0024876D02*
X0321942Y0024876D01*
X0321950Y0026475D02*
X0374159Y0026475D01*
X0374159Y0028073D02*
X0368355Y0028073D01*
X0369685Y0029672D02*
X0374159Y0029672D01*
X0374159Y0031270D02*
X0369818Y0031270D01*
X0369818Y0032869D02*
X0374159Y0032869D01*
X0374159Y0034467D02*
X0369462Y0034467D01*
X0366250Y0038094D02*
X0362786Y0038094D01*
X0359587Y0039420D01*
X0357138Y0041869D01*
X0355813Y0045068D01*
X0355813Y0048532D01*
X0357138Y0051731D01*
X0359587Y0054180D01*
X0362786Y0055505D01*
X0366250Y0055505D01*
X0369449Y0054180D01*
X0371898Y0051731D01*
X0373224Y0048532D01*
X0373224Y0045068D01*
X0371898Y0041869D01*
X0369449Y0039420D01*
X0366250Y0038094D01*
X0369070Y0039263D02*
X0374159Y0039263D01*
X0374159Y0040861D02*
X0370891Y0040861D01*
X0372143Y0042460D02*
X0374159Y0042460D01*
X0374159Y0044058D02*
X0372805Y0044058D01*
X0373224Y0045657D02*
X0374159Y0045657D01*
X0374159Y0047255D02*
X0373224Y0047255D01*
X0373090Y0048854D02*
X0374159Y0048854D01*
X0374159Y0050452D02*
X0372428Y0050452D01*
X0371579Y0052051D02*
X0374159Y0052051D01*
X0374159Y0053649D02*
X0369980Y0053649D01*
X0366872Y0055248D02*
X0374159Y0055248D01*
X0374159Y0056846D02*
X0361874Y0056846D01*
X0362165Y0055248D02*
X0360375Y0055248D01*
X0359056Y0053649D02*
X0358877Y0053649D01*
X0357458Y0052051D02*
X0357378Y0052051D01*
X0356608Y0050452D02*
X0355880Y0050452D01*
X0355946Y0048854D02*
X0354381Y0048854D01*
X0355813Y0047255D02*
X0352882Y0047255D01*
X0352068Y0046387D02*
X0368599Y0064019D01*
X0369218Y0064639D01*
X0369218Y0064680D01*
X0369246Y0064710D01*
X0369218Y0065585D01*
X0369218Y0072376D01*
X0370818Y0073976D01*
X0370818Y0077124D01*
X0368592Y0079350D01*
X0365444Y0079350D01*
X0363218Y0077124D01*
X0363218Y0073976D01*
X0364818Y0072376D01*
X0364818Y0066420D01*
X0348815Y0049350D01*
X0346694Y0049350D01*
X0344468Y0047124D01*
X0344468Y0043976D01*
X0346694Y0041750D01*
X0349842Y0041750D01*
X0352068Y0043976D01*
X0352068Y0046387D01*
X0352068Y0045657D02*
X0355813Y0045657D01*
X0356231Y0044058D02*
X0352068Y0044058D01*
X0350552Y0042460D02*
X0356893Y0042460D01*
X0358145Y0040861D02*
X0317941Y0040861D01*
X0319218Y0042460D02*
X0345984Y0042460D01*
X0344468Y0044058D02*
X0319218Y0044058D01*
X0319218Y0045657D02*
X0344468Y0045657D01*
X0344599Y0047255D02*
X0319218Y0047255D01*
X0319218Y0048854D02*
X0346198Y0048854D01*
X0349848Y0050452D02*
X0319218Y0050452D01*
X0319218Y0052051D02*
X0351347Y0052051D01*
X0349842Y0053000D02*
X0352068Y0055226D01*
X0352068Y0058374D01*
X0350468Y0059974D01*
X0350468Y0068389D01*
X0358829Y0076750D01*
X0361092Y0076750D01*
X0363318Y0078976D01*
X0363318Y0082124D01*
X0361092Y0084350D01*
X0357944Y0084350D01*
X0355718Y0082124D01*
X0355718Y0079861D01*
X0346068Y0070211D01*
X0346068Y0059974D01*
X0344468Y0058374D01*
X0344468Y0055226D01*
X0346694Y0053000D01*
X0349842Y0053000D01*
X0350491Y0053649D02*
X0352846Y0053649D01*
X0352068Y0055248D02*
X0354344Y0055248D01*
X0355843Y0056846D02*
X0352068Y0056846D01*
X0351997Y0058445D02*
X0357342Y0058445D01*
X0358840Y0060043D02*
X0350468Y0060043D01*
X0350468Y0061642D02*
X0360339Y0061642D01*
X0361837Y0063240D02*
X0350468Y0063240D01*
X0350468Y0064839D02*
X0363336Y0064839D01*
X0364818Y0066437D02*
X0350468Y0066437D01*
X0350468Y0068036D02*
X0356375Y0068036D01*
X0355518Y0068893D02*
X0357861Y0066550D01*
X0359518Y0066550D01*
X0359518Y0070550D01*
X0359518Y0070550D01*
X0355518Y0070550D01*
X0355518Y0072207D01*
X0357861Y0074550D01*
X0359518Y0074550D01*
X0359518Y0070550D01*
X0355518Y0070550D01*
X0355518Y0068893D01*
X0355518Y0069634D02*
X0351714Y0069634D01*
X0353312Y0071233D02*
X0355518Y0071233D01*
X0354911Y0072832D02*
X0356143Y0072832D01*
X0356509Y0074430D02*
X0357741Y0074430D01*
X0358108Y0076029D02*
X0363218Y0076029D01*
X0363218Y0074430D02*
X0361295Y0074430D01*
X0361175Y0074550D02*
X0359518Y0074550D01*
X0359518Y0070550D01*
X0359518Y0070550D01*
X0359518Y0070550D01*
X0359518Y0066550D01*
X0361175Y0066550D01*
X0363518Y0068893D01*
X0363518Y0070550D01*
X0363518Y0072207D01*
X0361175Y0074550D01*
X0359518Y0074430D02*
X0359518Y0074430D01*
X0359518Y0072832D02*
X0359518Y0072832D01*
X0359518Y0071233D02*
X0359518Y0071233D01*
X0359518Y0070550D02*
X0363518Y0070550D01*
X0359518Y0070550D01*
X0359518Y0070550D01*
X0359518Y0069634D02*
X0359518Y0069634D01*
X0359518Y0068036D02*
X0359518Y0068036D01*
X0362661Y0068036D02*
X0364818Y0068036D01*
X0364818Y0069634D02*
X0363518Y0069634D01*
X0363518Y0071233D02*
X0364818Y0071233D01*
X0364363Y0072832D02*
X0362893Y0072832D01*
X0367018Y0075550D02*
X0367018Y0065550D01*
X0348268Y0045550D01*
X0359966Y0039263D02*
X0316342Y0039263D01*
X0314518Y0040550D02*
X0303268Y0040550D01*
X0298268Y0045550D01*
X0294468Y0045657D02*
X0282268Y0045657D01*
X0282268Y0045550D02*
X0282268Y0047207D01*
X0279925Y0049550D01*
X0278268Y0049550D01*
X0276611Y0049550D01*
X0274268Y0047207D01*
X0274268Y0045550D01*
X0278268Y0045550D01*
X0278268Y0045550D01*
X0274268Y0045550D01*
X0274268Y0043893D01*
X0276611Y0041550D01*
X0278268Y0041550D01*
X0278268Y0045550D01*
X0278268Y0049550D01*
X0278268Y0045550D01*
X0278268Y0045550D01*
X0278268Y0045550D01*
X0278268Y0041550D01*
X0279925Y0041550D01*
X0282268Y0043893D01*
X0282268Y0045550D01*
X0278268Y0045550D01*
X0278268Y0045550D01*
X0282268Y0045550D01*
X0282268Y0044058D02*
X0294468Y0044058D01*
X0295984Y0042460D02*
X0280835Y0042460D01*
X0278268Y0042460D02*
X0278268Y0042460D01*
X0278268Y0044058D02*
X0278268Y0044058D01*
X0278268Y0045657D02*
X0278268Y0045657D01*
X0278268Y0047255D02*
X0278268Y0047255D01*
X0278268Y0048854D02*
X0278268Y0048854D01*
X0275915Y0048854D02*
X0272183Y0048854D01*
X0270585Y0047255D02*
X0274317Y0047255D01*
X0274268Y0045657D02*
X0268986Y0045657D01*
X0268528Y0044058D02*
X0267388Y0044058D01*
X0273009Y0044058D02*
X0274268Y0044058D01*
X0273938Y0042460D02*
X0275701Y0042460D01*
X0282220Y0047255D02*
X0294599Y0047255D01*
X0296198Y0048854D02*
X0280621Y0048854D01*
X0268605Y0055248D02*
X0253588Y0055248D01*
X0253763Y0053649D02*
X0267006Y0053649D01*
X0265408Y0052051D02*
X0255676Y0052051D01*
X0256338Y0050452D02*
X0263809Y0050452D01*
X0262211Y0048854D02*
X0256418Y0048854D01*
X0256418Y0047255D02*
X0260612Y0047255D01*
X0259014Y0045657D02*
X0256418Y0045657D01*
X0256418Y0044058D02*
X0257415Y0044058D01*
X0251818Y0046600D02*
X0247618Y0046600D01*
X0247618Y0043654D01*
X0247726Y0042970D01*
X0247940Y0042311D01*
X0248255Y0041694D01*
X0248662Y0041134D01*
X0248920Y0040875D01*
X0244833Y0040875D01*
X0245579Y0041621D01*
X0246218Y0043165D01*
X0246218Y0050435D01*
X0245579Y0051979D01*
X0245458Y0052100D01*
X0248396Y0052100D01*
X0248255Y0051906D01*
X0247940Y0051289D01*
X0247726Y0050630D01*
X0247618Y0049946D01*
X0247618Y0047000D01*
X0251818Y0047000D01*
X0251818Y0046600D01*
X0247618Y0047255D02*
X0246218Y0047255D01*
X0246218Y0045657D02*
X0247618Y0045657D01*
X0247618Y0044058D02*
X0246218Y0044058D01*
X0245926Y0042460D02*
X0247892Y0042460D01*
X0247618Y0048854D02*
X0246218Y0048854D01*
X0246211Y0050452D02*
X0247698Y0050452D01*
X0248360Y0052051D02*
X0245507Y0052051D01*
X0242018Y0054300D02*
X0249518Y0054300D01*
X0252018Y0056800D01*
X0250768Y0070550D01*
X0243268Y0070550D02*
X0242018Y0070550D01*
X0242018Y0054300D01*
X0259839Y0056846D02*
X0293953Y0056846D01*
X0295552Y0058445D02*
X0260736Y0058445D01*
X0260818Y0060043D02*
X0297150Y0060043D01*
X0298749Y0061642D02*
X0260818Y0061642D01*
X0260818Y0063240D02*
X0300347Y0063240D01*
X0300768Y0064839D02*
X0300768Y0064839D01*
X0300768Y0066437D02*
X0300768Y0066437D01*
X0300768Y0068036D02*
X0300768Y0068036D01*
X0300768Y0069300D02*
X0300768Y0069300D01*
X0305518Y0069300D01*
X0300768Y0069300D01*
X0300768Y0069634D02*
X0300768Y0069634D01*
X0300768Y0071233D02*
X0300768Y0071233D01*
X0300768Y0072832D02*
X0300768Y0072832D01*
X0297582Y0072832D02*
X0267292Y0072832D01*
X0268891Y0074430D02*
X0311537Y0074430D01*
X0312318Y0076029D02*
X0303931Y0076029D01*
X0303954Y0072832D02*
X0309938Y0072832D01*
X0308340Y0071233D02*
X0305518Y0071233D01*
X0305518Y0069634D02*
X0306741Y0069634D01*
X0296913Y0066437D02*
X0260155Y0066437D01*
X0260818Y0064839D02*
X0298512Y0064839D01*
X0296018Y0068036D02*
X0262497Y0068036D01*
X0264095Y0069634D02*
X0296018Y0069634D01*
X0296018Y0071233D02*
X0265694Y0071233D01*
X0270489Y0076029D02*
X0297605Y0076029D01*
X0296536Y0077627D02*
X0272088Y0077627D01*
X0273686Y0079226D02*
X0296218Y0079226D01*
X0296475Y0080824D02*
X0275285Y0080824D01*
X0276883Y0082423D02*
X0297456Y0082423D01*
X0300768Y0079300D02*
X0309518Y0079300D01*
X0314518Y0084300D01*
X0329518Y0084300D01*
X0333268Y0080550D01*
X0333268Y0076800D01*
X0333018Y0076800D01*
X0333268Y0076800D02*
X0337018Y0076800D01*
X0339518Y0074300D01*
X0339518Y0059300D01*
X0337018Y0056800D01*
X0320768Y0056800D01*
X0317018Y0053050D01*
X0317018Y0043050D01*
X0314518Y0040550D01*
X0314818Y0044058D02*
X0312068Y0044058D01*
X0312068Y0045657D02*
X0314818Y0045657D01*
X0314818Y0047255D02*
X0311937Y0047255D01*
X0310338Y0048854D02*
X0314818Y0048854D01*
X0314818Y0050452D02*
X0311282Y0050452D01*
X0312880Y0052051D02*
X0314818Y0052051D01*
X0314818Y0053649D02*
X0314479Y0053649D01*
X0316077Y0055248D02*
X0316105Y0055248D01*
X0317676Y0056846D02*
X0317703Y0056846D01*
X0317968Y0058445D02*
X0318568Y0058445D01*
X0320768Y0056800D02*
X0320768Y0064300D01*
X0321018Y0064300D01*
X0315768Y0071800D02*
X0308268Y0064300D01*
X0308268Y0056800D01*
X0320729Y0053649D02*
X0346045Y0053649D01*
X0344468Y0055248D02*
X0338577Y0055248D01*
X0340176Y0056846D02*
X0344468Y0056846D01*
X0344539Y0058445D02*
X0341718Y0058445D01*
X0341718Y0060043D02*
X0346068Y0060043D01*
X0346068Y0061642D02*
X0341718Y0061642D01*
X0341718Y0063240D02*
X0346068Y0063240D01*
X0346068Y0064839D02*
X0341718Y0064839D01*
X0341718Y0066437D02*
X0346068Y0066437D01*
X0346068Y0068036D02*
X0341718Y0068036D01*
X0341718Y0069634D02*
X0346068Y0069634D01*
X0347090Y0071233D02*
X0341718Y0071233D01*
X0341718Y0072832D02*
X0348688Y0072832D01*
X0350287Y0074430D02*
X0341718Y0074430D01*
X0340901Y0076029D02*
X0351885Y0076029D01*
X0353484Y0077627D02*
X0339302Y0077627D01*
X0336718Y0079226D02*
X0355082Y0079226D01*
X0355718Y0080824D02*
X0336424Y0080824D01*
X0334507Y0082423D02*
X0356017Y0082423D01*
X0357615Y0084021D02*
X0332908Y0084021D01*
X0331310Y0085620D02*
X0374159Y0085620D01*
X0374159Y0087218D02*
X0330548Y0087218D01*
X0332146Y0088817D02*
X0374159Y0088817D01*
X0374159Y0090415D02*
X0333745Y0090415D01*
X0335343Y0092014D02*
X0374159Y0092014D01*
X0374159Y0093612D02*
X0336718Y0093612D01*
X0337336Y0095211D02*
X0341701Y0095211D01*
X0347336Y0095211D02*
X0351701Y0095211D01*
X0352861Y0094050D02*
X0350518Y0096393D01*
X0350518Y0099707D01*
X0352861Y0102050D01*
X0356175Y0102050D01*
X0358518Y0099707D01*
X0358518Y0096393D01*
X0356175Y0094050D01*
X0352861Y0094050D01*
X0357336Y0095211D02*
X0374159Y0095211D01*
X0374159Y0096809D02*
X0358518Y0096809D01*
X0358518Y0098408D02*
X0374159Y0098408D01*
X0374159Y0100006D02*
X0358219Y0100006D01*
X0356620Y0101605D02*
X0374159Y0101605D01*
X0374159Y0103203D02*
X0342476Y0103203D01*
X0342778Y0103850D02*
X0344418Y0103850D01*
X0344418Y0107950D01*
X0340318Y0107950D01*
X0340318Y0106310D01*
X0342778Y0103850D01*
X0341827Y0104802D02*
X0340878Y0104802D01*
X0340318Y0106400D02*
X0338718Y0106400D01*
X0338718Y0108150D02*
X0334618Y0108150D01*
X0334618Y0112250D01*
X0336258Y0112250D01*
X0338718Y0109790D01*
X0338718Y0108150D01*
X0338718Y0109597D02*
X0340318Y0109597D01*
X0340318Y0109790D02*
X0340318Y0108150D01*
X0344418Y0108150D01*
X0344418Y0107950D01*
X0344618Y0107950D01*
X0344618Y0103850D01*
X0346258Y0103850D01*
X0348718Y0106310D01*
X0348718Y0107950D01*
X0344618Y0107950D01*
X0344618Y0108150D01*
X0344418Y0108150D01*
X0344418Y0112250D01*
X0342778Y0112250D01*
X0340318Y0109790D01*
X0341724Y0111196D02*
X0337312Y0111196D01*
X0334618Y0111196D02*
X0334418Y0111196D01*
X0334418Y0112250D02*
X0332778Y0112250D01*
X0330318Y0109790D01*
X0330318Y0108150D01*
X0334418Y0108150D01*
X0334418Y0112250D01*
X0334418Y0109597D02*
X0334618Y0109597D01*
X0334618Y0107999D02*
X0344418Y0107999D01*
X0344618Y0107999D02*
X0354418Y0107999D01*
X0354418Y0107950D02*
X0350318Y0107950D01*
X0350318Y0106310D01*
X0352778Y0103850D01*
X0354418Y0103850D01*
X0354418Y0107950D01*
X0354418Y0108150D01*
X0350318Y0108150D01*
X0350318Y0109790D01*
X0352778Y0112250D01*
X0354418Y0112250D01*
X0354418Y0108150D01*
X0354618Y0108150D01*
X0354618Y0112250D01*
X0356258Y0112250D01*
X0358718Y0109790D01*
X0358718Y0108150D01*
X0354618Y0108150D01*
X0354618Y0107950D01*
X0354618Y0103850D01*
X0356258Y0103850D01*
X0358718Y0106310D01*
X0358718Y0107950D01*
X0354618Y0107950D01*
X0354418Y0107950D01*
X0354618Y0107999D02*
X0374159Y0107999D01*
X0374159Y0109597D02*
X0358718Y0109597D01*
X0357312Y0111196D02*
X0374159Y0111196D01*
X0374159Y0112794D02*
X0209218Y0112794D01*
X0209218Y0111196D02*
X0312007Y0111196D01*
X0312861Y0112050D02*
X0310518Y0109707D01*
X0310518Y0106393D01*
X0312861Y0104050D01*
X0316175Y0104050D01*
X0318518Y0106393D01*
X0318518Y0109707D01*
X0316175Y0112050D01*
X0312861Y0112050D01*
X0310518Y0109597D02*
X0209832Y0109597D01*
X0211431Y0107999D02*
X0310518Y0107999D01*
X0310518Y0106400D02*
X0309279Y0106400D01*
X0310878Y0104802D02*
X0312110Y0104802D01*
X0312476Y0103203D02*
X0329060Y0103203D01*
X0327462Y0101605D02*
X0326620Y0101605D01*
X0326258Y0103850D02*
X0324618Y0103850D01*
X0324618Y0107950D01*
X0324418Y0107950D01*
X0320318Y0107950D01*
X0320318Y0106310D01*
X0322778Y0103850D01*
X0324418Y0103850D01*
X0324418Y0107950D01*
X0324418Y0108150D01*
X0320318Y0108150D01*
X0320318Y0109790D01*
X0322778Y0112250D01*
X0324418Y0112250D01*
X0324418Y0108150D01*
X0324618Y0108150D01*
X0324618Y0112250D01*
X0326258Y0112250D01*
X0328718Y0109790D01*
X0328718Y0108150D01*
X0324618Y0108150D01*
X0324618Y0107950D01*
X0328718Y0107950D01*
X0328718Y0106310D01*
X0326258Y0103850D01*
X0327210Y0104802D02*
X0330659Y0104802D01*
X0330318Y0106400D02*
X0328718Y0106400D01*
X0324618Y0106400D02*
X0324418Y0106400D01*
X0324418Y0104802D02*
X0324618Y0104802D01*
X0321827Y0104802D02*
X0316927Y0104802D01*
X0318518Y0106400D02*
X0320318Y0106400D01*
X0318518Y0107999D02*
X0324418Y0107999D01*
X0324618Y0107999D02*
X0334418Y0107999D01*
X0330318Y0109597D02*
X0328718Y0109597D01*
X0327312Y0111196D02*
X0331724Y0111196D01*
X0324618Y0111196D02*
X0324418Y0111196D01*
X0324418Y0109597D02*
X0324618Y0109597D01*
X0321724Y0111196D02*
X0317029Y0111196D01*
X0318518Y0109597D02*
X0320318Y0109597D01*
X0329518Y0100550D02*
X0332018Y0103050D01*
X0339518Y0103050D01*
X0344518Y0098050D01*
X0340518Y0098408D02*
X0338518Y0098408D01*
X0338518Y0096809D02*
X0340518Y0096809D01*
X0334518Y0098050D02*
X0334518Y0094300D01*
X0328268Y0088050D01*
X0293268Y0088050D01*
X0294518Y0090550D02*
X0327018Y0090550D01*
X0329518Y0093050D01*
X0329518Y0100550D01*
X0322416Y0101605D02*
X0316620Y0101605D01*
X0318219Y0100006D02*
X0320817Y0100006D01*
X0320518Y0098408D02*
X0318518Y0098408D01*
X0318518Y0096809D02*
X0320518Y0096809D01*
X0314518Y0098050D02*
X0308268Y0104300D01*
X0212018Y0104300D01*
X0207018Y0109300D01*
X0207018Y0121800D01*
X0203218Y0122385D02*
X0200818Y0122385D01*
X0200818Y0120787D02*
X0203218Y0120787D01*
X0203218Y0119188D02*
X0200818Y0119188D01*
X0200381Y0117590D02*
X0203655Y0117590D01*
X0204818Y0115991D02*
X0199218Y0115991D01*
X0199218Y0114393D02*
X0204818Y0114393D01*
X0204818Y0112794D02*
X0199218Y0112794D01*
X0199218Y0111196D02*
X0204818Y0111196D01*
X0204818Y0109597D02*
X0199832Y0109597D01*
X0201431Y0107999D02*
X0205208Y0107999D01*
X0206807Y0106400D02*
X0203029Y0106400D01*
X0204628Y0104802D02*
X0208405Y0104802D01*
X0204518Y0101800D02*
X0294518Y0101800D01*
X0295768Y0100550D01*
X0293412Y0098408D02*
X0289772Y0098408D01*
X0291370Y0096809D02*
X0310518Y0096809D01*
X0310518Y0098408D02*
X0298125Y0098408D01*
X0298949Y0100006D02*
X0309451Y0100006D01*
X0307852Y0101605D02*
X0298774Y0101605D01*
X0294518Y0090550D02*
X0285768Y0099300D01*
X0197018Y0099300D01*
X0187018Y0109300D01*
X0187018Y0121800D01*
X0190818Y0122385D02*
X0193218Y0122385D01*
X0193218Y0120787D02*
X0190818Y0120787D01*
X0190818Y0119188D02*
X0193218Y0119188D01*
X0193655Y0117590D02*
X0190381Y0117590D01*
X0189218Y0115991D02*
X0194818Y0115991D01*
X0194818Y0114393D02*
X0189218Y0114393D01*
X0189218Y0112794D02*
X0194818Y0112794D01*
X0194818Y0111196D02*
X0189218Y0111196D01*
X0189832Y0109597D02*
X0194818Y0109597D01*
X0195208Y0107999D02*
X0191431Y0107999D01*
X0193029Y0106400D02*
X0196807Y0106400D01*
X0198405Y0104802D02*
X0194628Y0104802D01*
X0196226Y0103203D02*
X0200004Y0103203D01*
X0201602Y0101605D02*
X0197825Y0101605D01*
X0204518Y0101800D02*
X0197018Y0109300D01*
X0197018Y0121800D01*
X0193218Y0123984D02*
X0190818Y0123984D01*
X0190559Y0125582D02*
X0193478Y0125582D01*
X0194625Y0127181D02*
X0189411Y0127181D01*
X0199411Y0127181D02*
X0204625Y0127181D01*
X0203478Y0125582D02*
X0200559Y0125582D01*
X0200818Y0123984D02*
X0203218Y0123984D01*
X0209411Y0127181D02*
X0214625Y0127181D01*
X0214866Y0127421D02*
X0213797Y0126353D01*
X0213218Y0124956D01*
X0213218Y0118644D01*
X0213797Y0117247D01*
X0214866Y0116179D01*
X0216262Y0115600D01*
X0217774Y0115600D01*
X0219171Y0116179D01*
X0220240Y0117247D01*
X0220818Y0118644D01*
X0220818Y0124956D01*
X0220240Y0126353D01*
X0219171Y0127421D01*
X0217774Y0128000D01*
X0216262Y0128000D01*
X0214866Y0127421D01*
X0213478Y0125582D02*
X0210559Y0125582D01*
X0210818Y0123984D02*
X0213218Y0123984D01*
X0213218Y0122385D02*
X0210818Y0122385D01*
X0210818Y0120787D02*
X0213218Y0120787D01*
X0213218Y0119188D02*
X0210818Y0119188D01*
X0210381Y0117590D02*
X0213655Y0117590D01*
X0215317Y0115991D02*
X0209218Y0115991D01*
X0209218Y0114393D02*
X0283809Y0114393D01*
X0283651Y0114550D02*
X0284768Y0113433D01*
X0286228Y0112828D01*
X0287808Y0112828D01*
X0289268Y0113433D01*
X0290385Y0114550D01*
X0290990Y0116010D01*
X0290990Y0117590D01*
X0290385Y0119050D01*
X0289268Y0120167D01*
X0287808Y0120772D01*
X0286228Y0120772D01*
X0284768Y0120167D01*
X0283651Y0119050D01*
X0283046Y0117590D01*
X0283046Y0116010D01*
X0283651Y0114550D01*
X0283054Y0115991D02*
X0258719Y0115991D01*
X0259171Y0116179D02*
X0260240Y0117247D01*
X0260818Y0118644D01*
X0260818Y0124956D01*
X0260240Y0126353D01*
X0259171Y0127421D01*
X0257774Y0128000D01*
X0256262Y0128000D01*
X0254866Y0127421D01*
X0253797Y0126353D01*
X0253218Y0124956D01*
X0253218Y0118644D01*
X0253797Y0117247D01*
X0254866Y0116179D01*
X0256262Y0115600D01*
X0257774Y0115600D01*
X0259171Y0116179D01*
X0260381Y0117590D02*
X0283046Y0117590D01*
X0283790Y0119188D02*
X0260818Y0119188D01*
X0260818Y0120787D02*
X0374159Y0120787D01*
X0374159Y0122385D02*
X0260818Y0122385D01*
X0260818Y0123984D02*
X0374159Y0123984D01*
X0374159Y0125582D02*
X0352970Y0125582D01*
X0352533Y0125146D02*
X0353672Y0126285D01*
X0353672Y0126285D01*
X0354668Y0127281D01*
X0354668Y0132960D01*
X0353672Y0133955D01*
X0352264Y0133955D01*
X0351268Y0132960D01*
X0351268Y0128689D01*
X0350833Y0128254D01*
X0350398Y0128689D01*
X0350398Y0132960D01*
X0349402Y0133955D01*
X0347994Y0133955D01*
X0346998Y0132960D01*
X0346998Y0132049D01*
X0346087Y0132960D01*
X0345092Y0133955D01*
X0343683Y0133955D01*
X0342687Y0132960D01*
X0342687Y0127550D01*
X0341777Y0127550D01*
X0341777Y0127622D01*
X0340781Y0128618D01*
X0338305Y0128618D01*
X0337398Y0127710D01*
X0334553Y0130555D01*
X0335083Y0130555D01*
X0336150Y0129488D01*
X0337559Y0129488D01*
X0338554Y0130484D01*
X0338554Y0131892D01*
X0336491Y0133955D01*
X0332947Y0133955D01*
X0332250Y0133258D01*
X0331880Y0132888D01*
X0331880Y0132888D01*
X0331582Y0132590D01*
X0330884Y0131892D01*
X0330884Y0129416D01*
X0331880Y0128420D01*
X0332750Y0127550D01*
X0331880Y0127550D01*
X0330884Y0126554D01*
X0330884Y0125146D01*
X0331880Y0124150D01*
X0337559Y0124150D01*
X0337932Y0124523D01*
X0338305Y0124150D01*
X0340781Y0124150D01*
X0341165Y0124533D01*
X0341548Y0124150D01*
X0347227Y0124150D01*
X0348223Y0125146D01*
X0348223Y0126056D01*
X0350129Y0124150D01*
X0351537Y0124150D01*
X0352533Y0125146D01*
X0352533Y0125146D01*
X0354568Y0127181D02*
X0374159Y0127181D01*
X0374159Y0128779D02*
X0354668Y0128779D01*
X0354668Y0130378D02*
X0374159Y0130378D01*
X0374159Y0131976D02*
X0354668Y0131976D01*
X0354053Y0133575D02*
X0374159Y0133575D01*
X0374159Y0135173D02*
X0354692Y0135173D01*
X0356232Y0136772D02*
X0374159Y0136772D01*
X0374159Y0138370D02*
X0356232Y0138370D01*
X0356232Y0139969D02*
X0374159Y0139969D01*
X0374159Y0141568D02*
X0356232Y0141568D01*
X0355458Y0143166D02*
X0374159Y0143166D01*
X0374159Y0144765D02*
X0102228Y0144765D01*
X0094308Y0144765D02*
X0092435Y0144765D01*
X0092668Y0143166D02*
X0094068Y0143166D01*
X0094068Y0141568D02*
X0092668Y0141568D01*
X0102468Y0139969D02*
X0115780Y0139969D01*
X0115518Y0138370D02*
X0102468Y0138370D01*
X0102409Y0136772D02*
X0115518Y0136772D01*
X0116738Y0135173D02*
X0101631Y0135173D01*
X0113268Y0129300D02*
X0117018Y0125550D01*
X0117018Y0121800D01*
X0113218Y0122385D02*
X0110818Y0122385D01*
X0110818Y0120787D02*
X0113218Y0120787D01*
X0113218Y0119188D02*
X0110818Y0119188D01*
X0110381Y0117590D02*
X0113655Y0117590D01*
X0115317Y0115991D02*
X0108719Y0115991D01*
X0105317Y0115991D02*
X0098719Y0115991D01*
X0100381Y0117590D02*
X0103655Y0117590D01*
X0103218Y0119188D02*
X0100818Y0119188D01*
X0100818Y0120787D02*
X0103218Y0120787D01*
X0103218Y0122385D02*
X0100818Y0122385D01*
X0100818Y0123984D02*
X0103218Y0123984D01*
X0103478Y0125582D02*
X0100559Y0125582D01*
X0093478Y0125582D02*
X0090559Y0125582D01*
X0090818Y0123984D02*
X0093218Y0123984D01*
X0093218Y0122385D02*
X0090818Y0122385D01*
X0090818Y0120787D02*
X0093218Y0120787D01*
X0093218Y0119188D02*
X0090818Y0119188D01*
X0090381Y0117590D02*
X0093655Y0117590D01*
X0095317Y0115991D02*
X0088719Y0115991D01*
X0085317Y0115991D02*
X0078719Y0115991D01*
X0080381Y0117590D02*
X0083655Y0117590D01*
X0083218Y0119188D02*
X0080818Y0119188D01*
X0080818Y0120787D02*
X0083218Y0120787D01*
X0083218Y0122385D02*
X0080818Y0122385D01*
X0080818Y0123984D02*
X0083218Y0123984D01*
X0083478Y0125582D02*
X0080559Y0125582D01*
X0077018Y0129300D02*
X0113268Y0129300D01*
X0116900Y0128779D02*
X0121927Y0128779D01*
X0123526Y0127181D02*
X0119411Y0127181D01*
X0120559Y0125582D02*
X0123478Y0125582D01*
X0123218Y0123984D02*
X0120818Y0123984D01*
X0120818Y0122385D02*
X0123218Y0122385D01*
X0123218Y0120787D02*
X0120818Y0120787D01*
X0120818Y0119188D02*
X0123218Y0119188D01*
X0123655Y0117590D02*
X0120381Y0117590D01*
X0118719Y0115991D02*
X0125317Y0115991D01*
X0127018Y0121800D02*
X0127018Y0126800D01*
X0113478Y0125582D02*
X0110559Y0125582D01*
X0110818Y0123984D02*
X0113218Y0123984D01*
X0074625Y0127181D02*
X0069411Y0127181D01*
X0069171Y0127421D02*
X0067774Y0128000D01*
X0066262Y0128000D01*
X0064866Y0127421D01*
X0063797Y0126353D01*
X0063218Y0124956D01*
X0063218Y0118644D01*
X0063797Y0117247D01*
X0064866Y0116179D01*
X0066262Y0115600D01*
X0067774Y0115600D01*
X0069171Y0116179D01*
X0070240Y0117247D01*
X0070818Y0118644D01*
X0070818Y0124956D01*
X0070240Y0126353D01*
X0069171Y0127421D01*
X0070559Y0125582D02*
X0073478Y0125582D01*
X0073218Y0123984D02*
X0070818Y0123984D01*
X0070818Y0122385D02*
X0073218Y0122385D01*
X0073218Y0120787D02*
X0070818Y0120787D01*
X0070818Y0119188D02*
X0073218Y0119188D01*
X0073655Y0117590D02*
X0070381Y0117590D01*
X0068719Y0115991D02*
X0075317Y0115991D01*
X0070020Y0112794D02*
X0045468Y0112794D01*
X0045468Y0111196D02*
X0068421Y0111196D01*
X0066912Y0109597D02*
X0044177Y0109597D01*
X0042578Y0107999D02*
X0066518Y0107999D01*
X0072518Y0106400D02*
X0076427Y0106400D01*
X0076385Y0104802D02*
X0072518Y0104802D01*
X0072518Y0103203D02*
X0077366Y0103203D01*
X0079518Y0105550D02*
X0173268Y0105550D01*
X0185768Y0093050D01*
X0262018Y0093050D01*
X0263268Y0080550D02*
X0274518Y0091800D01*
X0285199Y0092014D02*
X0286193Y0092014D01*
X0292969Y0095211D02*
X0311701Y0095211D01*
X0317336Y0095211D02*
X0321701Y0095211D01*
X0326969Y0093612D02*
X0294567Y0093612D01*
X0280828Y0085620D02*
X0312726Y0085620D01*
X0311128Y0084021D02*
X0279856Y0084021D01*
X0271595Y0085620D02*
X0271449Y0085620D01*
X0269997Y0084021D02*
X0269850Y0084021D01*
X0268398Y0082423D02*
X0268252Y0082423D01*
X0266800Y0080824D02*
X0266653Y0080824D01*
X0265201Y0079226D02*
X0265055Y0079226D01*
X0263603Y0077627D02*
X0233274Y0077627D01*
X0232018Y0080550D02*
X0263268Y0080550D01*
X0304080Y0082423D02*
X0309529Y0082423D01*
X0317018Y0081800D02*
X0325768Y0081800D01*
X0327018Y0080550D01*
X0327018Y0076800D01*
X0320768Y0071800D02*
X0315768Y0071800D01*
X0312318Y0077627D02*
X0310956Y0077627D01*
X0348268Y0069300D02*
X0359518Y0080550D01*
X0363318Y0080824D02*
X0374159Y0080824D01*
X0374159Y0079226D02*
X0368717Y0079226D01*
X0370315Y0077627D02*
X0374159Y0077627D01*
X0374159Y0076029D02*
X0370818Y0076029D01*
X0370818Y0074430D02*
X0374159Y0074430D01*
X0374159Y0072832D02*
X0369674Y0072832D01*
X0369218Y0071233D02*
X0374159Y0071233D01*
X0374159Y0069634D02*
X0369218Y0069634D01*
X0369218Y0068036D02*
X0374159Y0068036D01*
X0374159Y0066437D02*
X0369218Y0066437D01*
X0369242Y0064839D02*
X0374159Y0064839D01*
X0374159Y0063240D02*
X0367868Y0063240D01*
X0366370Y0061642D02*
X0374159Y0061642D01*
X0374159Y0060043D02*
X0364871Y0060043D01*
X0363373Y0058445D02*
X0374159Y0058445D01*
X0348268Y0056800D02*
X0348268Y0069300D01*
X0361969Y0077627D02*
X0363721Y0077627D01*
X0363318Y0079226D02*
X0365320Y0079226D01*
X0363020Y0082423D02*
X0374159Y0082423D01*
X0374159Y0084021D02*
X0361421Y0084021D01*
X0350518Y0096809D02*
X0348518Y0096809D01*
X0348518Y0098408D02*
X0350518Y0098408D01*
X0350817Y0100006D02*
X0348219Y0100006D01*
X0346620Y0101605D02*
X0352416Y0101605D01*
X0351827Y0104802D02*
X0347210Y0104802D01*
X0348718Y0106400D02*
X0350318Y0106400D01*
X0348718Y0108150D02*
X0348718Y0109790D01*
X0346258Y0112250D01*
X0344618Y0112250D01*
X0344618Y0108150D01*
X0348718Y0108150D01*
X0348718Y0109597D02*
X0350318Y0109597D01*
X0351724Y0111196D02*
X0347312Y0111196D01*
X0344618Y0111196D02*
X0344418Y0111196D01*
X0344418Y0109597D02*
X0344618Y0109597D01*
X0344618Y0106400D02*
X0344418Y0106400D01*
X0344418Y0104802D02*
X0344618Y0104802D01*
X0339451Y0100006D02*
X0338219Y0100006D01*
X0354418Y0104802D02*
X0354618Y0104802D01*
X0354618Y0106400D02*
X0354418Y0106400D01*
X0357210Y0104802D02*
X0374159Y0104802D01*
X0374159Y0106400D02*
X0358718Y0106400D01*
X0354618Y0109597D02*
X0354418Y0109597D01*
X0354418Y0111196D02*
X0354618Y0111196D01*
X0374159Y0114393D02*
X0290228Y0114393D01*
X0290982Y0115991D02*
X0374159Y0115991D01*
X0374159Y0117590D02*
X0290990Y0117590D01*
X0290247Y0119188D02*
X0374159Y0119188D01*
X0351268Y0128779D02*
X0350398Y0128779D01*
X0350398Y0130378D02*
X0351268Y0130378D01*
X0351268Y0131976D02*
X0350398Y0131976D01*
X0349782Y0133575D02*
X0351883Y0133575D01*
X0350102Y0135173D02*
X0349314Y0135173D01*
X0347613Y0133575D02*
X0345472Y0133575D01*
X0343303Y0133575D02*
X0336871Y0133575D01*
X0337211Y0135173D02*
X0336423Y0135173D01*
X0332567Y0133575D02*
X0279410Y0133575D01*
X0280643Y0135173D02*
X0304983Y0135173D01*
X0303443Y0136772D02*
X0280990Y0136772D01*
X0280666Y0138370D02*
X0303443Y0138370D01*
X0303443Y0139969D02*
X0279466Y0139969D01*
X0277018Y0136800D02*
X0270768Y0130550D01*
X0224518Y0130550D01*
X0225528Y0133575D02*
X0270682Y0133575D01*
X0275306Y0131976D02*
X0330968Y0131976D01*
X0330884Y0130378D02*
X0273707Y0130378D01*
X0272109Y0128779D02*
X0331521Y0128779D01*
X0331511Y0127181D02*
X0259411Y0127181D01*
X0260559Y0125582D02*
X0330884Y0125582D01*
X0336329Y0128779D02*
X0342687Y0128779D01*
X0342687Y0130378D02*
X0338449Y0130378D01*
X0338470Y0131976D02*
X0342687Y0131976D01*
X0342589Y0135173D02*
X0341801Y0135173D01*
X0343341Y0138370D02*
X0346387Y0138370D01*
X0346387Y0139969D02*
X0343341Y0139969D01*
X0343341Y0141568D02*
X0346387Y0141568D01*
X0346387Y0143166D02*
X0342567Y0143166D01*
X0330221Y0143388D02*
X0330221Y0143388D01*
X0329999Y0143166D02*
X0329676Y0143166D01*
X0320605Y0143166D02*
X0319734Y0143166D01*
X0319734Y0141568D02*
X0320605Y0141568D01*
X0320605Y0139969D02*
X0319734Y0139969D01*
X0319734Y0138370D02*
X0320605Y0138370D01*
X0322465Y0135173D02*
X0323252Y0135173D01*
X0317874Y0135173D02*
X0316019Y0135173D01*
X0311429Y0135173D02*
X0310641Y0135173D01*
X0329978Y0135173D02*
X0330765Y0135173D01*
X0334731Y0130378D02*
X0335260Y0130378D01*
X0348223Y0125582D02*
X0348696Y0125582D01*
X0255317Y0115991D02*
X0248719Y0115991D01*
X0249171Y0116179D02*
X0250240Y0117247D01*
X0250818Y0118644D01*
X0250818Y0124956D01*
X0250240Y0126353D01*
X0249171Y0127421D01*
X0247774Y0128000D01*
X0246262Y0128000D01*
X0244866Y0127421D01*
X0243797Y0126353D01*
X0243218Y0124956D01*
X0243218Y0118644D01*
X0243797Y0117247D01*
X0244866Y0116179D01*
X0246262Y0115600D01*
X0247774Y0115600D01*
X0249171Y0116179D01*
X0250381Y0117590D02*
X0253655Y0117590D01*
X0253218Y0119188D02*
X0250818Y0119188D01*
X0250818Y0120787D02*
X0253218Y0120787D01*
X0253218Y0122385D02*
X0250818Y0122385D01*
X0250818Y0123984D02*
X0253218Y0123984D01*
X0253478Y0125582D02*
X0250559Y0125582D01*
X0249411Y0127181D02*
X0254625Y0127181D01*
X0244625Y0127181D02*
X0239411Y0127181D01*
X0239171Y0127421D02*
X0237774Y0128000D01*
X0236262Y0128000D01*
X0234866Y0127421D01*
X0233797Y0126353D01*
X0233218Y0124956D01*
X0233218Y0118644D01*
X0233797Y0117247D01*
X0234866Y0116179D01*
X0236262Y0115600D01*
X0237774Y0115600D01*
X0239171Y0116179D01*
X0240240Y0117247D01*
X0240818Y0118644D01*
X0240818Y0124956D01*
X0240240Y0126353D01*
X0239171Y0127421D01*
X0240559Y0125582D02*
X0243478Y0125582D01*
X0243218Y0123984D02*
X0240818Y0123984D01*
X0240818Y0122385D02*
X0243218Y0122385D01*
X0243218Y0120787D02*
X0240818Y0120787D01*
X0240818Y0119188D02*
X0243218Y0119188D01*
X0243655Y0117590D02*
X0240381Y0117590D01*
X0238719Y0115991D02*
X0245317Y0115991D01*
X0235317Y0115991D02*
X0228719Y0115991D01*
X0230381Y0117590D02*
X0233655Y0117590D01*
X0233218Y0119188D02*
X0230818Y0119188D01*
X0230818Y0120787D02*
X0233218Y0120787D01*
X0233218Y0122385D02*
X0230818Y0122385D01*
X0230818Y0123984D02*
X0233218Y0123984D01*
X0233478Y0125582D02*
X0230559Y0125582D01*
X0229411Y0127181D02*
X0234625Y0127181D01*
X0224625Y0127181D02*
X0219411Y0127181D01*
X0220559Y0125582D02*
X0223478Y0125582D01*
X0223218Y0123984D02*
X0220818Y0123984D01*
X0220818Y0122385D02*
X0223218Y0122385D01*
X0223218Y0120787D02*
X0220818Y0120787D01*
X0220818Y0119188D02*
X0223218Y0119188D01*
X0223655Y0117590D02*
X0220381Y0117590D01*
X0218719Y0115991D02*
X0225317Y0115991D01*
X0225488Y0135173D02*
X0202298Y0135173D01*
X0203518Y0136772D02*
X0224268Y0136772D01*
X0224268Y0138370D02*
X0203518Y0138370D01*
X0203256Y0139969D02*
X0224530Y0139969D01*
X0230407Y0141568D02*
X0246412Y0141568D01*
X0244813Y0139969D02*
X0232006Y0139969D01*
X0232268Y0138370D02*
X0244468Y0138370D01*
X0244468Y0136772D02*
X0232268Y0136772D01*
X0189518Y0138050D02*
X0169018Y0138050D01*
X0169518Y0138050D01*
X0171516Y0135173D02*
X0187021Y0135173D01*
X0163218Y0119188D02*
X0161018Y0119188D01*
X0160598Y0117590D02*
X0163655Y0117590D01*
X0164018Y0115991D02*
X0159116Y0115991D01*
X0162868Y0114393D02*
X0045468Y0114393D01*
X0045468Y0115991D02*
X0065317Y0115991D01*
X0063655Y0117590D02*
X0045468Y0117590D01*
X0045468Y0119188D02*
X0063218Y0119188D01*
X0063218Y0120787D02*
X0045468Y0120787D01*
X0045468Y0122385D02*
X0063218Y0122385D01*
X0063218Y0123984D02*
X0045468Y0123984D01*
X0045468Y0125582D02*
X0063478Y0125582D01*
X0064625Y0127181D02*
X0045468Y0127181D01*
X0044400Y0128779D02*
X0074427Y0128779D01*
X0069632Y0133575D02*
X0069164Y0133575D01*
X0043268Y0126800D02*
X0037018Y0133050D01*
X0038869Y0112794D02*
X0041068Y0112794D01*
X0039553Y0111196D02*
X0037395Y0111196D01*
X0016151Y0112794D02*
X0004838Y0112794D01*
X0004838Y0111196D02*
X0014553Y0111196D01*
X0015574Y0096809D02*
X0015943Y0096809D01*
X0021652Y0096809D02*
X0059035Y0096809D01*
X0057436Y0095211D02*
X0022687Y0095211D01*
X0022958Y0093496D02*
X0015943Y0093496D01*
X0015943Y0089280D01*
X0018905Y0089280D01*
X0019589Y0089388D01*
X0020247Y0089602D01*
X0020864Y0089917D01*
X0021425Y0090324D01*
X0021914Y0090814D01*
X0022321Y0091374D01*
X0022636Y0091991D01*
X0022850Y0092650D01*
X0022958Y0093334D01*
X0022958Y0093496D01*
X0022643Y0092014D02*
X0023753Y0092014D01*
X0023618Y0091879D02*
X0023618Y0086200D01*
X0024002Y0085817D01*
X0023618Y0085433D01*
X0023618Y0079755D01*
X0024614Y0078759D01*
X0026022Y0078759D01*
X0027018Y0079755D01*
X0027018Y0080894D01*
X0027888Y0080894D01*
X0027888Y0079755D01*
X0028796Y0078848D01*
X0027888Y0077940D01*
X0027888Y0076532D01*
X0028884Y0075536D01*
X0030293Y0075536D01*
X0031360Y0076604D01*
X0033495Y0076604D01*
X0034491Y0077600D01*
X0034491Y0079008D01*
X0033495Y0080004D01*
X0031537Y0080004D01*
X0032428Y0080894D01*
X0033424Y0081890D01*
X0033424Y0083298D01*
X0032428Y0084294D01*
X0027018Y0084294D01*
X0027018Y0085433D01*
X0026635Y0085817D01*
X0027018Y0086200D01*
X0027018Y0087340D01*
X0027888Y0087340D01*
X0027888Y0086200D01*
X0028884Y0085204D01*
X0030293Y0085204D01*
X0032428Y0087340D01*
X0033424Y0088335D01*
X0033424Y0089744D01*
X0032428Y0090740D01*
X0027018Y0090740D01*
X0027018Y0091879D01*
X0026022Y0092875D01*
X0024614Y0092875D01*
X0023618Y0091879D01*
X0023618Y0090415D02*
X0021516Y0090415D01*
X0023618Y0088817D02*
X0011718Y0088817D01*
X0011718Y0087218D02*
X0023618Y0087218D01*
X0023804Y0085620D02*
X0012322Y0085620D01*
X0013318Y0084021D02*
X0023618Y0084021D01*
X0023618Y0082423D02*
X0013318Y0082423D01*
X0012666Y0080824D02*
X0023618Y0080824D01*
X0024147Y0079226D02*
X0011718Y0079226D01*
X0011718Y0077627D02*
X0027888Y0077627D01*
X0028392Y0076029D02*
X0011718Y0076029D01*
X0026489Y0079226D02*
X0028418Y0079226D01*
X0027888Y0080824D02*
X0027018Y0080824D01*
X0032358Y0080824D02*
X0046370Y0080824D01*
X0045718Y0082423D02*
X0033424Y0082423D01*
X0032701Y0084021D02*
X0045718Y0084021D01*
X0046714Y0085620D02*
X0030708Y0085620D01*
X0028469Y0085620D02*
X0026832Y0085620D01*
X0027018Y0087218D02*
X0027888Y0087218D01*
X0032306Y0087218D02*
X0049444Y0087218D01*
X0051042Y0088817D02*
X0033424Y0088817D01*
X0032752Y0090415D02*
X0052641Y0090415D01*
X0054239Y0092014D02*
X0026883Y0092014D01*
X0015943Y0092014D02*
X0015574Y0092014D01*
X0015574Y0090415D02*
X0015943Y0090415D01*
X0015943Y0093612D02*
X0055838Y0093612D01*
X0061126Y0090415D02*
X0080022Y0090415D01*
X0078423Y0088817D02*
X0059527Y0088817D01*
X0057929Y0087218D02*
X0076825Y0087218D01*
X0075226Y0085620D02*
X0056330Y0085620D01*
X0054732Y0084021D02*
X0074818Y0084021D01*
X0074818Y0082423D02*
X0053318Y0082423D01*
X0052666Y0080824D02*
X0074818Y0080824D01*
X0074818Y0079226D02*
X0034273Y0079226D01*
X0034491Y0077627D02*
X0074818Y0077627D01*
X0074818Y0076029D02*
X0030785Y0076029D01*
X0024456Y0068036D02*
X0011718Y0068036D01*
X0031489Y0055248D02*
X0042217Y0055248D01*
X0062018Y0046800D02*
X0062018Y0040550D01*
X0066393Y0036175D01*
X0071350Y0026475D02*
X0082686Y0026475D01*
X0082694Y0024876D02*
X0071342Y0024876D01*
X0070697Y0023278D02*
X0083339Y0023278D01*
X0085218Y0021679D02*
X0068819Y0021679D01*
X0064418Y0021679D02*
X0064018Y0021679D01*
X0064018Y0023278D02*
X0064418Y0023278D01*
X0064418Y0024876D02*
X0064018Y0024876D01*
X0057739Y0023278D02*
X0053870Y0023278D01*
X0054568Y0024876D02*
X0057094Y0024876D01*
X0057086Y0026475D02*
X0054568Y0026475D01*
X0050768Y0025550D02*
X0050143Y0024925D01*
X0037018Y0011800D01*
X0043615Y0015285D02*
X0188642Y0015285D01*
X0190240Y0016884D02*
X0045213Y0016884D01*
X0046812Y0018482D02*
X0191839Y0018482D01*
X0193437Y0020081D02*
X0048410Y0020081D01*
X0050009Y0021679D02*
X0059618Y0021679D01*
X0067882Y0012088D02*
X0086154Y0012088D01*
X0083668Y0010490D02*
X0070368Y0010490D01*
X0064218Y0007900D02*
X0089368Y0007900D01*
X0089518Y0008050D01*
X0089668Y0007900D01*
X0089818Y0007900D01*
X0121868Y0007900D01*
X0139218Y0007900D02*
X0164368Y0007900D01*
X0164518Y0008050D01*
X0164668Y0007900D01*
X0164818Y0007900D01*
X0190618Y0007900D01*
X0197018Y0014300D01*
X0249518Y0014300D01*
X0254518Y0013050D02*
X0254518Y0018050D01*
X0260468Y0018482D02*
X0374159Y0018482D01*
X0374159Y0016884D02*
X0260468Y0016884D01*
X0261644Y0015285D02*
X0374159Y0015285D01*
X0374159Y0013687D02*
X0263243Y0013687D01*
X0264841Y0012088D02*
X0285554Y0012088D01*
X0283068Y0010490D02*
X0266440Y0010490D01*
X0265918Y0007900D02*
X0258268Y0015550D01*
X0258268Y0020550D01*
X0257018Y0021800D01*
X0250768Y0021800D01*
X0249518Y0020550D01*
X0249518Y0019300D01*
X0246983Y0024876D02*
X0246942Y0024876D01*
X0246950Y0026475D02*
X0248582Y0026475D01*
X0239618Y0025900D02*
X0239618Y0025500D01*
X0232618Y0025500D01*
X0232618Y0025354D01*
X0232726Y0024670D01*
X0232940Y0024011D01*
X0233255Y0023394D01*
X0233662Y0022834D01*
X0234152Y0022344D01*
X0234712Y0021937D01*
X0235329Y0021622D01*
X0235706Y0021500D01*
X0218330Y0021500D01*
X0218707Y0021622D01*
X0219324Y0021937D01*
X0219885Y0022344D01*
X0220374Y0022834D01*
X0220781Y0023394D01*
X0221096Y0024011D01*
X0221310Y0024670D01*
X0221418Y0025354D01*
X0221418Y0025500D01*
X0214418Y0025500D01*
X0214418Y0025900D01*
X0221418Y0025900D01*
X0221418Y0026046D01*
X0221310Y0026730D01*
X0221096Y0027389D01*
X0220912Y0027750D01*
X0233124Y0027750D01*
X0232940Y0027389D01*
X0232726Y0026730D01*
X0232618Y0026046D01*
X0232618Y0025900D01*
X0239618Y0025900D01*
X0233339Y0023278D02*
X0220697Y0023278D01*
X0221342Y0024876D02*
X0232694Y0024876D01*
X0232686Y0026475D02*
X0221350Y0026475D01*
X0218819Y0021679D02*
X0235218Y0021679D01*
X0249368Y0007900D02*
X0254518Y0013050D01*
X0249368Y0007900D02*
X0239818Y0007900D01*
X0239668Y0007900D01*
X0239518Y0008050D01*
X0239368Y0007900D01*
X0214218Y0007900D01*
X0209618Y0021679D02*
X0169419Y0021679D01*
X0171297Y0023278D02*
X0207739Y0023278D01*
X0207094Y0024876D02*
X0171942Y0024876D01*
X0171950Y0026475D02*
X0207086Y0026475D01*
X0165018Y0024876D02*
X0164618Y0024876D01*
X0164618Y0023278D02*
X0165018Y0023278D01*
X0165018Y0021679D02*
X0164618Y0021679D01*
X0160218Y0021679D02*
X0143819Y0021679D01*
X0145697Y0023278D02*
X0158339Y0023278D01*
X0157694Y0024876D02*
X0146342Y0024876D01*
X0146350Y0026475D02*
X0157686Y0026475D01*
X0139418Y0024876D02*
X0139018Y0024876D01*
X0139018Y0023278D02*
X0139418Y0023278D01*
X0139418Y0021679D02*
X0139018Y0021679D01*
X0134618Y0021679D02*
X0094419Y0021679D01*
X0096297Y0023278D02*
X0132739Y0023278D01*
X0132094Y0024876D02*
X0096942Y0024876D01*
X0096950Y0026475D02*
X0132086Y0026475D01*
X0132704Y0028073D02*
X0117105Y0028073D01*
X0118435Y0029672D02*
X0131851Y0029672D01*
X0131718Y0031270D02*
X0118568Y0031270D01*
X0118568Y0032869D02*
X0131718Y0032869D01*
X0090018Y0024876D02*
X0089618Y0024876D01*
X0089618Y0023278D02*
X0090018Y0023278D01*
X0090018Y0021679D02*
X0089618Y0021679D01*
X0057786Y0005694D02*
X0004838Y0005694D01*
X0004838Y0004096D02*
X0059628Y0004096D01*
X0025129Y0015285D02*
X0004838Y0015285D01*
X0004838Y0013687D02*
X0023531Y0013687D01*
X0023218Y0012088D02*
X0004838Y0012088D01*
X0004838Y0010490D02*
X0023218Y0010490D01*
X0007666Y0023278D02*
X0004838Y0023278D01*
X0004838Y0024876D02*
X0006968Y0024876D01*
X0006732Y0026475D02*
X0004838Y0026475D01*
X0004838Y0028073D02*
X0005134Y0028073D01*
X0007018Y0029300D02*
X0007018Y0033050D01*
X0007018Y0029300D02*
X0010768Y0025550D01*
X0107018Y0061800D02*
X0108268Y0075550D01*
X0110818Y0060043D02*
X0113218Y0060043D01*
X0113301Y0058445D02*
X0110736Y0058445D01*
X0109839Y0056846D02*
X0114198Y0056846D01*
X0081620Y0092014D02*
X0062724Y0092014D01*
X0064323Y0093612D02*
X0089227Y0093612D01*
X0089439Y0093400D02*
X0090848Y0093400D01*
X0091211Y0093763D01*
X0091574Y0093400D01*
X0092983Y0093400D01*
X0093346Y0093763D01*
X0093710Y0093400D01*
X0095118Y0093400D01*
X0095501Y0093783D01*
X0095885Y0093400D01*
X0100496Y0093400D01*
X0101413Y0094317D01*
X0102330Y0093400D01*
X0106941Y0093400D01*
X0108392Y0094851D01*
X0108458Y0094786D01*
X0108776Y0094468D01*
X0109165Y0094078D01*
X0109843Y0093400D01*
X0114454Y0093400D01*
X0115450Y0094396D01*
X0115450Y0097670D01*
X0116282Y0097670D01*
X0117421Y0096531D01*
X0117421Y0094396D01*
X0118417Y0093400D01*
X0119826Y0093400D01*
X0120209Y0093783D01*
X0120592Y0093400D01*
X0125204Y0093400D01*
X0126121Y0094317D01*
X0127038Y0093400D01*
X0128446Y0093400D01*
X0129442Y0094396D01*
X0129442Y0096603D01*
X0130312Y0096603D01*
X0130312Y0094396D01*
X0131308Y0093400D01*
X0132717Y0093400D01*
X0133090Y0093773D01*
X0133463Y0093400D01*
X0135939Y0093400D01*
X0136935Y0094396D01*
X0136935Y0095804D01*
X0136935Y0096872D01*
X0135939Y0097868D01*
X0133712Y0097868D01*
X0133712Y0102210D01*
X0132717Y0103205D01*
X0131308Y0103205D01*
X0130312Y0102210D01*
X0130312Y0100003D01*
X0129442Y0100003D01*
X0129442Y0102210D01*
X0128446Y0103205D01*
X0127038Y0103205D01*
X0126042Y0102210D01*
X0126042Y0100232D01*
X0125204Y0101070D01*
X0121660Y0101070D01*
X0120743Y0100153D01*
X0119826Y0101070D01*
X0118417Y0101070D01*
X0118054Y0100707D01*
X0117690Y0101070D01*
X0115450Y0101070D01*
X0115450Y0102210D01*
X0114454Y0103205D01*
X0113046Y0103205D01*
X0112050Y0102210D01*
X0112050Y0101070D01*
X0109843Y0101070D01*
X0108847Y0100074D01*
X0107937Y0099164D01*
X0107937Y0100074D01*
X0106941Y0101070D01*
X0103398Y0101070D01*
X0102481Y0100153D01*
X0101563Y0101070D01*
X0100155Y0101070D01*
X0099159Y0100074D01*
X0099159Y0096872D01*
X0099087Y0096800D01*
X0098289Y0096800D01*
X0098289Y0100074D01*
X0097293Y0101070D01*
X0095885Y0101070D01*
X0095501Y0100687D01*
X0095118Y0101070D01*
X0092642Y0101070D01*
X0092279Y0100707D01*
X0091915Y0101070D01*
X0090507Y0101070D01*
X0089439Y0100003D01*
X0088443Y0099007D01*
X0088443Y0094396D01*
X0089439Y0093400D01*
X0091060Y0093612D02*
X0091362Y0093612D01*
X0093195Y0093612D02*
X0093497Y0093612D01*
X0095330Y0093612D02*
X0095673Y0093612D01*
X0100708Y0093612D02*
X0102118Y0093612D01*
X0107153Y0093612D02*
X0109631Y0093612D01*
X0108776Y0094468D02*
X0108776Y0094468D01*
X0114667Y0093612D02*
X0118205Y0093612D01*
X0117421Y0095211D02*
X0115450Y0095211D01*
X0120038Y0093612D02*
X0120380Y0093612D01*
X0125416Y0093612D02*
X0126826Y0093612D01*
X0128658Y0093612D02*
X0131096Y0093612D01*
X0130312Y0095211D02*
X0129442Y0095211D01*
X0132929Y0093612D02*
X0133251Y0093612D01*
X0136152Y0093612D02*
X0138629Y0093612D01*
X0138841Y0093400D02*
X0140250Y0093400D01*
X0141246Y0094396D01*
X0141246Y0099805D01*
X0142385Y0099805D01*
X0143381Y0100801D01*
X0143381Y0102210D01*
X0142385Y0103205D01*
X0136706Y0103205D01*
X0135710Y0102210D01*
X0135710Y0100801D01*
X0136706Y0099805D01*
X0137846Y0099805D01*
X0137846Y0094396D01*
X0138841Y0093400D01*
X0140462Y0093612D02*
X0155719Y0093612D01*
X0157318Y0095211D02*
X0141246Y0095211D01*
X0137846Y0095211D02*
X0136935Y0095211D01*
X0136935Y0096809D02*
X0137846Y0096809D01*
X0137846Y0098408D02*
X0133712Y0098408D01*
X0133712Y0100006D02*
X0136505Y0100006D01*
X0135710Y0101605D02*
X0133712Y0101605D01*
X0132719Y0103203D02*
X0136704Y0103203D01*
X0142387Y0103203D02*
X0172504Y0103203D01*
X0174102Y0101605D02*
X0143381Y0101605D01*
X0142586Y0100006D02*
X0162113Y0100006D01*
X0160515Y0098408D02*
X0141246Y0098408D01*
X0141246Y0096809D02*
X0158916Y0096809D01*
X0173173Y0100006D02*
X0175701Y0100006D01*
X0174772Y0098408D02*
X0177299Y0098408D01*
X0176370Y0096809D02*
X0178898Y0096809D01*
X0177969Y0095211D02*
X0180496Y0095211D01*
X0179567Y0093612D02*
X0182095Y0093612D01*
X0181166Y0092014D02*
X0183693Y0092014D01*
X0131306Y0103203D02*
X0128448Y0103203D01*
X0127036Y0103203D02*
X0114457Y0103203D01*
X0113044Y0103203D02*
X0081670Y0103203D01*
X0089443Y0100006D02*
X0070717Y0100006D01*
X0072167Y0101605D02*
X0112050Y0101605D01*
X0115450Y0101605D02*
X0126042Y0101605D01*
X0129442Y0101605D02*
X0130312Y0101605D01*
X0130312Y0100006D02*
X0129442Y0100006D01*
X0117143Y0096809D02*
X0115450Y0096809D01*
X0108779Y0100006D02*
X0107937Y0100006D01*
X0099159Y0100006D02*
X0098289Y0100006D01*
X0098289Y0098408D02*
X0099159Y0098408D01*
X0099097Y0096809D02*
X0098289Y0096809D01*
X0088443Y0096809D02*
X0067520Y0096809D01*
X0069118Y0098408D02*
X0088443Y0098408D01*
X0088443Y0095211D02*
X0065921Y0095211D01*
X0015943Y0095211D02*
X0015574Y0095211D01*
X0260468Y0032139D02*
X0260468Y0032139D01*
X0260468Y0031270D02*
X0260468Y0031270D01*
X0260468Y0029672D02*
X0260601Y0029672D01*
X0289018Y0024876D02*
X0289418Y0024876D01*
X0289418Y0023278D02*
X0289018Y0023278D01*
X0289018Y0021679D02*
X0289418Y0021679D01*
X0293819Y0021679D02*
X0310218Y0021679D01*
X0308339Y0023278D02*
X0295697Y0023278D01*
X0296342Y0024876D02*
X0307694Y0024876D01*
X0307686Y0026475D02*
X0296350Y0026475D01*
X0314618Y0024876D02*
X0315018Y0024876D01*
X0315018Y0023278D02*
X0314618Y0023278D01*
X0314618Y0021679D02*
X0315018Y0021679D01*
X0318482Y0012088D02*
X0374159Y0012088D01*
X0374159Y0010490D02*
X0320968Y0010490D01*
X0321754Y0008891D02*
X0374159Y0008891D01*
X0374159Y0007293D02*
X0321818Y0007293D01*
X0321250Y0005694D02*
X0374159Y0005694D01*
X0374159Y0004096D02*
X0319408Y0004096D01*
X0314818Y0007900D02*
X0314668Y0007900D01*
X0314518Y0008050D01*
X0314368Y0007900D01*
X0289218Y0007900D01*
X0265918Y0007900D01*
X0292882Y0012088D02*
X0311154Y0012088D01*
X0308668Y0010490D02*
X0295368Y0010490D01*
X0302871Y0044058D02*
X0304468Y0044058D01*
X0304468Y0045657D02*
X0302068Y0045657D01*
X0301937Y0047255D02*
X0304599Y0047255D01*
X0306198Y0048854D02*
X0300338Y0048854D01*
D23*
X0277018Y0086800D02*
X0260768Y0070550D01*
X0250768Y0070550D01*
X0243268Y0070550D01*
X0215768Y0070550D01*
X0177018Y0061800D02*
X0177018Y0080550D01*
X0167018Y0090550D01*
X0163268Y0110550D02*
X0072018Y0110550D01*
X0069518Y0108050D01*
X0069518Y0103050D01*
X0049518Y0083050D01*
X0163268Y0110550D02*
X0167018Y0114300D01*
X0167018Y0121800D01*
X0242018Y0054300D02*
X0242018Y0046800D01*
D24*
X0270768Y0041800D03*
X0249518Y0019300D03*
X0254518Y0018050D03*
X0249518Y0014300D03*
X0215768Y0070550D03*
X0232018Y0080550D03*
X0262018Y0093050D03*
X0282018Y0091800D03*
X0295768Y0100550D03*
X0224518Y0130550D03*
X0167018Y0090550D03*
X0079518Y0105550D03*
X0044518Y0053050D03*
M02*
